<?xml version="1.0" encoding="utf-8"?>
<!-- Generator: Adobe Illustrator 16.0.1, SVG Export Plug-In . SVG Version: 6.00 Build 0)  -->
<!DOCTYPE svg PUBLIC "-//W3C//DTD SVG 1.1//EN" "http://www.w3.org/Graphics/SVG/1.1/DTD/svg11.dtd">
<svg version="1.1" id="Layer_1" xmlns="http://www.w3.org/2000/svg" xmlns:xlink="http://www.w3.org/1999/xlink" x="0px" y="0px"
	 width="500px" height="400px" viewBox="0 0 500 400" enable-background="new 0 0 500 400" xml:space="preserve">
<g transform="translate(40,20)">
	<g transform="translate(0,350)">
		<g transform="translate(0,0)">
			<line fill="none" stroke="#000000" x1="-0.158" y1="-4.221" x2="-0.158" y2="1.779"/>
			<text transform="matrix(1 0 0 1 -11.7209 16.1394)" font-family="'Helvetica'" font-size="16">0%</text>
		</g>
		<g transform="translate(62.857142857142854,0)">
			<line fill="none" stroke="#000000" x1="-0.159" y1="-4.221" x2="-0.159" y2="1.779"/>
			<text transform="matrix(1 0 0 1 -16.1704 16.1394)" font-family="'Helvetica'" font-size="16">10%</text>
		</g>
		<g transform="translate(125.71428571428571,0)">
			<line fill="none" stroke="#000000" x1="-0.158" y1="-4.221" x2="-0.158" y2="1.779"/>
			<text transform="matrix(1 0 0 1 -16.1701 16.1394)" font-family="'Helvetica'" font-size="16">20%</text>
		</g>
		<g transform="translate(188.57142857142853,0)">
			<line fill="none" stroke="#000000" x1="-0.158" y1="-4.221" x2="-0.158" y2="1.779"/>
			<text transform="matrix(1 0 0 1 -16.1703 16.1394)" font-family="'Helvetica'" font-size="16">30%</text>
		</g>
		<g transform="translate(251.42857142857142,0)">
			<line fill="none" stroke="#000000" x1="-0.158" y1="-4.221" x2="-0.158" y2="1.779"/>
			<text transform="matrix(1 0 0 1 -16.1705 16.1394)" font-family="'Helvetica'" font-size="16">40%</text>
		</g>
		<g transform="translate(314.2857142857142,0)">
			<line fill="none" stroke="#000000" x1="-0.159" y1="-4.221" x2="-0.159" y2="1.779"/>
			<text transform="matrix(1 0 0 1 -16.1702 16.1394)" font-family="'Helvetica'" font-size="16">50%</text>
		</g>
		<g transform="translate(377.14285714285705,0)">
			<line fill="none" stroke="#000000" x1="-0.158" y1="-4.221" x2="-0.158" y2="1.779"/>
			<text transform="matrix(1 0 0 1 -16.1699 16.1394)" font-family="'Helvetica'" font-size="16">60%</text>
		</g>
		<g transform="translate(439.9999999999999,0)">
			<line fill="none" stroke="#000000" x1="-0.158" y1="-4.221" x2="-0.158" y2="1.779"/>
			<text transform="matrix(1 0 0 1 -16.1697 16.1394)" font-family="'Helvetica'" font-size="16">70%</text>
		</g>
		<path fill="none" stroke="#000000" d="M-0.158,1.779v-6h440v6"/>
		<text transform="matrix(1 0 0 1 296.0686 -10.2209)" font-family="'Helvetica'" font-size="16">Benefit (AHP Score)</text>
	</g>
	<g>
		<g transform="translate(0,350)">
			<line fill="none" stroke="#000000" x1="-0.158" y1="-4.221" x2="-6.158" y2="-4.221"/>
			<text transform="matrix(1 0 0 1 -18.0569 0.8992)" font-family="'Helvetica'" font-size="16">0</text>
		</g>
		<g transform="translate(0,323.0769230769231)">
			<line fill="none" stroke="#000000" x1="-0.158" y1="-4.22" x2="-6.158" y2="-4.22"/>
			<text transform="matrix(1 0 0 1 -26.9553 0.8994)" font-family="'Helvetica'" font-size="16">20</text>
		</g>
		<g transform="translate(0,296.15384615384613)">
			<line fill="none" stroke="#000000" x1="-0.158" y1="-4.22" x2="-6.158" y2="-4.22"/>
			<text transform="matrix(1 0 0 1 -26.9553 0.8996)" font-family="'Helvetica'" font-size="16">40</text>
		</g>
		<g transform="translate(0,269.2307692307692)">
			<line fill="none" stroke="#000000" x1="-0.158" y1="-4.219" x2="-6.158" y2="-4.219"/>
			<text transform="matrix(1 0 0 1 -26.9553 0.8998)" font-family="'Helvetica'" font-size="16">60</text>
		</g>
		<g transform="translate(0,242.30769230769232)">
			<line fill="none" stroke="#000000" x1="-0.158" y1="-4.22" x2="-6.158" y2="-4.22"/>
			<text transform="matrix(1 0 0 1 -26.9553 0.8991)" font-family="'Helvetica'" font-size="16">80</text>
		</g>
		<g transform="translate(0,215.3846153846154)">
			<line fill="none" stroke="#000000" x1="-0.158" y1="-4.221" x2="-6.158" y2="-4.221"/>
			<text transform="matrix(1 0 0 1 -35.8538 0.8993)" font-family="'Helvetica'" font-size="16">100</text>
		</g>
		<g transform="translate(0,188.46153846153845)">
			<line fill="none" stroke="#000000" x1="-0.158" y1="-4.22" x2="-6.158" y2="-4.22"/>
			<text transform="matrix(1 0 0 1 -35.8538 0.8995)" font-family="'Helvetica'" font-size="16">120</text>
		</g>
		<g transform="translate(0,161.53846153846152)">
			<line fill="none" stroke="#000000" x1="-0.158" y1="-4.22" x2="-6.158" y2="-4.22"/>
			<text transform="matrix(1 0 0 1 -35.8538 0.8998)" font-family="'Helvetica'" font-size="16">140</text>
		</g>
		<g transform="translate(0,134.6153846153846)">
			<line fill="none" stroke="#000000" x1="-0.158" y1="-4.221" x2="-6.158" y2="-4.221"/>
			<text transform="matrix(1 0 0 1 -35.8538 0.9)" font-family="'Helvetica'" font-size="16">160</text>
		</g>
		<g transform="translate(0,107.69230769230771)">
			<line fill="none" stroke="#000000" x1="-0.158" y1="-4.22" x2="-6.158" y2="-4.22"/>
			<text transform="matrix(1 0 0 1 -35.8538 0.8992)" font-family="'Helvetica'" font-size="16">180</text>
		</g>
		<g transform="translate(0,80.76923076923077)">
			<line fill="none" stroke="#000000" x1="-0.158" y1="-4.22" x2="-6.158" y2="-4.22"/>
			<text transform="matrix(1 0 0 1 -35.8538 0.8995)" font-family="'Helvetica'" font-size="16">200</text>
		</g>
		<g transform="translate(0,53.84615384615381)">
			<line fill="none" stroke="#000000" x1="-0.158" y1="-4.22" x2="-6.158" y2="-4.22"/>
			<text transform="matrix(1 0 0 1 -35.8538 0.8997)" font-family="'Helvetica'" font-size="16">220</text>
		</g>
		<g transform="translate(0,26.923076923076906)">
			<line fill="none" stroke="#000000" x1="-0.158" y1="-4.22" x2="-6.158" y2="-4.22"/>
			<text transform="matrix(1 0 0 1 -35.8538 0.8999)" font-family="'Helvetica'" font-size="16">240</text>
		</g>
		<g transform="translate(0,0)">
			<line fill="none" stroke="#000000" x1="-0.158" y1="-4.22" x2="-6.158" y2="-4.22"/>
			<text transform="matrix(1 0 0 1 -35.8538 0.8992)" font-family="'Helvetica'" font-size="16">260</text>
		</g>
		<path fill="none" stroke="#000000" d="M-6.158-4.22h6v350h-6"/>
		<text transform="matrix(6.123234e-17 -1 1 6.123234e-17 17.2014 179.865)" font-family="'Helvetica'" font-size="16">Cost (development hours)</text>
	</g>
	<g transform="translate(363.94285714285706,40.38461538461536)">
		<circle fill="#1F77B4" cx="-0.158" cy="-4.22" r="50"/>
		<text transform="matrix(1 0 0 1 -43.2913 1.3798)" font-family="'Helvetica'" font-size="16">Android/iOS</text>
	</g>
	<g transform="translate(176.06285714285713,188.46153846153845)">
		<circle fill="#FF7F0E" cx="-0.158" cy="-4.22" r="50"/>
		<text transform="matrix(1 0 0 1 -30.3966 1.38)" font-family="'Helvetica'" font-size="16">Cordova</text>
	</g>
	<g transform="translate(88.50285714285714,161.53846153846152)">
		<circle fill="#2CA02C" cx="-0.158" cy="-4.22" r="50"/>
		<text transform="matrix(1 0 0 1 -27.7326 1.3793)" font-family="'Helvetica'" font-size="16">Rhodes</text>
	</g>
</g>
</svg>
