<?xml version="1.0"?>
<svg width="960" height="450">
	<g transform="translate(50,20)" style="font-style: normal; font-variant: normal; font-weight: normal; font-size: 14px; line-height: normal; font-family: sans-serif;">
		<g class="runtime">
			<path class="area" d="M0,206.73000000000002L73.63681154319902,185.88L89.42284004926975,188.28L122.49832834770368,226.2L144.2980819989442,243.18L157.8289635755763,254.01L180.38043286996304,263.97L202.93190216434982,270.87L226.2664085870139,276.27L248.81787788140068,281.07L296.1759633996129,288.3L326.9963047686081,291L339.74414921696285,291.9L363.04733415449584,293.1L385.5988034488826,294.3L411.1571353158543,295.8L431.4534576808024,296.1L455.5083582614816,297L478.81154319901464,296.7L502.1460496216787,297.3L523.194087629773,297.6L548.0007038535985,298.2L569.800457504839,298.2L594.6070737286644,298.8L615.6237902516276,299.1L637.4235439028682,299.1L660.7267288404013,299.1L684.0299137779342,299.4L732.1397149392926,299.4L752.4360373042408,299.7L775.7705437269049,299.7L799.825444307584,299.7L823.128629245117,300L847.1835298257962,300L868.2315678338906,300L890,300L890,300L868.2315678338906,300L847.1835298257962,300L823.128629245117,300L799.825444307584,300L775.7705437269049,300L752.4360373042408,300L732.1397149392926,300L684.0299137779342,300L660.7267288404013,300L637.4235439028682,300L615.6237902516276,300L594.6070737286644,300L569.800457504839,300L548.0007038535985,300L523.194087629773,300L502.1460496216787,300L478.81154319901464,300L455.5083582614816,300L431.4534576808024,300L411.1571353158543,300L385.5988034488826,300L363.04733415449584,300L339.74414921696285,300L326.9963047686081,300L296.1759633996129,300L248.81787788140068,300L226.2664085870139,300L202.93190216434982,300L180.38043286996304,300L157.8289635755763,300L144.2980819989442,300L122.49832834770368,300L89.42284004926975,300L73.63681154319902,300L0,300Z" style="fill: #3182bd;"/>
		</g>
		<g class="runtime">
			<path class="area" d="M0,63.50999999999999L73.63681154319902,90.99000000000001L89.42284004926975,99.98999999999998L122.49832834770368,151.2L144.2980819989442,176.76L157.8289635755763,192.99L180.38043286996304,211.41L202.93190216434982,221.60999999999999L226.2664085870139,231.20999999999998L248.81787788140068,249.24L296.1759633996129,269.4L326.9963047686081,276.6L339.74414921696285,281.4L363.04733415449584,284.1L385.5988034488826,286.8L411.1571353158543,289.2L431.4534576808024,290.1L455.5083582614816,291.6L478.81154319901464,292.5L502.1460496216787,293.1L523.194087629773,293.7L548.0007038535985,294.9L569.800457504839,295.2L594.6070737286644,296.4L615.6237902516276,297L637.4235439028682,297L660.7267288404013,297.3L684.0299137779342,297.9L732.1397149392926,298.2L752.4360373042408,298.5L775.7705437269049,298.8L799.825444307584,298.8L823.128629245117,299.4L847.1835298257962,299.4L868.2315678338906,299.4L890,299.7L890,300L868.2315678338906,300L847.1835298257962,300L823.128629245117,300L799.825444307584,299.7L775.7705437269049,299.7L752.4360373042408,299.7L732.1397149392926,299.4L684.0299137779342,299.4L660.7267288404013,299.1L637.4235439028682,299.1L615.6237902516276,299.1L594.6070737286644,298.8L569.800457504839,298.2L548.0007038535985,298.2L523.194087629773,297.6L502.1460496216787,297.3L478.81154319901464,296.7L455.5083582614816,297L431.4534576808024,296.1L411.1571353158543,295.8L385.5988034488826,294.3L363.04733415449584,293.1L339.74414921696285,291.9L326.9963047686081,291L296.1759633996129,288.3L248.81787788140068,281.07L226.2664085870139,276.27L202.93190216434982,270.87L180.38043286996304,263.97L157.8289635755763,254.01L144.2980819989442,243.18L122.49832834770368,226.2L89.42284004926975,188.28L73.63681154319902,185.88L0,206.73000000000002Z" style="fill: #6baed6;"/>
		</g>
		<g class="runtime">
			<path class="area" d="M0,61.41L73.63681154319902,90.09L89.42284004926975,99.08999999999997L122.49832834770368,150.9L144.2980819989442,176.76L157.8289635755763,192.99L180.38043286996304,211.41L202.93190216434982,221.60999999999999L226.2664085870139,231.20999999999998L248.81787788140068,249.24L296.1759633996129,269.4L326.9963047686081,276.6L339.74414921696285,281.4L363.04733415449584,284.1L385.5988034488826,286.8L411.1571353158543,289.2L431.4534576808024,290.1L455.5083582614816,291.6L478.81154319901464,292.5L502.1460496216787,293.1L523.194087629773,293.7L548.0007038535985,294.9L569.800457504839,295.2L594.6070737286644,296.4L615.6237902516276,297L637.4235439028682,297L660.7267288404013,297.3L684.0299137779342,297.9L732.1397149392926,298.2L752.4360373042408,298.5L775.7705437269049,298.8L799.825444307584,298.8L823.128629245117,299.4L847.1835298257962,299.4L868.2315678338906,299.4L890,299.7L890,299.7L868.2315678338906,299.4L847.1835298257962,299.4L823.128629245117,299.4L799.825444307584,298.8L775.7705437269049,298.8L752.4360373042408,298.5L732.1397149392926,298.2L684.0299137779342,297.9L660.7267288404013,297.3L637.4235439028682,297L615.6237902516276,297L594.6070737286644,296.4L569.800457504839,295.2L548.0007038535985,294.9L523.194087629773,293.7L502.1460496216787,293.1L478.81154319901464,292.5L455.5083582614816,291.6L431.4534576808024,290.1L411.1571353158543,289.2L385.5988034488826,286.8L363.04733415449584,284.1L339.74414921696285,281.4L326.9963047686081,276.6L296.1759633996129,269.4L248.81787788140068,249.24L226.2664085870139,231.20999999999998L202.93190216434982,221.60999999999999L180.38043286996304,211.41L157.8289635755763,192.99L144.2980819989442,176.76L122.49832834770368,151.2L89.42284004926975,99.98999999999998L73.63681154319902,90.99000000000001L0,63.50999999999999Z" style="fill: #9ecae1;"/>
		</g>
		<g class="runtime">
			<path class="area" d="M0,0.029999999999972715L73.63681154319902,81.99000000000001L89.42284004926975,97.28999999999996L122.49832834770368,150L144.2980819989442,176.76L157.8289635755763,192.99L180.38043286996304,211.41L202.93190216434982,221.60999999999999L226.2664085870139,231.20999999999998L248.81787788140068,249.24L296.1759633996129,269.4L326.9963047686081,276.6L339.74414921696285,281.4L363.04733415449584,284.1L385.5988034488826,286.8L411.1571353158543,289.2L431.4534576808024,290.1L455.5083582614816,291.6L478.81154319901464,292.5L502.1460496216787,293.1L523.194087629773,293.7L548.0007038535985,294.9L569.800457504839,295.2L594.6070737286644,296.4L615.6237902516276,297L637.4235439028682,297L660.7267288404013,297.3L684.0299137779342,297.9L732.1397149392926,298.2L752.4360373042408,298.5L775.7705437269049,298.8L799.825444307584,298.8L823.128629245117,299.4L847.1835298257962,299.4L868.2315678338906,299.4L890,299.7L890,299.7L868.2315678338906,299.4L847.1835298257962,299.4L823.128629245117,299.4L799.825444307584,298.8L775.7705437269049,298.8L752.4360373042408,298.5L732.1397149392926,298.2L684.0299137779342,297.9L660.7267288404013,297.3L637.4235439028682,297L615.6237902516276,297L594.6070737286644,296.4L569.800457504839,295.2L548.0007038535985,294.9L523.194087629773,293.7L502.1460496216787,293.1L478.81154319901464,292.5L455.5083582614816,291.6L431.4534576808024,290.1L411.1571353158543,289.2L385.5988034488826,286.8L363.04733415449584,284.1L339.74414921696285,281.4L326.9963047686081,276.6L296.1759633996129,269.4L248.81787788140068,249.24L226.2664085870139,231.20999999999998L202.93190216434982,221.60999999999999L180.38043286996304,211.41L157.8289635755763,192.99L144.2980819989442,176.76L122.49832834770368,150.9L89.42284004926975,99.08999999999997L73.63681154319902,90.09L0,61.41Z" style="fill: #c6dbef;"/>
		</g>
		<g class="runtime">
			<path class="area" d="M0,0.029999999999972715L73.63681154319902,0L89.42284004926975,0L122.49832834770368,0L144.2980819989442,9.92999999999995L157.8289635755763,13.53000000000003L180.38043286996304,86.19L202.93190216434982,100.29000000000002L226.2664085870139,108.69L248.81787788140068,130.32L296.1759633996129,175.2L326.9963047686081,189.60000000000002L339.74414921696285,199.8L363.04733415449584,210.60000000000002L385.5988034488826,223.2L411.1571353158543,236.7L431.4534576808024,244.5L455.5083582614816,251.97L478.81154319901464,257.4L502.1460496216787,261L523.194087629773,264.9L548.0007038535985,269.4L569.800457504839,272.4L594.6070737286644,276.6L615.6237902516276,279L637.4235439028682,280.5L660.7267288404013,281.7L684.0299137779342,283.8L732.1397149392926,287.1L752.4360373042408,288.3L775.7705437269049,289.5L799.825444307584,290.7L823.128629245117,292.2L847.1835298257962,292.8L868.2315678338906,293.7L890,294.6L890,299.7L868.2315678338906,299.4L847.1835298257962,299.4L823.128629245117,299.4L799.825444307584,298.8L775.7705437269049,298.8L752.4360373042408,298.5L732.1397149392926,298.2L684.0299137779342,297.9L660.7267288404013,297.3L637.4235439028682,297L615.6237902516276,297L594.6070737286644,296.4L569.800457504839,295.2L548.0007038535985,294.9L523.194087629773,293.7L502.1460496216787,293.1L478.81154319901464,292.5L455.5083582614816,291.6L431.4534576808024,290.1L411.1571353158543,289.2L385.5988034488826,286.8L363.04733415449584,284.1L339.74414921696285,281.4L326.9963047686081,276.6L296.1759633996129,269.4L248.81787788140068,249.24L226.2664085870139,231.20999999999998L202.93190216434982,221.60999999999999L180.38043286996304,211.41L157.8289635755763,192.99L144.2980819989442,176.76L122.49832834770368,150L89.42284004926975,97.28999999999996L73.63681154319902,81.99000000000001L0,0.029999999999972715Z" style="fill: #e6550d;"/>
		</g>
		<g class="runtime">
			<path class="area" d="M0,0.029999999999972715L73.63681154319902,0L89.42284004926975,0L122.49832834770368,0L144.2980819989442,0L157.8289635755763,0L180.38043286996304,0L202.93190216434982,0L226.2664085870139,-0.029999999999972715L248.81787788140068,0L296.1759633996129,2.3999999999999773L326.9963047686081,5.699999999999989L339.74414921696285,8.099999999999966L363.04733415449584,12.899999999999977L385.5988034488826,29.400000000000034L411.1571353158543,58.50000000000003L431.4534576808024,76.80000000000001L455.5083582614816,98.22L478.81154319901464,121.5L502.1460496216787,138.89999999999998L523.194087629773,159L548.0007038535985,178.2L569.800457504839,189L594.6070737286644,200.7L615.6237902516276,209.7L637.4235439028682,217.8L660.7267288404013,224.4L684.0299137779342,231.89999999999998L732.1397149392926,245.1L752.4360373042408,249.6L775.7705437269049,253.5L799.825444307584,259.8L823.128629245117,265.2L847.1835298257962,268.5L868.2315678338906,270.96L890,282.6L890,294.6L868.2315678338906,293.7L847.1835298257962,292.8L823.128629245117,292.2L799.825444307584,290.7L775.7705437269049,289.5L752.4360373042408,288.3L732.1397149392926,287.1L684.0299137779342,283.8L660.7267288404013,281.7L637.4235439028682,280.5L615.6237902516276,279L594.6070737286644,276.6L569.800457504839,272.4L548.0007038535985,269.4L523.194087629773,264.9L502.1460496216787,261L478.81154319901464,257.4L455.5083582614816,251.97L431.4534576808024,244.5L411.1571353158543,236.7L385.5988034488826,223.2L363.04733415449584,210.60000000000002L339.74414921696285,199.8L326.9963047686081,189.60000000000002L296.1759633996129,175.2L248.81787788140068,130.32L226.2664085870139,108.69L202.93190216434982,100.29000000000002L180.38043286996304,86.19L157.8289635755763,13.53000000000003L144.2980819989442,9.92999999999995L122.49832834770368,0L89.42284004926975,0L73.63681154319902,0L0,0.029999999999972715Z" style="fill: #fd8d3c;"/>
		</g>
		<g class="runtime">
			<path class="area" d="M0,0.029999999999972715L73.63681154319902,0L89.42284004926975,0L122.49832834770368,0L144.2980819989442,0L157.8289635755763,0L180.38043286996304,0L202.93190216434982,0L226.2664085870139,-0.029999999999972715L248.81787788140068,0L296.1759633996129,0L326.9963047686081,3.6000000000000227L339.74414921696285,5.699999999999989L363.04733415449584,9.899999999999977L385.5988034488826,26.100000000000023L411.1571353158543,55.50000000000003L431.4534576808024,75L455.5083582614816,96.42000000000002L478.81154319901464,120L502.1460496216787,137.39999999999998L523.194087629773,157.5L548.0007038535985,176.39999999999998L569.800457504839,187.5L594.6070737286644,199.2L615.6237902516276,208.2L637.4235439028682,216.3L660.7267288404013,223.2L684.0299137779342,230.7L732.1397149392926,244.2L752.4360373042408,248.7L775.7705437269049,252.6L799.825444307584,259.2L823.128629245117,264.6L847.1835298257962,267.9L868.2315678338906,270.36L890,282.3L890,282.6L868.2315678338906,270.96L847.1835298257962,268.5L823.128629245117,265.2L799.825444307584,259.8L775.7705437269049,253.5L752.4360373042408,249.6L732.1397149392926,245.1L684.0299137779342,231.89999999999998L660.7267288404013,224.4L637.4235439028682,217.8L615.6237902516276,209.7L594.6070737286644,200.7L569.800457504839,189L548.0007038535985,178.2L523.194087629773,159L502.1460496216787,138.89999999999998L478.81154319901464,121.5L455.5083582614816,98.22L431.4534576808024,76.80000000000001L411.1571353158543,58.50000000000003L385.5988034488826,29.400000000000034L363.04733415449584,12.899999999999977L339.74414921696285,8.099999999999966L326.9963047686081,5.699999999999989L296.1759633996129,2.3999999999999773L248.81787788140068,0L226.2664085870139,-0.029999999999972715L202.93190216434982,0L180.38043286996304,0L157.8289635755763,0L144.2980819989442,0L122.49832834770368,0L89.42284004926975,0L73.63681154319902,0L0,0.029999999999972715Z" style="fill: #fdae6b;"/>
		</g>
		<g class="runtime">
			<path class="area" d="M0,0.029999999999972715L73.63681154319902,0L89.42284004926975,0L122.49832834770368,0L144.2980819989442,0L157.8289635755763,0L180.38043286996304,0L202.93190216434982,0L226.2664085870139,-0.029999999999972715L248.81787788140068,0L296.1759633996129,0L326.9963047686081,0.6000000000000227L339.74414921696285,0.5999999999999659L363.04733415449584,0.8999999999999773L385.5988034488826,1.8000000000000114L411.1571353158543,2.6999999999999886L431.4534576808024,3.8999999999999773L455.5083582614816,4.230000000000018L478.81154319901464,5.399999999999977L502.1460496216787,5.699999999999989L523.194087629773,7.199999999999989L548.0007038535985,11.699999999999989L569.800457504839,13.199999999999989L594.6070737286644,14.699999999999989L615.6237902516276,18.600000000000023L637.4235439028682,24.599999999999966L660.7267288404013,29.400000000000034L684.0299137779342,39.89999999999998L732.1397149392926,72.59999999999997L752.4360373042408,82.19999999999996L775.7705437269049,90.89999999999998L799.825444307584,107.4L823.128629245117,122.4L847.1835298257962,131.70000000000002L868.2315678338906,138.63L890,163.32000000000002L890,282.3L868.2315678338906,270.36L847.1835298257962,267.9L823.128629245117,264.6L799.825444307584,259.2L775.7705437269049,252.6L752.4360373042408,248.7L732.1397149392926,244.2L684.0299137779342,230.7L660.7267288404013,223.2L637.4235439028682,216.3L615.6237902516276,208.2L594.6070737286644,199.2L569.800457504839,187.5L548.0007038535985,176.39999999999998L523.194087629773,157.5L502.1460496216787,137.39999999999998L478.81154319901464,120L455.5083582614816,96.42000000000002L431.4534576808024,75L411.1571353158543,55.50000000000003L385.5988034488826,26.100000000000023L363.04733415449584,9.899999999999977L339.74414921696285,5.699999999999989L326.9963047686081,3.6000000000000227L296.1759633996129,0L248.81787788140068,0L226.2664085870139,-0.029999999999972715L202.93190216434982,0L180.38043286996304,0L157.8289635755763,0L144.2980819989442,0L122.49832834770368,0L89.42284004926975,0L73.63681154319902,0L0,0.029999999999972715Z" style="fill: #fdd0a2;"/>
		</g>
		<g class="runtime">
			<path class="area" d="M0,0.029999999999972715L73.63681154319902,0L89.42284004926975,0L122.49832834770368,0L144.2980819989442,0L157.8289635755763,0L180.38043286996304,0L202.93190216434982,0L226.2664085870139,-0.029999999999972715L248.81787788140068,0L296.1759633996129,0L326.9963047686081,0L339.74414921696285,0L363.04733415449584,0L385.5988034488826,0.9000000000000341L411.1571353158543,1.5L431.4534576808024,2.6999999999999886L455.5083582614816,3.6299999999999955L478.81154319901464,4.800000000000011L502.1460496216787,5.399999999999977L523.194087629773,6.900000000000034L548.0007038535985,11.400000000000034L569.800457504839,12.900000000000034L594.6070737286644,14.399999999999977L615.6237902516276,18.30000000000001L637.4235439028682,24.30000000000001L660.7267288404013,29.400000000000034L684.0299137779342,39.89999999999998L732.1397149392926,72.59999999999997L752.4360373042408,82.19999999999996L775.7705437269049,90.89999999999998L799.825444307584,107.4L823.128629245117,122.4L847.1835298257962,131.70000000000002L868.2315678338906,138.63L890,163.32000000000002L890,163.32000000000002L868.2315678338906,138.63L847.1835298257962,131.70000000000002L823.128629245117,122.4L799.825444307584,107.4L775.7705437269049,90.89999999999998L752.4360373042408,82.19999999999996L732.1397149392926,72.59999999999997L684.0299137779342,39.89999999999998L660.7267288404013,29.400000000000034L637.4235439028682,24.599999999999966L615.6237902516276,18.600000000000023L594.6070737286644,14.699999999999989L569.800457504839,13.199999999999989L548.0007038535985,11.699999999999989L523.194087629773,7.199999999999989L502.1460496216787,5.699999999999989L478.81154319901464,5.399999999999977L455.5083582614816,4.230000000000018L431.4534576808024,3.8999999999999773L411.1571353158543,2.6999999999999886L385.5988034488826,1.8000000000000114L363.04733415449584,0.8999999999999773L339.74414921696285,0.5999999999999659L326.9963047686081,0.6000000000000227L296.1759633996129,0L248.81787788140068,0L226.2664085870139,-0.029999999999972715L202.93190216434982,0L180.38043286996304,0L157.8289635755763,0L144.2980819989442,0L122.49832834770368,0L89.42284004926975,0L73.63681154319902,0L0,0.029999999999972715Z" style="fill: #31a354;"/>
		</g>
		<g class="runtime">
			<path class="area" d="M0,0.029999999999972715L73.63681154319902,0L89.42284004926975,0L122.49832834770368,0L144.2980819989442,0L157.8289635755763,0L180.38043286996304,0L202.93190216434982,0L226.2664085870139,-0.029999999999972715L248.81787788140068,0L296.1759633996129,0L326.9963047686081,0L339.74414921696285,0L363.04733415449584,0L385.5988034488826,5.684341886080802e-14L411.1571353158543,0L431.4534576808024,0.6000000000000227L455.5083582614816,1.5299999999999727L478.81154319901464,2.1000000000000227L502.1460496216787,2.6999999999999886L523.194087629773,3.6000000000000227L548.0007038535985,6.900000000000034L569.800457504839,8.699999999999989L594.6070737286644,11.099999999999966L615.6237902516276,15.300000000000011L637.4235439028682,21.30000000000001L660.7267288404013,27.30000000000001L684.0299137779342,38.39999999999998L732.1397149392926,71.09999999999997L752.4360373042408,80.99999999999997L775.7705437269049,89.69999999999999L799.825444307584,106.19999999999999L823.128629245117,121.20000000000002L847.1835298257962,130.8L868.2315678338906,137.73L890,163.32000000000002L890,163.32000000000002L868.2315678338906,138.63L847.1835298257962,131.70000000000002L823.128629245117,122.4L799.825444307584,107.4L775.7705437269049,90.89999999999998L752.4360373042408,82.19999999999996L732.1397149392926,72.59999999999997L684.0299137779342,39.89999999999998L660.7267288404013,29.400000000000034L637.4235439028682,24.30000000000001L615.6237902516276,18.30000000000001L594.6070737286644,14.399999999999977L569.800457504839,12.900000000000034L548.0007038535985,11.400000000000034L523.194087629773,6.900000000000034L502.1460496216787,5.399999999999977L478.81154319901464,4.800000000000011L455.5083582614816,3.6299999999999955L431.4534576808024,2.6999999999999886L411.1571353158543,1.5L385.5988034488826,0.9000000000000341L363.04733415449584,0L339.74414921696285,0L326.9963047686081,0L296.1759633996129,0L248.81787788140068,0L226.2664085870139,-0.029999999999972715L202.93190216434982,0L180.38043286996304,0L157.8289635755763,0L144.2980819989442,0L122.49832834770368,0L89.42284004926975,0L73.63681154319902,0L0,0.029999999999972715Z" style="fill: #74c476;"/>
		</g>
		<g class="runtime">
			<path class="area" d="M0,0.029999999999972715L73.63681154319902,0L89.42284004926975,0L122.49832834770368,0L144.2980819989442,0L157.8289635755763,0L180.38043286996304,0L202.93190216434982,0L226.2664085870139,-0.029999999999972715L248.81787788140068,0L296.1759633996129,0L326.9963047686081,0L339.74414921696285,0L363.04733415449584,0L385.5988034488826,5.684341886080802e-14L411.1571353158543,0L431.4534576808024,0L455.5083582614816,0.029999999999972715L478.81154319901464,0L502.1460496216787,0L523.194087629773,0L548.0007038535985,1.8000000000000114L569.800457504839,3L594.6070737286644,4.7999999999999545L615.6237902516276,8.699999999999989L637.4235439028682,14.699999999999989L660.7267288404013,21.30000000000001L684.0299137779342,32.69999999999999L732.1397149392926,66.29999999999995L752.4360373042408,76.49999999999997L775.7705437269049,85.49999999999997L799.825444307584,102.6L823.128629245117,117.9L847.1835298257962,127.80000000000001L868.2315678338906,135.02999999999997L890,162.72000000000003L890,163.32000000000002L868.2315678338906,137.73L847.1835298257962,130.8L823.128629245117,121.20000000000002L799.825444307584,106.19999999999999L775.7705437269049,89.69999999999999L752.4360373042408,80.99999999999997L732.1397149392926,71.09999999999997L684.0299137779342,38.39999999999998L660.7267288404013,27.30000000000001L637.4235439028682,21.30000000000001L615.6237902516276,15.300000000000011L594.6070737286644,11.099999999999966L569.800457504839,8.699999999999989L548.0007038535985,6.900000000000034L523.194087629773,3.6000000000000227L502.1460496216787,2.6999999999999886L478.81154319901464,2.1000000000000227L455.5083582614816,1.5299999999999727L431.4534576808024,0.6000000000000227L411.1571353158543,0L385.5988034488826,5.684341886080802e-14L363.04733415449584,0L339.74414921696285,0L326.9963047686081,0L296.1759633996129,0L248.81787788140068,0L226.2664085870139,-0.029999999999972715L202.93190216434982,0L180.38043286996304,0L157.8289635755763,0L144.2980819989442,0L122.49832834770368,0L89.42284004926975,0L73.63681154319902,0L0,0.029999999999972715Z" style="fill: #a1d99b;"/>
		</g>
		<g class="runtime">
			<path class="area" d="M0,0.029999999999972715L73.63681154319902,0L89.42284004926975,0L122.49832834770368,0L144.2980819989442,0L157.8289635755763,0L180.38043286996304,0L202.93190216434982,0L226.2664085870139,-0.029999999999972715L248.81787788140068,0L296.1759633996129,0L326.9963047686081,0L339.74414921696285,0L363.04733415449584,0L385.5988034488826,5.684341886080802e-14L411.1571353158543,0L431.4534576808024,0L455.5083582614816,0.029999999999972715L478.81154319901464,0L502.1460496216787,0L523.194087629773,0L548.0007038535985,0.8999999999999773L569.800457504839,2.1000000000000227L594.6070737286644,3.599999999999966L615.6237902516276,7.199999999999989L637.4235439028682,13.199999999999989L660.7267288404013,20.100000000000023L684.0299137779342,32.10000000000002L732.1397149392926,65.99999999999997L752.4360373042408,76.49999999999997L775.7705437269049,85.49999999999997L799.825444307584,102.6L823.128629245117,117.9L847.1835298257962,127.80000000000001L868.2315678338906,135.02999999999997L890,162.72000000000003L890,162.72000000000003L868.2315678338906,135.02999999999997L847.1835298257962,127.80000000000001L823.128629245117,117.9L799.825444307584,102.6L775.7705437269049,85.49999999999997L752.4360373042408,76.49999999999997L732.1397149392926,66.29999999999995L684.0299137779342,32.69999999999999L660.7267288404013,21.30000000000001L637.4235439028682,14.699999999999989L615.6237902516276,8.699999999999989L594.6070737286644,4.7999999999999545L569.800457504839,3L548.0007038535985,1.8000000000000114L523.194087629773,0L502.1460496216787,0L478.81154319901464,0L455.5083582614816,0.029999999999972715L431.4534576808024,0L411.1571353158543,0L385.5988034488826,5.684341886080802e-14L363.04733415449584,0L339.74414921696285,0L326.9963047686081,0L296.1759633996129,0L248.81787788140068,0L226.2664085870139,-0.029999999999972715L202.93190216434982,0L180.38043286996304,0L157.8289635755763,0L144.2980819989442,0L122.49832834770368,0L89.42284004926975,0L73.63681154319902,0L0,0.029999999999972715Z" style="fill: #c7e9c0;"/>
		</g>
		<g class="runtime">
			<path class="area" d="M0,0.029999999999972715L73.63681154319902,0L89.42284004926975,0L122.49832834770368,0L144.2980819989442,0L157.8289635755763,0L180.38043286996304,0L202.93190216434982,0L226.2664085870139,-0.029999999999972715L248.81787788140068,0L296.1759633996129,0L326.9963047686081,0L339.74414921696285,0L363.04733415449584,0L385.5988034488826,5.684341886080802e-14L411.1571353158543,0L431.4534576808024,0L455.5083582614816,0.029999999999972715L478.81154319901464,0L502.1460496216787,0L523.194087629773,0L548.0007038535985,0L569.800457504839,0L594.6070737286644,0L615.6237902516276,0L637.4235439028682,0L660.7267288404013,0L684.0299137779342,0L732.1397149392926,3.599999999999909L752.4360373042408,5.399999999999977L775.7705437269049,8.099999999999966L799.825444307584,20.099999999999966L823.128629245117,30.599999999999966L847.1835298257962,40.80000000000001L868.2315678338906,49.41L890,74.91L890,162.72000000000003L868.2315678338906,135.02999999999997L847.1835298257962,127.80000000000001L823.128629245117,117.9L799.825444307584,102.6L775.7705437269049,85.49999999999997L752.4360373042408,76.49999999999997L732.1397149392926,65.99999999999997L684.0299137779342,32.10000000000002L660.7267288404013,20.100000000000023L637.4235439028682,13.199999999999989L615.6237902516276,7.199999999999989L594.6070737286644,3.599999999999966L569.800457504839,2.1000000000000227L548.0007038535985,0.8999999999999773L523.194087629773,0L502.1460496216787,0L478.81154319901464,0L455.5083582614816,0.029999999999972715L431.4534576808024,0L411.1571353158543,0L385.5988034488826,5.684341886080802e-14L363.04733415449584,0L339.74414921696285,0L326.9963047686081,0L296.1759633996129,0L248.81787788140068,0L226.2664085870139,-0.029999999999972715L202.93190216434982,0L180.38043286996304,0L157.8289635755763,0L144.2980819989442,0L122.49832834770368,0L89.42284004926975,0L73.63681154319902,0L0,0.029999999999972715Z" style="fill: #756bb1;"/>
		</g>
		<g class="runtime">
			<path class="area" d="M0,0.029999999999972715L73.63681154319902,0L89.42284004926975,0L122.49832834770368,0L144.2980819989442,0L157.8289635755763,0L180.38043286996304,0L202.93190216434982,0L226.2664085870139,-0.029999999999972715L248.81787788140068,0L296.1759633996129,0L326.9963047686081,0L339.74414921696285,0L363.04733415449584,0L385.5988034488826,5.684341886080802e-14L411.1571353158543,0L431.4534576808024,0L455.5083582614816,0.029999999999972715L478.81154319901464,0L502.1460496216787,0L523.194087629773,0L548.0007038535985,0L569.800457504839,0L594.6070737286644,0L615.6237902516276,0L637.4235439028682,0L660.7267288404013,0L684.0299137779342,0L732.1397149392926,-5.684341886080802e-14L752.4360373042408,0L775.7705437269049,0L799.825444307584,2.3999999999999773L823.128629245117,3.6000000000000227L847.1835298257962,4.2000000000000455L868.2315678338906,4.800000000000011L890,5.970000000000027L890,74.91L868.2315678338906,49.41L847.1835298257962,40.80000000000001L823.128629245117,30.599999999999966L799.825444307584,20.099999999999966L775.7705437269049,8.099999999999966L752.4360373042408,5.399999999999977L732.1397149392926,3.599999999999909L684.0299137779342,0L660.7267288404013,0L637.4235439028682,0L615.6237902516276,0L594.6070737286644,0L569.800457504839,0L548.0007038535985,0L523.194087629773,0L502.1460496216787,0L478.81154319901464,0L455.5083582614816,0.029999999999972715L431.4534576808024,0L411.1571353158543,0L385.5988034488826,5.684341886080802e-14L363.04733415449584,0L339.74414921696285,0L326.9963047686081,0L296.1759633996129,0L248.81787788140068,0L226.2664085870139,-0.029999999999972715L202.93190216434982,0L180.38043286996304,0L157.8289635755763,0L144.2980819989442,0L122.49832834770368,0L89.42284004926975,0L73.63681154319902,0L0,0.029999999999972715Z" style="fill: #9e9ac8;"/>
		</g>
		<g class="runtime">
			<path class="area" d="M0,0.029999999999972715L73.63681154319902,0L89.42284004926975,0L122.49832834770368,0L144.2980819989442,0L157.8289635755763,0L180.38043286996304,0L202.93190216434982,0L226.2664085870139,-0.029999999999972715L248.81787788140068,0L296.1759633996129,0L326.9963047686081,0L339.74414921696285,0L363.04733415449584,0L385.5988034488826,5.684341886080802e-14L411.1571353158543,0L431.4534576808024,0L455.5083582614816,0.029999999999972715L478.81154319901464,0L502.1460496216787,0L523.194087629773,0L548.0007038535985,0L569.800457504839,0L594.6070737286644,0L615.6237902516276,0L637.4235439028682,0L660.7267288404013,0L684.0299137779342,0L732.1397149392926,-5.684341886080802e-14L752.4360373042408,0L775.7705437269049,0L799.825444307584,0L823.128629245117,0L847.1835298257962,5.684341886080802e-14L868.2315678338906,0L890,-0.029999999999972715L890,5.970000000000027L868.2315678338906,4.800000000000011L847.1835298257962,4.2000000000000455L823.128629245117,3.6000000000000227L799.825444307584,2.3999999999999773L775.7705437269049,0L752.4360373042408,0L732.1397149392926,-5.684341886080802e-14L684.0299137779342,0L660.7267288404013,0L637.4235439028682,0L615.6237902516276,0L594.6070737286644,0L569.800457504839,0L548.0007038535985,0L523.194087629773,0L502.1460496216787,0L478.81154319901464,0L455.5083582614816,0.029999999999972715L431.4534576808024,0L411.1571353158543,0L385.5988034488826,5.684341886080802e-14L363.04733415449584,0L339.74414921696285,0L326.9963047686081,0L296.1759633996129,0L248.81787788140068,0L226.2664085870139,-0.029999999999972715L202.93190216434982,0L180.38043286996304,0L157.8289635755763,0L144.2980819989442,0L122.49832834770368,0L89.42284004926975,0L73.63681154319902,0L0,0.029999999999972715Z" style="fill: #bcbddc;"/>
		</g>
		<g class="axis x" transform="translate(0,300)">
			<g class="tick major" style="opacity: 1;" transform="translate(65.36793946859054,0)">
				<line y2="6" x2="0" style="fill: none; stroke: #000000; shape-rendering: crispedges;"/>
				<text y="9" x="0" dy=".71em" style="text-anchor: middle;">April</text>
			</g>
			<g class="tick major" style="opacity: 1;" transform="translate(133.77406299489706,0)">
				<line y2="6" x2="0" style="fill: none; stroke: #000000; shape-rendering: crispedges;"/>
				<text y="9" x="0" dy=".71em" style="text-anchor: middle;">July</text>
			</g>
			<g class="tick major" style="opacity: 1;" transform="translate(202.93190216434982,0)">
				<line y2="6" x2="0" style="fill: none; stroke: #000000; shape-rendering: crispedges;"/>
				<text y="9" x="0" dy=".71em" style="text-anchor: middle;">October</text>
			</g>
			<g class="tick major" style="opacity: 1;" transform="translate(272.12106281893364,0)">
				<line y2="6" x2="0" style="fill: none; stroke: #000000; shape-rendering: crispedges;"/>
				<text y="9" x="0" dy=".71em" style="text-anchor: middle;">2011</text>
			</g>
			<g class="tick major" style="opacity: 1;" transform="translate(339.74414921696285,0)">
				<line y2="6" x2="0" style="fill: none; stroke: #000000; shape-rendering: crispedges;"/>
				<text y="9" x="0" dy=".71em" style="text-anchor: middle;">April</text>
			</g>
			<g class="tick major" style="opacity: 1;" transform="translate(408.1502727432694,0)">
				<line y2="6" x2="0" style="fill: none; stroke: #000000; shape-rendering: crispedges;"/>
				<text y="9" x="0" dy=".71em" style="text-anchor: middle;">July</text>
			</g>
			<g class="tick major" style="opacity: 1;" transform="translate(477.30811191272215,0)">
				<line y2="6" x2="0" style="fill: none; stroke: #000000; shape-rendering: crispedges;"/>
				<text y="9" x="0" dy=".71em" style="text-anchor: middle;">October</text>
			</g>
			<g class="tick major" style="opacity: 1;" transform="translate(546.497272567306,0)">
				<line y2="6" x2="0" style="fill: none; stroke: #000000; shape-rendering: crispedges;"/>
				<text y="9" x="0" dy=".71em" style="text-anchor: middle;">2012</text>
			</g>
			<g class="tick major" style="opacity: 1;" transform="translate(614.8720746084815,0)">
				<line y2="6" x2="0" style="fill: none; stroke: #000000; shape-rendering: crispedges;"/>
				<text y="9" x="0" dy=".71em" style="text-anchor: middle;">April</text>
			</g>
			<g class="tick major" style="opacity: 1;" transform="translate(683.278198134788,0)">
				<line y2="6" x2="0" style="fill: none; stroke: #000000; shape-rendering: crispedges;"/>
				<text y="9" x="0" dy=".71em" style="text-anchor: middle;">July</text>
			</g>
			<g class="tick major" style="opacity: 1;" transform="translate(752.4360373042408,0)">
				<line y2="6" x2="0" style="fill: none; stroke: #000000; shape-rendering: crispedges;"/>
				<text y="9" x="0" dy=".71em" style="text-anchor: middle;">October</text>
			</g>
			<g class="tick major" style="opacity: 1;" transform="translate(821.6251979588246,0)">
				<line y2="6" x2="0" style="fill: none; stroke: #000000; shape-rendering: crispedges;"/>
				<text y="9" x="0" dy=".71em" style="text-anchor: middle;">2013</text>
			</g>
			<g class="tick major" style="opacity: 1;" transform="translate(889.2482843568538,0)">
				<line y2="6" x2="0" style="fill: none; stroke: #000000; shape-rendering: crispedges;"/>
				<text y="9" x="0" dy=".71em" style="text-anchor: middle;">April</text>
			</g>
			<path class="domain" d="M0,6V0H890V6" style="fill: none; stroke: #000000; shape-rendering: crispedges;"/>
		</g>
		<g class="axis release">
			<g class="tick major" style="opacity: 1;" transform="translate(6.013725145169805,0)">
				<line y2="300" x2="0" style="fill: none; stroke: #888888; shape-rendering: crispedges; stroke-dasharray: 5px, 2px;"/>
				<text y="150" x="0" dy="1em" style="text-anchor: middle; fill: #888888;" transform="rotate(-90 0,150)">Eclair (2.1)</text>
			</g>
			<g class="tick major" style="opacity: 1;" transform="translate(102.20200598275558,0)">
				<line y2="300" x2="0" style="fill: none; stroke: #888888; shape-rendering: crispedges; stroke-dasharray: 5px, 2px;"/>
				<text y="150" x="0" dy="1em" style="text-anchor: middle; fill: #888888;" transform="rotate(-90 0,150)">Froyo (2.2)</text>
			</g>
			<g class="tick major" style="opacity: 1;" transform="translate(252.5764560971318,0)">
				<line y2="300" x2="0" style="fill: none; stroke: #888888; shape-rendering: crispedges; stroke-dasharray: 5px, 2px;"/>
				<text y="150" x="0" dy="1em" style="text-anchor: middle; fill: #888888;" transform="rotate(-90 0,150)">Gingerbread (2.3 - 2.3.2)</text>
			</g>
			<g class="tick major" style="opacity: 1;" transform="translate(301.43797290163644,0)">
				<line y2="300" x2="0" style="fill: none; stroke: #888888; shape-rendering: crispedges; stroke-dasharray: 5px, 2px;"/>
				<text y="150" x="0" dy="-.4em" style="text-anchor: middle; fill: #888888;" transform="rotate(-90 0,150)">Gingerbread (2.3.3 - 2.3.7)</text>
			</g>
			<g class="tick major" style="opacity: 1;" transform="translate(311.21027626253743,0)">
				<line y2="300" x2="0" style="fill: none; stroke: #888888; shape-rendering: crispedges; stroke-dasharray: 5px, 2px;"/>
				<text y="150" x="0" dy="1em" style="text-anchor: middle; fill: #888888;" transform="rotate(-90 0,150)">Honeycomb (3.0)</text>
			</g>
			<g class="tick major" style="opacity: 1;" transform="translate(369.06105929966566,0)">
				<line y2="300" x2="0" style="fill: none; stroke: #888888; shape-rendering: crispedges; stroke-dasharray: 5px, 2px;"/>
				<text y="150" x="0" dy="1em" style="text-anchor: middle; fill: #888888;" transform="rotate(-90 0,150)">Honeycomb (3.1)</text>
			</g>
			<g class="tick major" style="opacity: 1;" transform="translate(418.6742917473166,0)">
				<line y2="300" x2="0" style="fill: none; stroke: #888888; shape-rendering: crispedges; stroke-dasharray: 5px, 2px;"/>
				<text y="150" x="0" dy="1em" style="text-anchor: middle; fill: #888888;" transform="rotate(-90 0,150)">Honeycomb (3.2)</text>
			</g>
			<g class="tick major" style="opacity: 1;" transform="translate(490.83899348935427,0)">
				<line y2="300" x2="0" style="fill: none; stroke: #888888; shape-rendering: crispedges; stroke-dasharray: 5px, 2px;"/>
				<text y="150" x="0" dy="1em" style="text-anchor: middle; fill: #888888;" transform="rotate(-90 0,150)">Ice Cream Sandwich (4.0 - 4.0.3)</text>
			</g>
			<g class="tick major" style="opacity: 1;" transform="translate(534.4698222769664,0)">
				<line y2="300" x2="0" style="fill: none; stroke: #888888; shape-rendering: crispedges; stroke-dasharray: 5px, 2px;"/>
				<text y="150" x="0" dy="1em" style="text-anchor: middle; fill: #888888;" transform="rotate(-90 0,150)">Ice Cream Sandwich (4.0.3 - 4.0.4)</text>
			</g>
			<g class="tick major" style="opacity: 1;" transform="translate(689.2919232799578,0)">
				<line y2="300" x2="0" style="fill: none; stroke: #888888; shape-rendering: crispedges; stroke-dasharray: 5px, 2px;"/>
				<text y="150" x="0" dy="1em" style="text-anchor: middle; fill: #888888;" transform="rotate(-90 0,150)">Jellybean (4.1)</text>
			</g>
			<g class="tick major" style="opacity: 1;" transform="translate(784.7911314446595,0)">
				<line y2="300" x2="0" style="fill: none; stroke: #888888; shape-rendering: crispedges; stroke-dasharray: 5px, 2px;"/>
				<text y="150" x="0" dy="1em" style="text-anchor: middle; fill: #888888;" transform="rotate(-90 0,150)">Jellybean (4.2)</text>
			</g>
			<path class="domain" d="M0,0V0H890V0" style="fill: none; stroke: none; shape-rendering: crispedges;"/>
		</g>
		<g class="axis y">
			<g class="tick major" style="opacity: 1;" transform="translate(0,300)">
				<line x2="-6" y2="0" style="fill: none; stroke: #000000; shape-rendering: crispedges;"/>
				<text x="-9" y="0" dy=".32em" style="text-anchor: end;">0%</text>
			</g>
			<g class="tick major" style="opacity: 1;" transform="translate(0,270)">
				<line x2="-6" y2="0" style="fill: none; stroke: #000000; shape-rendering: crispedges;"/>
				<text x="-9" y="0" dy=".32em" style="text-anchor: end;">10%</text>
			</g>
			<g class="tick major" style="opacity: 1;" transform="translate(0,240)">
				<line x2="-6" y2="0" style="fill: none; stroke: #000000; shape-rendering: crispedges;"/>
				<text x="-9" y="0" dy=".32em" style="text-anchor: end;">20%</text>
			</g>
			<g class="tick major" style="opacity: 1;" transform="translate(0,210)">
				<line x2="-6" y2="0" style="fill: none; stroke: #000000; shape-rendering: crispedges;"/>
				<text x="-9" y="0" dy=".32em" style="text-anchor: end;">30%</text>
			</g>
			<g class="tick major" style="opacity: 1;" transform="translate(0,180)">
				<line x2="-6" y2="0" style="fill: none; stroke: #000000; shape-rendering: crispedges;"/>
				<text x="-9" y="0" dy=".32em" style="text-anchor: end;">40%</text>
			</g>
			<g class="tick major" style="opacity: 1;" transform="translate(0,150)">
				<line x2="-6" y2="0" style="fill: none; stroke: #000000; shape-rendering: crispedges;"/>
				<text x="-9" y="0" dy=".32em" style="text-anchor: end;">50%</text>
			</g>
			<g class="tick major" style="opacity: 1;" transform="translate(0,120)">
				<line x2="-6" y2="0" style="fill: none; stroke: #000000; shape-rendering: crispedges;"/>
				<text x="-9" y="0" dy=".32em" style="text-anchor: end;">60%</text>
			</g>
			<g class="tick major" style="opacity: 1;" transform="translate(0,90)">
				<line x2="-6" y2="0" style="fill: none; stroke: #000000; shape-rendering: crispedges;"/>
				<text x="-9" y="0" dy=".32em" style="text-anchor: end;">70%</text>
			</g>
			<g class="tick major" style="opacity: 1;" transform="translate(0,60)">
				<line x2="-6" y2="0" style="fill: none; stroke: #000000; shape-rendering: crispedges;"/>
				<text x="-9" y="0" dy=".32em" style="text-anchor: end;">80%</text>
			</g>
			<g class="tick major" style="opacity: 1;" transform="translate(0,30)">
				<line x2="-6" y2="0" style="fill: none; stroke: #000000; shape-rendering: crispedges;"/>
				<text x="-9" y="0" dy=".32em" style="text-anchor: end;">90%</text>
			</g>
			<g class="tick major" style="opacity: 1;" transform="translate(0,0)">
				<line x2="-6" y2="0" style="fill: none; stroke: #000000; shape-rendering: crispedges;"/>
				<text x="-9" y="0" dy=".32em" style="text-anchor: end;">100%</text>
			</g>
			<path class="domain" d="M-6,0H0V300H-6" style="fill: none; stroke: #000000; shape-rendering: crispedges;"/>
		</g>
		<g class="legend" transform="translate(0, 0)">
			<rect x="1" y="326" width="294.6666666666667" height="18" style="fill: #3182bd;"/>
			<text x="148.33333333333334" y="335" dy=".4em" style="text-anchor: middle;">Cupcake (1.5)</text>
		</g>
		<g class="legend" transform="translate(296.6666666666667, 0)">
			<rect x="1" y="326" width="294.6666666666667" height="18" style="fill: #6baed6;"/>
			<text x="148.33333333333334" y="335" dy=".4em" style="text-anchor: middle;">Donut (1.6)</text>
		</g>
		<g class="legend" transform="translate(593.3333333333334, 0)">
			<rect x="1" y="326" width="294.6666666666667" height="18" style="fill: #9ecae1;"/>
			<text x="148.33333333333334" y="335" dy=".4em" style="text-anchor: middle;">Eclair (2.0)</text>
		</g>
		<g class="legend" transform="translate(0, 20)">
			<rect x="1" y="326" width="294.6666666666667" height="18" style="fill: #c6dbef;"/>
			<text x="148.33333333333334" y="335" dy=".4em" style="text-anchor: middle;">Eclair (2.0.1)</text>
		</g>
		<g class="legend" transform="translate(296.6666666666667, 20)">
			<rect x="1" y="326" width="294.6666666666667" height="18" style="fill: #e6550d;"/>
			<text x="148.33333333333334" y="335" dy=".4em" style="text-anchor: middle;">Eclair (2.1)</text>
		</g>
		<g class="legend" transform="translate(593.3333333333334, 20)">
			<rect x="1" y="326" width="294.6666666666667" height="18" style="fill: #fd8d3c;"/>
			<text x="148.33333333333334" y="335" dy=".4em" style="text-anchor: middle;">Froyo (2.2)</text>
		</g>
		<g class="legend" transform="translate(0, 40)">
			<rect x="1" y="326" width="294.6666666666667" height="18" style="fill: #fdae6b;"/>
			<text x="148.33333333333334" y="335" dy=".4em" style="text-anchor: middle;">Gingerbread (2.3 - 2.3.2)</text>
		</g>
		<g class="legend" transform="translate(296.6666666666667, 40)">
			<rect x="1" y="326" width="294.6666666666667" height="18" style="fill: #fdd0a2;"/>
			<text x="148.33333333333334" y="335" dy=".4em" style="text-anchor: middle;">Gingerbread (2.3.3 - 2.3.7)</text>
		</g>
		<g class="legend" transform="translate(593.3333333333334, 40)">
			<rect x="1" y="326" width="294.6666666666667" height="18" style="fill: #31a354;"/>
			<text x="148.33333333333334" y="335" dy=".4em" style="text-anchor: middle;">Honeycomb (3.0)</text>
		</g>
		<g class="legend" transform="translate(0, 60)">
			<rect x="1" y="326" width="294.6666666666667" height="18" style="fill: #74c476;"/>
			<text x="148.33333333333334" y="335" dy=".4em" style="text-anchor: middle;">Honeycomb (3.1)</text>
		</g>
		<g class="legend" transform="translate(296.6666666666667, 60)">
			<rect x="1" y="326" width="294.6666666666667" height="18" style="fill: #a1d99b;"/>
			<text x="148.33333333333334" y="335" dy=".4em" style="text-anchor: middle;">Honeycomb (3.2)</text>
		</g>
		<g class="legend" transform="translate(593.3333333333334, 60)">
			<rect x="1" y="326" width="294.6666666666667" height="18" style="fill: #c7e9c0;"/>
			<text x="148.33333333333334" y="335" dy=".4em" style="text-anchor: middle;">Ice Cream Sandwich (4.0 - 4.0.3)</text>
		</g>
		<g class="legend" transform="translate(0, 80)">
			<rect x="1" y="326" width="294.6666666666667" height="18" style="fill: #756bb1;"/>
			<text x="148.33333333333334" y="335" dy=".4em" style="text-anchor: middle;">Ice Cream Sandwich (4.0.3 - 4.0.4)</text>
		</g>
		<g class="legend" transform="translate(296.6666666666667, 80)">
			<rect x="1" y="326" width="294.6666666666667" height="18" style="fill: #9e9ac8;"/>
			<text x="148.33333333333334" y="335" dy=".4em" style="text-anchor: middle;">Jellybean (4.1)</text>
		</g>
		<g class="legend" transform="translate(593.3333333333334, 80)">
			<rect x="1" y="326" width="294.6666666666667" height="18" style="fill: #bcbddc;"/>
			<text x="148.33333333333334" y="335" dy=".4em" style="text-anchor: middle;">Jellybean (4.2)</text>
		</g>
	</g>
</svg>
