<?xml version="1.0" encoding="utf-8"?>
<!-- Generator: Adobe Illustrator 16.0.1, SVG Export Plug-In . SVG Version: 6.00 Build 0)  -->
<!DOCTYPE svg PUBLIC "-//W3C//DTD SVG 1.1//EN" "http://www.w3.org/Graphics/SVG/1.1/DTD/svg11.dtd">
<svg version="1.1" id="Layer_1" xmlns="http://www.w3.org/2000/svg" xmlns:xlink="http://www.w3.org/1999/xlink" x="0px" y="0px"
	 width="960px" height="450px" viewBox="0 0 960 450" enable-background="new 0 0 960 450" xml:space="preserve">
<g transform="translate(50,20)">
	<g>
		<path fill="#3182BD" d="M7.404,201.834l71.876-20.851l15.408,2.4l32.285,37.92l21.278,16.98l13.208,10.83l22.012,9.96
			l22.013,6.899l22.776,5.4l22.013,4.8l46.226,7.23l30.083,2.699l12.443,0.9l22.746,1.2l22.012,1.2l24.947,1.5l19.812,0.3
			l23.479,0.899l22.746-0.3l22.776,0.601l20.545,0.3l24.214,0.6h21.278l24.214,0.601l20.514,0.3h21.279h22.746l22.746,0.3h46.959
			l19.812,0.3h22.776h23.479l22.746,0.3h23.479h20.545h21.248h21.279l0,0h-21.279h-21.248h-20.545h-23.479h-22.746h-23.479H741.85
			h-19.812h-46.959h-22.746h-22.746h-21.279h-20.514H563.58h-21.278h-24.214h-20.545h-22.776h-22.746h-23.479H408.73h-24.947
			h-22.012h-22.746h-12.443h-30.083h-46.226H228.26h-22.776h-22.013h-22.012h-13.208h-21.278H94.688H79.28H7.404V201.834z"/>
	</g>
	<g>
		<path fill="#6BAED6" d="M7.404,58.614L79.28,86.094l15.408,9l32.285,51.21l21.278,25.561l13.208,16.229l22.012,18.42l22.013,10.2
			l22.776,9.6l22.013,18.03l46.226,20.16l30.083,7.2l12.443,4.8l22.746,2.7l22.012,2.7l24.947,2.399l19.812,0.9l23.479,1.5
			l22.746,0.899l22.776,0.601l20.545,0.6l24.214,1.2l21.278,0.3l24.214,1.2l20.514,0.6h21.279l22.746,0.301l22.746,0.6l46.959,0.3
			l19.812,0.3l22.776,0.301h23.479l22.746,0.6h23.479h20.545l21.248,0.3h21.279v0.3h-21.279h-21.248h-20.545h-23.479l-22.746-0.3
			h-23.479H741.85l-19.812-0.3h-46.959l-22.746-0.3h-22.746h-21.279l-20.514-0.3l-24.214-0.601h-21.278l-24.214-0.6l-20.545-0.3
			l-22.776-0.601l-22.746,0.3l-23.479-0.899l-19.812-0.3l-24.947-1.5l-22.012-1.2l-22.746-1.2l-12.443-0.9l-30.083-2.699
			l-46.226-7.23l-22.013-4.8l-22.776-5.4l-22.013-6.899l-22.012-9.96l-13.208-10.83l-21.278-16.98l-32.285-37.92l-15.408-2.4
			L7.404,201.834V58.614z"/>
	</g>
	<g>
		<path fill="#9ECAE1" d="M7.404,56.513l71.876,28.68l15.408,9l32.285,51.811l21.278,25.86l13.208,16.229l22.012,18.42l22.013,10.2
			l22.776,9.6l22.013,18.03l46.226,20.16l30.083,7.2l12.443,4.8l22.746,2.7l22.012,2.7l24.947,2.399l19.812,0.9l23.479,1.5
			l22.746,0.899l22.776,0.601l20.545,0.6l24.214,1.2l21.278,0.3l24.214,1.2l20.514,0.6h21.279l22.746,0.301l22.746,0.6l46.959,0.3
			l19.812,0.3l22.776,0.301h23.479l22.746,0.6h23.479h20.545l21.248,0.3h21.279l0,0h-21.279l-21.248-0.3h-20.545h-23.479
			l-22.746-0.6h-23.479l-22.776-0.301l-19.812-0.3l-46.959-0.3l-22.746-0.6l-22.746-0.301h-21.279l-20.514-0.6l-24.214-1.2
			l-21.278-0.3l-24.214-1.2l-20.545-0.6l-22.776-0.601l-22.746-0.899l-23.479-1.5l-19.812-0.9l-24.947-2.399l-22.012-2.7
			l-22.746-2.7l-12.443-4.8l-30.083-7.2l-46.226-20.16l-22.013-18.03l-22.776-9.6l-22.013-10.2l-22.012-18.42l-13.208-16.229
			l-21.278-25.561l-32.285-51.21l-15.408-9L7.404,58.614V56.513z"/>
	</g>
	<g>
		<path fill="#C6DBEF" d="M7.404-4.866l71.876,81.96l15.408,15.3l32.285,52.71l21.278,26.761l13.208,16.229l22.012,18.42
			l22.013,10.2l22.776,9.6l22.013,18.03l46.226,20.16l30.083,7.2l12.443,4.8l22.746,2.7l22.012,2.7l24.947,2.399l19.812,0.9
			l23.479,1.5l22.746,0.899l22.776,0.601l20.545,0.6l24.214,1.2l21.278,0.3l24.214,1.2l20.514,0.6h21.279l22.746,0.301l22.746,0.6
			l46.959,0.3l19.812,0.3l22.776,0.301h23.479l22.746,0.6h23.479h20.545l21.248,0.3h21.279l0,0h-21.279l-21.248-0.3h-20.545h-23.479
			l-22.746-0.6h-23.479l-22.776-0.301l-19.812-0.3l-46.959-0.3l-22.746-0.6l-22.746-0.301h-21.279l-20.514-0.6l-24.214-1.2
			l-21.278-0.3l-24.214-1.2l-20.545-0.6l-22.776-0.601l-22.746-0.899l-23.479-1.5l-19.812-0.9l-24.947-2.399l-22.012-2.7
			l-22.746-2.7l-12.443-4.8l-30.083-7.2l-46.226-20.16l-22.013-18.03l-22.776-9.6l-22.013-10.2l-22.012-18.42l-13.208-16.229
			l-21.278-25.86L94.688,94.193l-15.408-9L7.404,56.513V-4.866z"/>
	</g>
	<g>
		<path fill="#E6550D" d="M7.404-4.866l71.876-0.03h15.408h32.285l21.278,9.931l13.208,3.6l22.012,72.66l22.013,14.1l22.776,8.4
			l22.013,21.63l46.226,44.88l30.083,14.4l12.443,10.199l22.746,10.801l22.012,12.6l24.947,13.5l19.812,7.8l23.479,7.471
			l22.746,5.43l22.776,3.6l20.545,3.9l24.214,4.5l21.278,3l24.214,4.2l20.514,2.399l21.279,1.5l22.746,1.2l22.746,2.101l46.959,3.3
			l19.812,1.2l22.776,1.199l23.479,1.2l22.746,1.5l23.479,0.601l20.545,0.899l21.248,0.9h21.279v5.1h-21.279l-21.248-0.3h-20.545
			h-23.479l-22.746-0.6h-23.479l-22.776-0.301l-19.812-0.3l-46.959-0.3l-22.746-0.6l-22.746-0.301h-21.279l-20.514-0.6l-24.214-1.2
			l-21.278-0.3l-24.214-1.2l-20.545-0.6l-22.776-0.601l-22.746-0.899l-23.479-1.5l-19.812-0.9l-24.947-2.399l-22.012-2.7
			l-22.746-2.7l-12.443-4.8l-30.083-7.2l-46.226-20.16l-22.013-18.03l-22.776-9.6l-22.013-10.2l-22.012-18.42l-13.208-16.229
			l-21.278-26.761l-32.285-52.71l-15.408-15.3L7.404-4.866z"/>
	</g>
	<g>
		<path fill="#FD8D3C" d="M7.404-4.866l71.876-0.03h15.408h32.285h21.278h13.208h22.012h22.013l22.776-0.029l22.013,0.029
			l46.226,2.4l30.083,3.3l12.443,2.4l22.746,4.8l22.012,16.5l24.947,29.1l19.812,18.3l23.479,21.421l22.746,23.279l22.776,17.4
			l20.545,20.1l24.214,19.2l21.278,10.8l24.214,11.7l20.514,9l21.279,8.1l22.746,6.601l22.746,7.5l46.959,13.2l19.812,4.5
			l22.776,3.899l23.479,6.3l22.746,5.4l23.479,3.3l20.545,2.46l21.248,11.641l21.279,0.899v11.101h-21.279l-21.248-0.9
			l-20.545-0.899l-23.479-0.601l-22.746-1.5l-23.479-1.2l-22.776-1.199l-19.812-1.2l-46.959-3.3l-22.746-2.101l-22.746-1.2
			l-21.279-1.5l-20.514-2.399l-24.214-4.2l-21.278-3l-24.214-4.5l-20.545-3.9l-22.776-3.6l-22.746-5.43l-23.479-7.471l-19.812-7.8
			l-24.947-13.5l-22.012-12.6l-22.746-10.801l-12.443-10.199l-30.083-14.4l-46.226-44.88l-22.013-21.63l-22.776-8.4l-22.013-14.1
			l-22.012-72.66l-13.208-3.6l-21.278-9.931H94.688H79.28L7.404-4.866z"/>
	</g>
	<g>
		<path fill="#FDAE6B" d="M7.404-4.866l71.876-0.03h15.408h32.285h21.278h13.208h22.012h22.013l22.776-0.029l22.013,0.029h46.226
			l30.083,3.601l12.443,2.1l22.746,4.2l22.012,16.2l24.947,29.399l19.812,19.5l23.479,21.42l22.746,23.58l22.776,17.4l20.545,20.1
			l24.214,18.9l21.278,11.1l24.214,11.7l20.514,9l21.279,8.1l22.746,6.9l22.746,7.5l46.959,13.5l19.812,4.5l22.776,3.9l23.479,6.6
			l22.746,5.4l23.479,3.3l20.545,2.46l21.248,11.94l21.279,0.899v0.3l-21.279-0.899l-21.248-11.641l-20.545-2.46l-23.479-3.3
			l-22.746-5.4l-23.479-6.3l-22.776-3.899l-19.812-4.5l-46.959-13.2l-22.746-7.5l-22.746-6.601l-21.279-8.1l-20.514-9l-24.214-11.7
			l-21.278-10.8l-24.214-19.2l-20.545-20.1l-22.776-17.4l-22.746-23.279l-23.479-21.421l-19.812-18.3l-24.947-29.1l-22.012-16.5
			l-22.746-4.8l-12.443-2.4l-30.083-3.3l-46.226-2.4L228.26-4.926l-22.776,0.029h-22.013h-22.012h-13.208h-21.278H94.688H79.28
			L7.404-4.866z"/>
	</g>
	<g>
		<path fill="#FDD0A2" d="M7.404-4.866l71.876-0.03h15.408h32.285h21.278h13.208h22.012h22.013l22.776-0.029l22.013,0.029h46.226
			l30.083,0.601h12.443l22.746,0.3l22.012,0.899l24.947,0.9l19.812,1.2l23.479,0.33l22.746,1.17l22.776,0.3l20.545,1.5l24.214,4.5
			l21.278,1.5l24.214,1.5l20.514,3.9l21.279,6l22.746,4.8l22.746,10.5l46.959,32.7l19.812,9.6l22.776,8.7l23.479,16.5l22.746,15
			l23.479,9.3l20.545,6.93l21.248,24.69l21.279,4.68v115.2l-21.279-0.899l-21.248-11.94l-20.545-2.46l-23.479-3.3l-22.746-5.4
			l-23.479-6.6l-22.776-3.9l-19.812-4.5l-46.959-13.5l-22.746-7.5l-22.746-6.9l-21.279-8.1l-20.514-9l-24.214-11.7l-21.278-11.1
			l-24.214-18.9l-20.545-20.1l-22.776-17.4l-22.746-23.58l-23.479-21.42l-19.812-19.5l-24.947-29.399l-22.012-16.2l-22.746-4.2
			l-12.443-2.1l-30.083-3.601h-46.226L228.26-4.926l-22.776,0.029h-22.013h-22.012h-13.208h-21.278H94.688H79.28L7.404-4.866z"/>
	</g>
	<g>
		<path fill="#31A354" d="M7.404-4.866l71.876-0.03h15.408h32.285h21.278h13.208h22.012h22.013l22.776-0.029l22.013,0.029h46.226
			h30.083h12.443h22.746l22.012,0.9l24.947,0.6l19.812,1.2l23.479,0.93l22.746,1.17l22.776,0.601l20.545,1.5l24.214,4.5l21.278,1.5
			l24.214,1.5l20.514,3.899l21.279,6l22.746,5.101l22.746,10.5l46.959,32.7l19.812,9.6l22.776,8.7l23.479,16.5l22.746,15l23.479,9.3
			l20.545,6.93l21.248,24.69l21.279,4.68l0,0l-21.279-4.68l-21.248-24.69l-20.545-6.93l-23.479-9.3l-22.746-15l-23.479-16.5
			l-22.776-8.7l-19.812-9.6l-46.959-32.7l-22.746-10.5l-22.746-4.8l-21.279-6l-20.514-3.9l-24.214-1.5l-21.278-1.5l-24.214-4.5
			l-20.545-1.5l-22.776-0.3l-22.746-1.17l-23.479-0.33l-19.812-1.2l-24.947-0.9l-22.012-0.899l-22.746-0.3h-12.443l-30.083-0.601
			h-46.226L228.26-4.926l-22.776,0.029h-22.013h-22.012h-13.208h-21.278H94.688H79.28L7.404-4.866z"/>
	</g>
	<g>
		<path fill="#74C476" d="M7.404-4.866l71.876-0.03h15.408h32.285h21.278h13.208h22.012h22.013l22.776-0.029l22.013,0.029h46.226
			h30.083h12.443h22.746h22.012h24.947l19.812,0.601l23.479,0.93l22.746,0.57l22.776,0.6l20.545,0.9l24.214,3.3l21.278,1.8
			l24.214,2.4l20.514,4.199l21.279,6l22.746,6l22.746,11.101l46.959,32.7l19.812,9.899l22.776,8.7l23.479,16.5l22.746,15l23.479,9.6
			l20.545,6.931l21.248,25.59l21.279,4.68l0,0l-21.279-4.68l-21.248-24.69l-20.545-6.93l-23.479-9.3l-22.746-15l-23.479-16.5
			l-22.776-8.7l-19.812-9.6l-46.959-32.7l-22.746-10.5l-22.746-5.101l-21.279-6l-20.514-3.899l-24.214-1.5l-21.278-1.5l-24.214-4.5
			l-20.545-1.5l-22.776-0.601l-22.746-1.17l-23.479-0.93l-19.812-1.2l-24.947-0.6l-22.012-0.9h-22.746h-12.443h-30.083h-46.226
			L228.26-4.926l-22.776,0.029h-22.013h-22.012h-13.208h-21.278H94.688H79.28L7.404-4.866z"/>
	</g>
	<g>
		<path fill="#A1D99B" d="M7.404-4.866l71.876-0.03h15.408h32.285h21.278h13.208h22.012h22.013l22.776-0.029l22.013,0.029h46.226
			h30.083h12.443h22.746h22.012h24.947h19.812l23.479,0.03l22.746-0.03h22.776h20.545l24.214,1.8l21.278,1.2l24.214,1.8l20.514,3.9
			l21.279,6l22.746,6.6l22.746,11.4l46.959,33.6l19.812,10.2l22.776,9l23.479,17.101l22.746,15.3l23.479,9.899l20.545,7.23
			l21.248,27.69l21.279,4.979v0.3l-21.279-4.68l-21.248-25.59l-20.545-6.931l-23.479-9.6l-22.746-15l-23.479-16.5l-22.776-8.7
			l-19.812-9.899l-46.959-32.7l-22.746-11.101l-22.746-6l-21.279-6l-20.514-4.199l-24.214-2.4l-21.278-1.8l-24.214-3.3l-20.545-0.9
			l-22.776-0.6l-22.746-0.57l-23.479-0.93L408.73-4.897h-24.947h-22.012h-22.746h-12.443h-30.083h-46.226L228.26-4.926
			l-22.776,0.029h-22.013h-22.012h-13.208h-21.278H94.688H79.28L7.404-4.866z"/>
	</g>
	<g>
		<path fill="#C7E9C0" d="M7.404-4.866l71.876-0.03h15.408h32.285h21.278h13.208h22.012h22.013l22.776-0.029l22.013,0.029h46.226
			h30.083h12.443h22.746h22.012h24.947h19.812l23.479,0.03l22.746-0.03h22.776h20.545l24.214,0.9l21.278,1.2l24.214,1.5l20.514,3.6
			l21.279,6l22.746,6.9l22.746,12l46.959,33.899l19.812,10.5l22.776,9l23.479,17.101l22.746,15.3l23.479,9.899l20.545,7.23
			l21.248,27.69l21.279,4.979l0,0l-21.279-4.979l-21.248-27.69l-20.545-7.23l-23.479-9.899l-22.746-15.3l-23.479-17.101l-22.776-9
			l-19.812-10.2l-46.959-33.6l-22.746-11.4l-22.746-6.6l-21.279-6l-20.514-3.9l-24.214-1.8l-21.278-1.2l-24.214-1.8h-20.545h-22.776
			l-22.746,0.03l-23.479-0.03H408.73h-24.947h-22.012h-22.746h-12.443h-30.083h-46.226L228.26-4.926l-22.776,0.029h-22.013h-22.012
			h-13.208h-21.278H94.688H79.28L7.404-4.866z"/>
	</g>
	<g>
		<path fill="#756BB1" d="M7.404-4.866l71.876-0.03h15.408h32.285h21.278h13.208h22.012h22.013l22.776-0.029l22.013,0.029h46.226
			h30.083h12.443h22.746h22.012h24.947h19.812l23.479,0.03l22.746-0.03h22.776h20.545h24.214h21.278h24.214h20.514h21.279h22.746
			h22.746l46.959,3.601l19.812,1.8l22.776,2.7l23.479,12l22.746,10.5l23.479,10.199l20.545,8.61l21.248,25.5l21.279,10.29v82.5
			l-21.279-4.979l-21.248-27.69l-20.545-7.23l-23.479-9.899l-22.746-15.3l-23.479-17.101l-22.776-9l-19.812-10.5l-46.959-33.899
			l-22.746-12l-22.746-6.9l-21.279-6l-20.514-3.6l-24.214-1.5l-21.278-1.2l-24.214-0.9h-20.545h-22.776l-22.746,0.03l-23.479-0.03
			H408.73h-24.947h-22.012h-22.746h-12.443h-30.083h-46.226L228.26-4.926l-22.776,0.029h-22.013h-22.012h-13.208h-21.278H94.688
			H79.28L7.404-4.866z"/>
	</g>
	<g>
		<path fill="#9E9AC8" d="M7.404-4.866l71.876-0.03h15.408h32.285h21.278h13.208h22.012h22.013l22.776-0.029l22.013,0.029h46.226
			h30.083h12.443h22.746h22.012h24.947h19.812l23.479,0.03l22.746-0.03h22.776h20.545h24.214h21.278h24.214h20.514h21.279h22.746
			h22.746h46.959h19.812h22.776l23.479,2.4l22.746,1.2l23.479,0.6l20.545,0.6l21.248,1.171l21.279,0.93v78.3l-21.279-10.29
			l-21.248-25.5l-20.545-8.61l-23.479-10.199l-22.746-10.5l-23.479-12l-22.776-2.7l-19.812-1.8l-46.959-3.601h-22.746h-22.746
			h-21.279h-20.514H563.58h-21.278h-24.214h-20.545h-22.776l-22.746,0.03l-23.479-0.03H408.73h-24.947h-22.012h-22.746h-12.443
			h-30.083h-46.226L228.26-4.926l-22.776,0.029h-22.013h-22.012h-13.208h-21.278H94.688H79.28L7.404-4.866z"/>
	</g>
	<g>
		<path fill="#BCBDDC" d="M7.404-4.866l71.876-0.03h15.408h32.285h21.278h13.208h22.012h22.013l22.776-0.029l22.013,0.029h46.226
			h30.083h12.443h22.746h22.012h24.947h19.812l23.479,0.03l22.746-0.03h22.776h20.545h24.214h21.278h24.214h20.514h21.279h22.746
			h22.746h46.959h19.812h22.776h23.479h22.746h23.479h20.545l21.248-0.029l21.279,0.029v6.9l-21.279-0.93l-21.248-1.171l-20.545-0.6
			l-23.479-0.6l-22.746-1.2l-23.479-2.4H741.85h-19.812h-46.959h-22.746h-22.746h-21.279h-20.514H563.58h-21.278h-24.214h-20.545
			h-22.776l-22.746,0.03l-23.479-0.03H408.73h-24.947h-22.012h-22.746h-12.443h-30.083h-46.226L228.26-4.926l-22.776,0.029h-22.013
			h-22.012h-13.208h-21.278H94.688H79.28L7.404-4.866z"/>
	</g>
	<g transform="translate(0,300)">
		<g transform="translate(63.805090859125414,0)">
			<line fill="none" stroke="#000000" x1="7.403" y1="-4.897" x2="7.403" y2="1.103"/>
			<text transform="matrix(1 0 0 1 -6.6003 14.0437)" font-family="'Helvetica'" font-size="14">April</text>
		</g>
		<g transform="translate(130.57572738827247,0)">
			<line fill="none" stroke="#000000" x1="7.403" y1="-4.897" x2="7.403" y2="1.103"/>
			<text transform="matrix(1 0 0 1 -5.0452 14.0437)" font-family="'Helvetica'" font-size="14">July</text>
		</g>
		<g transform="translate(198.08010717598157,0)">
			<line fill="none" stroke="#000000" x1="7.404" y1="-4.897" x2="7.404" y2="1.103"/>
			<text transform="matrix(1 0 0 1 -17.4969 14.0437)" font-family="'Helvetica'" font-size="14">October</text>
		</g>
		<g transform="translate(265.6150595994641,0)">
			<line fill="none" stroke="#000000" x1="7.404" y1="-4.897" x2="7.404" y2="1.103"/>
			<text transform="matrix(1 0 0 1 -7.6529 14.0437)" font-family="'Helvetica'" font-size="14">2011</text>
		</g>
		<g transform="translate(331.62138023427565,0)">
			<line fill="none" stroke="#000000" x1="7.403" y1="-4.897" x2="7.403" y2="1.103"/>
			<text transform="matrix(1 0 0 1 -6.6001 14.0437)" font-family="'Helvetica'" font-size="14">April</text>
		</g>
		<g transform="translate(398.39201676342276,0)">
			<line fill="none" stroke="#000000" x1="7.403" y1="-4.897" x2="7.403" y2="1.103"/>
			<text transform="matrix(1 0 0 1 -5.0451 14.0437)" font-family="'Helvetica'" font-size="14">July</text>
		</g>
		<g transform="translate(465.89639655113183,0)">
			<line fill="none" stroke="#000000" x1="7.403" y1="-4.897" x2="7.403" y2="1.103"/>
			<text transform="matrix(1 0 0 1 -17.4967 14.0437)" font-family="'Helvetica'" font-size="14">October</text>
		</g>
		<g transform="translate(533.4313489746144,0)">
			<line fill="none" stroke="#000000" x1="7.403" y1="-4.897" x2="7.403" y2="1.103"/>
			<text transform="matrix(1 0 0 1 -8.1694 14.0437)" font-family="'Helvetica'" font-size="14">2012</text>
		</g>
		<g transform="translate(600.171412867988,0)">
			<line fill="none" stroke="#000000" x1="7.403" y1="-4.897" x2="7.403" y2="1.103"/>
			<text transform="matrix(1 0 0 1 -6.6008 14.0437)" font-family="'Helvetica'" font-size="14">April</text>
		</g>
		<g transform="translate(666.9420493971351,0)">
			<line fill="none" stroke="#000000" x1="7.403" y1="-4.897" x2="7.403" y2="1.103"/>
			<text transform="matrix(1 0 0 1 -5.0453 14.0437)" font-family="'Helvetica'" font-size="14">July</text>
		</g>
		<g transform="translate(734.4464291848442,0)">
			<line fill="none" stroke="#000000" x1="7.403" y1="-4.897" x2="7.403" y2="1.103"/>
			<text transform="matrix(1 0 0 1 -17.4969 14.0437)" font-family="'Helvetica'" font-size="14">October</text>
		</g>
		<g transform="translate(801.9813816083267,0)">
			<line fill="none" stroke="#000000" x1="7.403" y1="-4.897" x2="7.403" y2="1.103"/>
			<text transform="matrix(1 0 0 1 -8.1686 14.0437)" font-family="'Helvetica'" font-size="14">2013</text>
		</g>
		<g transform="translate(867.9877022431383,0)">
			<line fill="none" stroke="#000000" x1="7.403" y1="-4.897" x2="7.403" y2="1.103"/>
			<text transform="matrix(1 0 0 1 -6.6008 14.0437)" font-family="'Helvetica'" font-size="14">April</text>
		</g>
		<path fill="none" stroke="#000000" d="M7.404,1.103v-6h890v6"/>
	</g>
	<g>
		<g transform="translate(5.869946068496445,0)">
			<line fill="none" stroke="#888888" stroke-dasharray="5,2" x1="7.404" y1="-4.897" x2="7.404" y2="295.103"/>
			
				<text transform="matrix(6.123234e-17 -1 1 6.123234e-17 21.4028 178.9451)" fill="#888888" font-family="'Helvetica'" font-size="14">Eclair (2.1)</text>
		</g>
		<g transform="translate(99.75851052866614,0)">
			<line fill="none" stroke="#888888" stroke-dasharray="5,2" x1="7.403" y1="-4.897" x2="7.403" y2="295.103"/>
			
				<text transform="matrix(6.123234e-17 -1 1 6.123234e-17 21.4029 179.3347)" fill="#888888" font-family="'Helvetica'" font-size="14">Froyo (2.2)</text>
		</g>
		<g transform="translate(246.53773487685064,0)">
			<line fill="none" stroke="#888888" stroke-dasharray="5,2" x1="7.403" y1="-4.897" x2="7.403" y2="295.103"/>
			
				<text transform="matrix(6.123234e-17 -1 1 6.123234e-17 21.4029 222.1443)" fill="#888888" font-family="'Helvetica'" font-size="14">Gingerbread (2.3 - 2.3.2)</text>
		</g>
		<g transform="translate(294.23104668338425,0)">
			<line fill="none" stroke="#888888" stroke-dasharray="5,2" x1="7.403" y1="-4.897" x2="7.403" y2="295.103"/>
			
				<text transform="matrix(6.123234e-17 -1 1 6.123234e-17 2.5031 227.9822)" fill="#888888" font-family="'Helvetica'" font-size="14">Gingerbread (2.3.3 - 2.3.7)</text>
		</g>
		<g transform="translate(303.769709044691,0)">
			<line fill="none" stroke="#888888" stroke-dasharray="5,2" x1="7.403" y1="-4.897" x2="7.403" y2="295.103"/>
			
				<text transform="matrix(6.123234e-17 -1 1 6.123234e-17 21.4029 198.7927)" fill="#888888" font-family="'Helvetica'" font-size="14">Honeycomb (3.0)</text>
		</g>
		<g transform="translate(360.2373673181958,0)">
			<line fill="none" stroke="#888888" stroke-dasharray="5,2" x1="7.404" y1="-4.897" x2="7.404" y2="295.103"/>
			
				<text transform="matrix(6.123234e-17 -1 1 6.123234e-17 21.403 198.7927)" fill="#888888" font-family="'Helvetica'" font-size="14">Honeycomb (3.1)</text>
		</g>
		<g transform="translate(408.6644223832915,0)">
			<line fill="none" stroke="#888888" stroke-dasharray="5,2" x1="7.403" y1="-4.897" x2="7.403" y2="295.103"/>
			
				<text transform="matrix(6.123234e-17 -1 1 6.123234e-17 21.4032 198.7927)" fill="#888888" font-family="'Helvetica'" font-size="14">Honeycomb (3.2)</text>
		</g>
		<g transform="translate(479.10377520524884,0)">
			<line fill="none" stroke="#888888" stroke-dasharray="5,2" x1="7.403" y1="-4.897" x2="7.403" y2="295.103"/>
			
				<text transform="matrix(6.123234e-17 -1 1 6.123234e-17 21.4033 247.8142)" fill="#888888" font-family="'Helvetica'" font-size="14">Ice Cream Sandwich (4.0 - 4.0.3)</text>
		</g>
		<g transform="translate(521.6914568376214,0)">
			<line fill="none" stroke="#888888" stroke-dasharray="5,2" x1="7.404" y1="-4.897" x2="7.404" y2="295.103"/>
			
				<text transform="matrix(6.123234e-17 -1 1 6.123234e-17 21.4025 253.6521)" fill="#888888" font-family="'Helvetica'" font-size="14">Ice Cream Sandwich (4.0.3 - 4.0.4)</text>
		</g>
		<g transform="translate(672.8119954656315,0)">
			<line fill="none" stroke="#888888" stroke-dasharray="5,2" x1="7.403" y1="-4.897" x2="7.403" y2="295.103"/>
			
				<text transform="matrix(6.123234e-17 -1 1 6.123234e-17 21.4031 191.0173)" fill="#888888" font-family="'Helvetica'" font-size="14">Jellybean (4.1)</text>
		</g>
		<g transform="translate(766.027961938786,0)">
			<line fill="none" stroke="#888888" stroke-dasharray="5,2" x1="7.403" y1="-4.897" x2="7.403" y2="295.103"/>
			
				<text transform="matrix(6.123234e-17 -1 1 6.123234e-17 21.403 191.0173)" fill="#888888" font-family="'Helvetica'" font-size="14">Jellybean (4.2)</text>
		</g>
		<path fill="none" d="M7.404-4.897L7.404-4.897h890l0,0"/>
	</g>
	<g>
		<g transform="translate(0,300)">
			<line fill="none" stroke="#000000" x1="7.404" y1="-4.897" x2="1.404" y2="-4.897"/>
			<text transform="matrix(1 0 0 1 -21.8313 -0.4163)" font-family="'Helvetica'" font-size="14">0%</text>
		</g>
		<g transform="translate(0,270)">
			<line fill="none" stroke="#000000" x1="7.404" y1="-4.897" x2="1.404" y2="-4.897"/>
			<text transform="matrix(1 0 0 1 -29.6174 -0.4163)" font-family="'Helvetica'" font-size="14">10%</text>
		</g>
		<g transform="translate(0,240)">
			<line fill="none" stroke="#000000" x1="7.404" y1="-4.897" x2="1.404" y2="-4.897"/>
			<text transform="matrix(1 0 0 1 -29.6174 -0.4163)" font-family="'Helvetica'" font-size="14">20%</text>
		</g>
		<g transform="translate(0,210)">
			<line fill="none" stroke="#000000" x1="7.404" y1="-4.897" x2="1.404" y2="-4.897"/>
			<text transform="matrix(1 0 0 1 -29.6174 -0.4163)" font-family="'Helvetica'" font-size="14">30%</text>
		</g>
		<g transform="translate(0,180)">
			<line fill="none" stroke="#000000" x1="7.404" y1="-4.897" x2="1.404" y2="-4.897"/>
			<text transform="matrix(1 0 0 1 -29.6174 -0.4163)" font-family="'Helvetica'" font-size="14">40%</text>
		</g>
		<g transform="translate(0,150)">
			<line fill="none" stroke="#000000" x1="7.404" y1="-4.897" x2="1.404" y2="-4.897"/>
			<text transform="matrix(1 0 0 1 -29.6174 -0.4163)" font-family="'Helvetica'" font-size="14">50%</text>
		</g>
		<g transform="translate(0,120)">
			<line fill="none" stroke="#000000" x1="7.404" y1="-4.897" x2="1.404" y2="-4.897"/>
			<text transform="matrix(1 0 0 1 -29.6174 -0.4163)" font-family="'Helvetica'" font-size="14">60%</text>
		</g>
		<g transform="translate(0,90)">
			<line fill="none" stroke="#000000" x1="7.404" y1="-4.897" x2="1.404" y2="-4.897"/>
			<text transform="matrix(1 0 0 1 -29.6174 -0.4163)" font-family="'Helvetica'" font-size="14">70%</text>
		</g>
		<g transform="translate(0,60)">
			<line fill="none" stroke="#000000" x1="7.404" y1="-4.897" x2="1.404" y2="-4.897"/>
			<text transform="matrix(1 0 0 1 -29.6174 -0.4163)" font-family="'Helvetica'" font-size="14">80%</text>
		</g>
		<g transform="translate(0,30)">
			<line fill="none" stroke="#000000" x1="7.404" y1="-4.897" x2="1.404" y2="-4.897"/>
			<text transform="matrix(1 0 0 1 -29.6174 -0.4163)" font-family="'Helvetica'" font-size="14">90%</text>
		</g>
		<g transform="translate(0,0)">
			<line fill="none" stroke="#000000" x1="7.404" y1="-4.897" x2="1.404" y2="-4.897"/>
			<text transform="matrix(1 0 0 1 -37.4036 -0.4163)" font-family="'Helvetica'" font-size="14">100%</text>
		</g>
		<path fill="none" stroke="#000000" d="M1.404-4.897h6v300h-6"/>
	</g>
	<g transform="translate(0, 0)">
		<rect x="8.404" y="321.103" fill="#3182BD" width="294.666" height="18"/>
		<text transform="matrix(1 0 0 1 111.7712 335.7039)" font-family="'Helvetica'" font-size="14">Cupcake (1.5)</text>
	</g>
	<g transform="translate(296.6666666666667, 0)">
		<rect x="8.403" y="321.103" fill="#6BAED6" width="294.667" height="18"/>
		<text transform="matrix(1 0 0 1 120.7193 335.7039)" font-family="'Helvetica'" font-size="14">Donut (1.6)</text>
	</g>
	<g transform="translate(593.3333333333334, 0)">
		<rect x="8.403" y="321.103" fill="#9ECAE1" width="294.667" height="18"/>
		<text transform="matrix(1 0 0 1 121.8954 335.7039)" font-family="'Helvetica'" font-size="14">Eclair (2.0)</text>
	</g>
	<g transform="translate(0, 20)">
		<rect x="8.404" y="321.103" fill="#C6DBEF" width="294.666" height="18"/>
		<text transform="matrix(1 0 0 1 116.0574 335.7039)" font-family="'Helvetica'" font-size="14">Eclair (2.0.1)</text>
	</g>
	<g transform="translate(296.6666666666667, 20)">
		<rect x="8.403" y="321.103" fill="#E6550D" width="294.667" height="18"/>
		<text transform="matrix(1 0 0 1 121.8951 335.7039)" font-family="'Helvetica'" font-size="14">Eclair (2.1)</text>
	</g>
	<g transform="translate(593.3333333333334, 20)">
		<rect x="8.403" y="321.103" fill="#FD8D3C" width="294.667" height="18"/>
		<text transform="matrix(1 0 0 1 121.5048 335.7039)" font-family="'Helvetica'" font-size="14">Froyo (2.2)</text>
	</g>
	<g transform="translate(0, 40)">
		<rect x="8.404" y="321.103" fill="#FDAE6B" width="294.666" height="18"/>
		<text transform="matrix(1 0 0 1 78.6956 335.7039)" font-family="'Helvetica'" font-size="14">Gingerbread (2.3 - 2.3.2)</text>
	</g>
	<g transform="translate(296.6666666666667, 40)">
		<rect x="8.403" y="321.103" fill="#FDD0A2" width="294.667" height="18"/>
		<text transform="matrix(1 0 0 1 72.8575 335.7039)" font-family="'Helvetica'" font-size="14">Gingerbread (2.3.3 - 2.3.7)</text>
	</g>
	<g transform="translate(593.3333333333334, 40)">
		<rect x="8.403" y="321.103" fill="#31A354" width="294.667" height="18"/>
		<text transform="matrix(1 0 0 1 102.0468 335.7039)" font-family="'Helvetica'" font-size="14">Honeycomb (3.0)</text>
	</g>
	<g transform="translate(0, 60)">
		<rect x="8.404" y="321.103" fill="#74C476" width="294.666" height="18"/>
		<text transform="matrix(1 0 0 1 102.0471 335.7039)" font-family="'Helvetica'" font-size="14">Honeycomb (3.1)</text>
	</g>
	<g transform="translate(296.6666666666667, 60)">
		<rect x="8.403" y="321.103" fill="#A1D99B" width="294.667" height="18"/>
		<text transform="matrix(1 0 0 1 102.047 335.7039)" font-family="'Helvetica'" font-size="14">Honeycomb (3.2)</text>
	</g>
	<g transform="translate(593.3333333333334, 60)">
		<rect x="8.403" y="321.103" fill="#C7E9C0" width="294.667" height="18"/>
		<text transform="matrix(1 0 0 1 53.0263 335.7039)" font-family="'Helvetica'" font-size="14">Ice Cream Sandwich (4.0 - 4.0.3)</text>
	</g>
	<g transform="translate(0, 80)">
		<rect x="8.404" y="321.103" fill="#756BB1" width="294.666" height="18"/>
		<text transform="matrix(1 0 0 1 47.1887 335.7039)" font-family="'Helvetica'" font-size="14">Ice Cream Sandwich (4.0.3 - 4.0.4)</text>
	</g>
	<g transform="translate(296.6666666666667, 80)">
		<rect x="8.403" y="321.103" fill="#9E9AC8" width="294.667" height="18"/>
		<text transform="matrix(1 0 0 1 109.8228 335.7039)" font-family="'Helvetica'" font-size="14">Jellybean (4.1)</text>
	</g>
	<g transform="translate(593.3333333333334, 80)">
		<rect x="8.403" y="321.103" fill="#BCBDDC" width="294.667" height="18"/>
		<text transform="matrix(1 0 0 1 109.8232 335.7039)" font-family="'Helvetica'" font-size="14">Jellybean (4.2)</text>
	</g>
</g>
</svg>
