<?xml version="1.0"?>
<svg width="500" height="500">
    <g transform="translate(250,250)" style="font-style: normal; font-variant: normal; font-weight: normal; font-size: 14px; line-height: normal; font-family: sans-serif;">
        <g class="axis" transform="rotate(0)">
            <g class="tick major" style="opacity: 1;" transform="translate(0,-80)">
                <line x2="-6" y2="0" style="fill: none; stroke: #000000;"/>
                <text x="-9" y="0" dy=".32em" style="text-anchor: end;">0%</text>
            </g>
            <g class="tick major" style="opacity: 1;" transform="translate(0,-112)">
                <line x2="-6" y2="0" style="fill: none; stroke: #000000;"/>
                <text x="-9" y="0" dy=".32em" style="text-anchor: end;">20%</text>
            </g>
            <g class="tick major" style="opacity: 1;" transform="translate(0,-144)">
                <line x2="-6" y2="0" style="fill: none; stroke: #000000;"/>
                <text x="-9" y="0" dy=".32em" style="text-anchor: end;">40%</text>
            </g>
            <g class="tick major" style="opacity: 1;" transform="translate(0,-176)">
                <line x2="-6" y2="0" style="fill: none; stroke: #000000;"/>
                <text x="-9" y="0" dy=".32em" style="text-anchor: end;">60%</text>
            </g>
            <g class="tick major" style="opacity: 1;" transform="translate(0,-208)">
                <line x2="-6" y2="0" style="fill: none; stroke: #000000;"/>
                <text x="-9" y="0" dy=".32em" style="text-anchor: end;">80%</text>
            </g>
            <g class="tick major" style="opacity: 1;" transform="translate(0,-240)">
                <line x2="-6" y2="0" style="fill: none; stroke: #000000;"/>
                <text x="-9" y="0" dy=".32em" style="text-anchor: end;">100%</text>
            </g>
            <path class="domain" d="M-6,-240H0V-80H-6" style="fill: none; stroke: #000000;"/>
            <text y="-240" dy="-0.5em" text-anchor="begin" transform="rotate(90 0,-240)"> Platform support</text>
        </g>
        <g class="axis" transform="rotate(32.72727272727273)">
            <g class="tick major" style="opacity: 1;" transform="translate(0,-80)">
                <line x2="-6" y2="0" style="fill: none; stroke: #000000;"/>
                <text x="-9" y="0" dy=".32em" style="text-anchor: end;">0%</text>
            </g>
            <g class="tick major" style="opacity: 1;" transform="translate(0,-112)">
                <line x2="-6" y2="0" style="fill: none; stroke: #000000;"/>
                <text x="-9" y="0" dy=".32em" style="text-anchor: end;">20%</text>
            </g>
            <g class="tick major" style="opacity: 1;" transform="translate(0,-144)">
                <line x2="-6" y2="0" style="fill: none; stroke: #000000;"/>
                <text x="-9" y="0" dy=".32em" style="text-anchor: end;">40%</text>
            </g>
            <g class="tick major" style="opacity: 1;" transform="translate(0,-176)">
                <line x2="-6" y2="0" style="fill: none; stroke: #000000;"/>
                <text x="-9" y="0" dy=".32em" style="text-anchor: end;">60%</text>
            </g>
            <g class="tick major" style="opacity: 1;" transform="translate(0,-208)">
                <line x2="-6" y2="0" style="fill: none; stroke: #000000;"/>
                <text x="-9" y="0" dy=".32em" style="text-anchor: end;">80%</text>
            </g>
            <g class="tick major" style="opacity: 1;" transform="translate(0,-240)">
                <line x2="-6" y2="0" style="fill: none; stroke: #000000;"/>
                <text x="-9" y="0" dy=".32em" style="text-anchor: end;">100%</text>
            </g>
            <path class="domain" d="M-6,-240H0V-80H-6" style="fill: none; stroke: #000000;"/>
            <text y="-240" dy="-0.5em" text-anchor="begin" transform="rotate(90 0,-240)"> Toolset reuse</text>
        </g>
        <g class="axis" transform="rotate(65.45454545454545)">
            <g class="tick major" style="opacity: 1;" transform="translate(0,-80)">
                <line x2="-6" y2="0" style="fill: none; stroke: #000000;"/>
                <text x="-9" y="0" dy=".32em" style="text-anchor: end;">0%</text>
            </g>
            <g class="tick major" style="opacity: 1;" transform="translate(0,-112)">
                <line x2="-6" y2="0" style="fill: none; stroke: #000000;"/>
                <text x="-9" y="0" dy=".32em" style="text-anchor: end;">20%</text>
            </g>
            <g class="tick major" style="opacity: 1;" transform="translate(0,-144)">
                <line x2="-6" y2="0" style="fill: none; stroke: #000000;"/>
                <text x="-9" y="0" dy=".32em" style="text-anchor: end;">40%</text>
            </g>
            <g class="tick major" style="opacity: 1;" transform="translate(0,-176)">
                <line x2="-6" y2="0" style="fill: none; stroke: #000000;"/>
                <text x="-9" y="0" dy=".32em" style="text-anchor: end;">60%</text>
            </g>
            <g class="tick major" style="opacity: 1;" transform="translate(0,-208)">
                <line x2="-6" y2="0" style="fill: none; stroke: #000000;"/>
                <text x="-9" y="0" dy=".32em" style="text-anchor: end;">80%</text>
            </g>
            <g class="tick major" style="opacity: 1;" transform="translate(0,-240)">
                <line x2="-6" y2="0" style="fill: none; stroke: #000000;"/>
                <text x="-9" y="0" dy=".32em" style="text-anchor: end;">100%</text>
            </g>
            <path class="domain" d="M-6,-240H0V-80H-6" style="fill: none; stroke: #000000;"/>
            <text y="-240" dy="-0.5em" text-anchor="begin" transform="rotate(90 0,-240)"> Code reuse</text>
        </g>
        <g class="axis" transform="rotate(98.18181818181817)">
            <g class="tick major" style="opacity: 1;" transform="translate(0,-80)">
                <line x2="-6" y2="0" style="fill: none; stroke: #000000;"/>
                <text x="-9" y="0" dy=".32em" style="text-anchor: end;">0%</text>
            </g>
            <g class="tick major" style="opacity: 1;" transform="translate(0,-112)">
                <line x2="-6" y2="0" style="fill: none; stroke: #000000;"/>
                <text x="-9" y="0" dy=".32em" style="text-anchor: end;">20%</text>
            </g>
            <g class="tick major" style="opacity: 1;" transform="translate(0,-144)">
                <line x2="-6" y2="0" style="fill: none; stroke: #000000;"/>
                <text x="-9" y="0" dy=".32em" style="text-anchor: end;">40%</text>
            </g>
            <g class="tick major" style="opacity: 1;" transform="translate(0,-176)">
                <line x2="-6" y2="0" style="fill: none; stroke: #000000;"/>
                <text x="-9" y="0" dy=".32em" style="text-anchor: end;">60%</text>
            </g>
            <g class="tick major" style="opacity: 1;" transform="translate(0,-208)">
                <line x2="-6" y2="0" style="fill: none; stroke: #000000;"/>
                <text x="-9" y="0" dy=".32em" style="text-anchor: end;">80%</text>
            </g>
            <g class="tick major" style="opacity: 1;" transform="translate(0,-240)">
                <line x2="-6" y2="0" style="fill: none; stroke: #000000;"/>
                <text x="-9" y="0" dy=".32em" style="text-anchor: end;">100%</text>
            </g>
            <path class="domain" d="M-6,-240H0V-80H-6" style="fill: none; stroke: #000000;"/>
            <text y="-240" dy="-0.5em" text-anchor="begin" transform="rotate(90 0,-240)"> Access to hardware</text>
        </g>
        <g class="axis" transform="rotate(130.9090909090909)">
            <g class="tick major" style="opacity: 1;" transform="translate(0,-80)">
                <line x2="-6" y2="0" style="fill: none; stroke: #000000;"/>
                <text x="-9" y="0" dy=".32em" style="text-anchor: end;">0%</text>
            </g>
            <g class="tick major" style="opacity: 1;" transform="translate(0,-112)">
                <line x2="-6" y2="0" style="fill: none; stroke: #000000;"/>
                <text x="-9" y="0" dy=".32em" style="text-anchor: end;">20%</text>
            </g>
            <g class="tick major" style="opacity: 1;" transform="translate(0,-144)">
                <line x2="-6" y2="0" style="fill: none; stroke: #000000;"/>
                <text x="-9" y="0" dy=".32em" style="text-anchor: end;">40%</text>
            </g>
            <g class="tick major" style="opacity: 1;" transform="translate(0,-176)">
                <line x2="-6" y2="0" style="fill: none; stroke: #000000;"/>
                <text x="-9" y="0" dy=".32em" style="text-anchor: end;">60%</text>
            </g>
            <g class="tick major" style="opacity: 1;" transform="translate(0,-208)">
                <line x2="-6" y2="0" style="fill: none; stroke: #000000;"/>
                <text x="-9" y="0" dy=".32em" style="text-anchor: end;">80%</text>
            </g>
            <g class="tick major" style="opacity: 1;" transform="translate(0,-240)">
                <line x2="-6" y2="0" style="fill: none; stroke: #000000;"/>
                <text x="-9" y="0" dy=".32em" style="text-anchor: end;">100%</text>
            </g>
            <path class="domain" d="M-6,-240H0V-80H-6" style="fill: none; stroke: #000000;"/>
            <text y="-240" dy="-0.5em" text-anchor="begin" transform="rotate(90 0,-240)"> Platform-specific services</text>
        </g>
        <g class="axis" transform="rotate(163.63636363636365)">
            <g class="tick major" style="opacity: 1;" transform="translate(0,-80)">
                <line x2="-6" y2="0" style="fill: none; stroke: #000000;"/>
                <text x="-9" y="0" dy=".32em" style="text-anchor: end;">0%</text>
            </g>
            <g class="tick major" style="opacity: 1;" transform="translate(0,-112)">
                <line x2="-6" y2="0" style="fill: none; stroke: #000000;"/>
                <text x="-9" y="0" dy=".32em" style="text-anchor: end;">20%</text>
            </g>
            <g class="tick major" style="opacity: 1;" transform="translate(0,-144)">
                <line x2="-6" y2="0" style="fill: none; stroke: #000000;"/>
                <text x="-9" y="0" dy=".32em" style="text-anchor: end;">40%</text>
            </g>
            <g class="tick major" style="opacity: 1;" transform="translate(0,-176)">
                <line x2="-6" y2="0" style="fill: none; stroke: #000000;"/>
                <text x="-9" y="0" dy=".32em" style="text-anchor: end;">60%</text>
            </g>
            <g class="tick major" style="opacity: 1;" transform="translate(0,-208)">
                <line x2="-6" y2="0" style="fill: none; stroke: #000000;"/>
                <text x="-9" y="0" dy=".32em" style="text-anchor: end;">80%</text>
            </g>
            <g class="tick major" style="opacity: 1;" transform="translate(0,-240)">
                <line x2="-6" y2="0" style="fill: none; stroke: #000000;"/>
                <text x="-9" y="0" dy=".32em" style="text-anchor: end;">100%</text>
            </g>
            <path class="domain" d="M-6,-240H0V-80H-6" style="fill: none; stroke: #000000;"/>
            <text y="-240" dy="-0.5em" text-anchor="begin" transform="rotate(90 0,-240)"> Native Look &amp; Feel</text>
        </g>
        <g class="axis" transform="rotate(196.36363636363635)">
            <g class="tick major" style="opacity: 1;" transform="translate(0,-80)">
                <line x2="-6" y2="0" style="fill: none; stroke: #000000;"/>
                <text x="-9" y="0" dy=".32em" style="text-anchor: end;">0%</text>
            </g>
            <g class="tick major" style="opacity: 1;" transform="translate(0,-112)">
                <line x2="-6" y2="0" style="fill: none; stroke: #000000;"/>
                <text x="-9" y="0" dy=".32em" style="text-anchor: end;">20%</text>
            </g>
            <g class="tick major" style="opacity: 1;" transform="translate(0,-144)">
                <line x2="-6" y2="0" style="fill: none; stroke: #000000;"/>
                <text x="-9" y="0" dy=".32em" style="text-anchor: end;">40%</text>
            </g>
            <g class="tick major" style="opacity: 1;" transform="translate(0,-176)">
                <line x2="-6" y2="0" style="fill: none; stroke: #000000;"/>
                <text x="-9" y="0" dy=".32em" style="text-anchor: end;">60%</text>
            </g>
            <g class="tick major" style="opacity: 1;" transform="translate(0,-208)">
                <line x2="-6" y2="0" style="fill: none; stroke: #000000;"/>
                <text x="-9" y="0" dy=".32em" style="text-anchor: end;">80%</text>
            </g>
            <g class="tick major" style="opacity: 1;" transform="translate(0,-240)">
                <line x2="-6" y2="0" style="fill: none; stroke: #000000;"/>
                <text x="-9" y="0" dy=".32em" style="text-anchor: end;">100%</text>
            </g>
            <path class="domain" d="M-6,-240H0V-80H-6" style="fill: none; stroke: #000000;"/>
            <text y="-240" dy="-0.5em" text-anchor="begin" transform="rotate(90 0,-240)"> UI capabilities</text>
        </g>
        <g class="axis" transform="rotate(229.0909090909091)">
            <g class="tick major" style="opacity: 1;" transform="translate(0,-80)">
                <line x2="-6" y2="0" style="fill: none; stroke: #000000;"/>
                <text x="-9" y="0" dy=".32em" style="text-anchor: end;">0%</text>
            </g>
            <g class="tick major" style="opacity: 1;" transform="translate(0,-112)">
                <line x2="-6" y2="0" style="fill: none; stroke: #000000;"/>
                <text x="-9" y="0" dy=".32em" style="text-anchor: end;">20%</text>
            </g>
            <g class="tick major" style="opacity: 1;" transform="translate(0,-144)">
                <line x2="-6" y2="0" style="fill: none; stroke: #000000;"/>
                <text x="-9" y="0" dy=".32em" style="text-anchor: end;">40%</text>
            </g>
            <g class="tick major" style="opacity: 1;" transform="translate(0,-176)">
                <line x2="-6" y2="0" style="fill: none; stroke: #000000;"/>
                <text x="-9" y="0" dy=".32em" style="text-anchor: end;">60%</text>
            </g>
            <g class="tick major" style="opacity: 1;" transform="translate(0,-208)">
                <line x2="-6" y2="0" style="fill: none; stroke: #000000;"/>
                <text x="-9" y="0" dy=".32em" style="text-anchor: end;">80%</text>
            </g>
            <g class="tick major" style="opacity: 1;" transform="translate(0,-240)">
                <line x2="-6" y2="0" style="fill: none; stroke: #000000;"/>
                <text x="-9" y="0" dy=".32em" style="text-anchor: end;">100%</text>
            </g>
            <path class="domain" d="M-6,-240H0V-80H-6" style="fill: none; stroke: #000000;"/>
            <text y="-240" dy="-0.5em" text-anchor="begin" transform="rotate(90 0,-240)"> Performance</text>
        </g>
        <g class="axis" transform="rotate(261.8181818181818)">
            <g class="tick major" style="opacity: 1;" transform="translate(0,-80)">
                <line x2="-6" y2="0" style="fill: none; stroke: #000000;"/>
                <text x="-9" y="0" dy=".32em" style="text-anchor: end;">0%</text>
            </g>
            <g class="tick major" style="opacity: 1;" transform="translate(0,-112)">
                <line x2="-6" y2="0" style="fill: none; stroke: #000000;"/>
                <text x="-9" y="0" dy=".32em" style="text-anchor: end;">20%</text>
            </g>
            <g class="tick major" style="opacity: 1;" transform="translate(0,-144)">
                <line x2="-6" y2="0" style="fill: none; stroke: #000000;"/>
                <text x="-9" y="0" dy=".32em" style="text-anchor: end;">40%</text>
            </g>
            <g class="tick major" style="opacity: 1;" transform="translate(0,-176)">
                <line x2="-6" y2="0" style="fill: none; stroke: #000000;"/>
                <text x="-9" y="0" dy=".32em" style="text-anchor: end;">60%</text>
            </g>
            <g class="tick major" style="opacity: 1;" transform="translate(0,-208)">
                <line x2="-6" y2="0" style="fill: none; stroke: #000000;"/>
                <text x="-9" y="0" dy=".32em" style="text-anchor: end;">80%</text>
            </g>
            <g class="tick major" style="opacity: 1;" transform="translate(0,-240)">
                <line x2="-6" y2="0" style="fill: none; stroke: #000000;"/>
                <text x="-9" y="0" dy=".32em" style="text-anchor: end;">100%</text>
            </g>
            <path class="domain" d="M-6,-240H0V-80H-6" style="fill: none; stroke: #000000;"/>
            <text y="-240" dy="-0.5em" text-anchor="begin" transform="rotate(90 0,-240)"> Skill reuse</text>
        </g>
        <g class="axis" transform="rotate(294.54545454545456)">
            <g class="tick major" style="opacity: 1;" transform="translate(0,-80)">
                <line x2="-6" y2="0" style="fill: none; stroke: #000000;"/>
                <text x="-9" y="0" dy=".32em" style="text-anchor: end;">0%</text>
            </g>
            <g class="tick major" style="opacity: 1;" transform="translate(0,-112)">
                <line x2="-6" y2="0" style="fill: none; stroke: #000000;"/>
                <text x="-9" y="0" dy=".32em" style="text-anchor: end;">20%</text>
            </g>
            <g class="tick major" style="opacity: 1;" transform="translate(0,-144)">
                <line x2="-6" y2="0" style="fill: none; stroke: #000000;"/>
                <text x="-9" y="0" dy=".32em" style="text-anchor: end;">40%</text>
            </g>
            <g class="tick major" style="opacity: 1;" transform="translate(0,-176)">
                <line x2="-6" y2="0" style="fill: none; stroke: #000000;"/>
                <text x="-9" y="0" dy=".32em" style="text-anchor: end;">60%</text>
            </g>
            <g class="tick major" style="opacity: 1;" transform="translate(0,-208)">
                <line x2="-6" y2="0" style="fill: none; stroke: #000000;"/>
                <text x="-9" y="0" dy=".32em" style="text-anchor: end;">80%</text>
            </g>
            <g class="tick major" style="opacity: 1;" transform="translate(0,-240)">
                <line x2="-6" y2="0" style="fill: none; stroke: #000000;"/>
                <text x="-9" y="0" dy=".32em" style="text-anchor: end;">100%</text>
            </g>
            <path class="domain" d="M-6,-240H0V-80H-6" style="fill: none; stroke: #000000;"/>
            <text y="-240" dy="-0.5em" text-anchor="begin" transform="rotate(90 0,-240)"> Tooling</text>
        </g>
        <g class="axis" transform="rotate(327.2727272727273)">
            <g class="tick major" style="opacity: 1;" transform="translate(0,-80)">
                <line x2="-6" y2="0" style="fill: none; stroke: #000000;"/>
                <text x="-9" y="0" dy=".32em" style="text-anchor: end;">0%</text>
            </g>
            <g class="tick major" style="opacity: 1;" transform="translate(0,-112)">
                <line x2="-6" y2="0" style="fill: none; stroke: #000000;"/>
                <text x="-9" y="0" dy=".32em" style="text-anchor: end;">20%</text>
            </g>
            <g class="tick major" style="opacity: 1;" transform="translate(0,-144)">
                <line x2="-6" y2="0" style="fill: none; stroke: #000000;"/>
                <text x="-9" y="0" dy=".32em" style="text-anchor: end;">40%</text>
            </g>
            <g class="tick major" style="opacity: 1;" transform="translate(0,-176)">
                <line x2="-6" y2="0" style="fill: none; stroke: #000000;"/>
                <text x="-9" y="0" dy=".32em" style="text-anchor: end;">60%</text>
            </g>
            <g class="tick major" style="opacity: 1;" transform="translate(0,-208)">
                <line x2="-6" y2="0" style="fill: none; stroke: #000000;"/>
                <text x="-9" y="0" dy=".32em" style="text-anchor: end;">80%</text>
            </g>
            <g class="tick major" style="opacity: 1;" transform="translate(0,-240)">
                <line x2="-6" y2="0" style="fill: none; stroke: #000000;"/>
                <text x="-9" y="0" dy=".32em" style="text-anchor: end;">100%</text>
            </g>
            <path class="domain" d="M-6,-240H0V-80H-6" style="fill: none; stroke: #000000;"/>
            <text y="-240" dy="-0.5em" text-anchor="begin" transform="rotate(90 0,-240)"> Testing</text>
        </g>
        <path class="layer" d="M4.898425415289509e-15,-80L55.6124770467526,-86.53470340114661L72.77055962836147,-33.23320104015091L148.93249343117267,21.413259825951563L141.0772845438581,122.24416292703425L67.6158136419431,230.27831366747938L-39.23520279596483,133.6228294774494L-149.36029987878075,129.42143657107462L-101.81699279764027,14.639073524143207L-170.51597532117663,-77.87203667728156L-60.55177155502692,-94.2203956770923Z" style="stroke: #1f77b4; fill: #1f77b4; stroke-width: 1.5pt; fill-opacity: 15%;"/>
        <path class="layer" d="M1.1560283980083242e-14,-188.8L80.32625009428287,-124.99008489392556L145.54111925672294,-66.46640208030182L122.76953307937585,17.651594020712093L100.76257924950455,87.31127193545697L22.53860454731437,76.75943788915978L-35.894981602052844,122.2470807822759L-85.45411587138469,74.0464129086613L-192.31042830016267,27.65006529844003L-111.39717267909576,-50.87338415226298L-95.15278387218515,-148.0606217782879Z" style="stroke: #ff7f0e; fill: #ff7f0e; stroke-width: 1.5pt; fill-opacity: 15%;"/>
        <path class="layer" d="M8.033417681074794e-15,-131.2L80.32625009428287,-124.99008489392556L145.54111925672294,-66.46640208030182L124.22655024182458,17.861081462650368L60.45996594834066,52.38885871562281L22.53860454731437,76.75943788915978L-37.56283833855411,127.92727918607372L-67.48541399153783,58.47644409837818L-101.81699279764027,14.639073524143207L-81.92509602960935,-37.413937731001866L-60.55177155502692,-94.2203956770923Z" style="stroke: #2ca02c; fill: #2ca02c; stroke-width: 1.5pt; fill-opacity: 15%;"/>
        <g class="legend" transform="translate(-250,-250)">
            <rect x="185" y="220" width="130" height="18" style="fill: #1f77b4;"/>
            <text x="250" y="229" dy=".4em" style="text-anchor: middle;">Android/iOS</text>
        </g>
        <g class="legend" transform="translate(-250,-230)">
            <rect x="185" y="220" width="130" height="18" style="fill: #ff7f0e;"/>
            <text x="250" y="229" dy=".4em" style="text-anchor: middle;">Cordova</text>
        </g>
        <g class="legend" transform="translate(-250,-210)">
            <rect x="185" y="220" width="130" height="18" style="fill: #2ca02c;"/>
            <text x="250" y="229" dy=".4em" style="text-anchor: middle;">Rhodes</text>
        </g>
    </g>
</svg>
