<?xml version="1.0" encoding="utf-8"?>
<!-- Generator: Adobe Illustrator 16.0.1, SVG Export Plug-In . SVG Version: 6.00 Build 0)  -->
<!DOCTYPE svg PUBLIC "-//W3C//DTD SVG 1.1//EN" "http://www.w3.org/Graphics/SVG/1.1/DTD/svg11.dtd">
<svg version="1.1" id="Layer_1" xmlns="http://www.w3.org/2000/svg" xmlns:xlink="http://www.w3.org/1999/xlink" x="0px" y="0px"
	 width="960px" height="400px" viewBox="0 0 960 400" enable-background="new 0 0 960 400" xml:space="preserve">
<g transform="translate(50,20)">
	<g transform="translate(0,330)">
		<g transform="translate(23,0)">
			<line fill="none" stroke="#000000" x1="-2.596" y1="-4.897" x2="-2.596" y2="1.103"/>
			<text transform="matrix(1 0 0 1 -18.1692 14.0437)" font-family="'Helvetica'" font-size="14">2007</text>
		</g>
		<g transform="translate(59,0)">
			<line fill="none" stroke="#000000" x1="-2.596" y1="-4.897" x2="-2.596" y2="1.103"/>
			<text transform="matrix(1 0 0 1 -11.9348 14.0437)" font-family="'Helvetica'" font-size="14">Q2</text>
		</g>
		<g transform="translate(95,0)">
			<line fill="none" stroke="#000000" x1="-2.596" y1="-4.897" x2="-2.596" y2="1.103"/>
			<text transform="matrix(1 0 0 1 -11.9348 14.0437)" font-family="'Helvetica'" font-size="14">Q3</text>
		</g>
		<g transform="translate(131,0)">
			<line fill="none" stroke="#000000" x1="-2.596" y1="-4.897" x2="-2.596" y2="1.103"/>
			<text transform="matrix(1 0 0 1 -11.9348 14.0437)" font-family="'Helvetica'" font-size="14">Q4</text>
		</g>
		<g transform="translate(167,0)">
			<line fill="none" stroke="#000000" x1="-2.596" y1="-4.897" x2="-2.596" y2="1.103"/>
			<text transform="matrix(1 0 0 1 -18.1692 14.0437)" font-family="'Helvetica'" font-size="14">2008</text>
		</g>
		<g transform="translate(203,0)">
			<line fill="none" stroke="#000000" x1="-2.596" y1="-4.897" x2="-2.596" y2="1.103"/>
			<text transform="matrix(1 0 0 1 -11.9348 14.0437)" font-family="'Helvetica'" font-size="14">Q2</text>
		</g>
		<g transform="translate(239,0)">
			<line fill="none" stroke="#000000" x1="-2.596" y1="-4.897" x2="-2.596" y2="1.103"/>
			<text transform="matrix(1 0 0 1 -11.9348 14.0437)" font-family="'Helvetica'" font-size="14">Q3</text>
		</g>
		<g transform="translate(275,0)">
			<line fill="none" stroke="#000000" x1="-2.596" y1="-4.897" x2="-2.596" y2="1.103"/>
			<text transform="matrix(1 0 0 1 -11.9348 14.0437)" font-family="'Helvetica'" font-size="14">Q4</text>
		</g>
		<g transform="translate(311,0)">
			<line fill="none" stroke="#000000" x1="-2.596" y1="-4.897" x2="-2.596" y2="1.103"/>
			<text transform="matrix(1 0 0 1 -18.1692 14.0437)" font-family="'Helvetica'" font-size="14">2009</text>
		</g>
		<g transform="translate(347,0)">
			<line fill="none" stroke="#000000" x1="-2.596" y1="-4.897" x2="-2.596" y2="1.103"/>
			<text transform="matrix(1 0 0 1 -11.9348 14.0437)" font-family="'Helvetica'" font-size="14">Q2</text>
		</g>
		<g transform="translate(383,0)">
			<line fill="none" stroke="#000000" x1="-2.596" y1="-4.897" x2="-2.596" y2="1.103"/>
			<text transform="matrix(1 0 0 1 -11.9348 14.0437)" font-family="'Helvetica'" font-size="14">Q3</text>
		</g>
		<g transform="translate(419,0)">
			<line fill="none" stroke="#000000" x1="-2.596" y1="-4.897" x2="-2.596" y2="1.103"/>
			<text transform="matrix(1 0 0 1 -11.9348 14.0437)" font-family="'Helvetica'" font-size="14">Q4</text>
		</g>
		<g transform="translate(455,0)">
			<line fill="none" stroke="#000000" x1="-2.596" y1="-4.897" x2="-2.596" y2="1.103"/>
			<text transform="matrix(1 0 0 1 -18.1697 14.0437)" font-family="'Helvetica'" font-size="14">2010</text>
		</g>
		<g transform="translate(491,0)">
			<line fill="none" stroke="#000000" x1="-2.596" y1="-4.897" x2="-2.596" y2="1.103"/>
			<text transform="matrix(1 0 0 1 -11.9353 14.0437)" font-family="'Helvetica'" font-size="14">Q2</text>
		</g>
		<g transform="translate(527,0)">
			<line fill="none" stroke="#000000" x1="-2.596" y1="-4.897" x2="-2.596" y2="1.103"/>
			<text transform="matrix(1 0 0 1 -11.9353 14.0437)" font-family="'Helvetica'" font-size="14">Q3</text>
		</g>
		<g transform="translate(563,0)">
			<line fill="none" stroke="#000000" x1="-2.596" y1="-4.897" x2="-2.596" y2="1.103"/>
			<text transform="matrix(1 0 0 1 -11.9353 14.0437)" font-family="'Helvetica'" font-size="14">Q4</text>
		</g>
		<g transform="translate(599,0)">
			<line fill="none" stroke="#000000" x1="-2.596" y1="-4.897" x2="-2.596" y2="1.103"/>
			<text transform="matrix(1 0 0 1 -17.6531 14.0437)" font-family="'Helvetica'" font-size="14">2011</text>
		</g>
		<g transform="translate(635,0)">
			<line fill="none" stroke="#000000" x1="-2.596" y1="-4.897" x2="-2.596" y2="1.103"/>
			<text transform="matrix(1 0 0 1 -11.9353 14.0437)" font-family="'Helvetica'" font-size="14">Q2</text>
		</g>
		<g transform="translate(671,0)">
			<line fill="none" stroke="#000000" x1="-2.596" y1="-4.897" x2="-2.596" y2="1.103"/>
			<text transform="matrix(1 0 0 1 -11.9353 14.0437)" font-family="'Helvetica'" font-size="14">Q3</text>
		</g>
		<g transform="translate(707,0)">
			<line fill="none" stroke="#000000" x1="-2.596" y1="-4.897" x2="-2.596" y2="1.103"/>
			<text transform="matrix(1 0 0 1 -11.9353 14.0437)" font-family="'Helvetica'" font-size="14">Q4</text>
		</g>
		<g transform="translate(743,0)">
			<line fill="none" stroke="#000000" x1="-2.596" y1="-4.897" x2="-2.596" y2="1.103"/>
			<text transform="matrix(1 0 0 1 -18.1697 14.0437)" font-family="'Helvetica'" font-size="14">2012</text>
		</g>
		<g transform="translate(779,0)">
			<line fill="none" stroke="#000000" x1="-2.596" y1="-4.897" x2="-2.596" y2="1.103"/>
			<text transform="matrix(1 0 0 1 -11.9353 14.0437)" font-family="'Helvetica'" font-size="14">Q2</text>
		</g>
		<g transform="translate(815,0)">
			<line fill="none" stroke="#000000" x1="-2.596" y1="-4.897" x2="-2.596" y2="1.103"/>
			<text transform="matrix(1 0 0 1 -11.9353 14.0437)" font-family="'Helvetica'" font-size="14">Q3</text>
		</g>
		<g transform="translate(851,0)">
			<line fill="none" stroke="#000000" x1="-2.596" y1="-4.897" x2="-2.596" y2="1.103"/>
			<text transform="matrix(1 0 0 1 -11.9353 14.0437)" font-family="'Helvetica'" font-size="14">Q4</text>
		</g>
		<g transform="translate(887,0)">
			<line fill="none" stroke="#000000" x1="-2.596" y1="-4.897" x2="-2.596" y2="1.103"/>
			<text transform="matrix(1 0 0 1 -18.1697 14.0437)" font-family="'Helvetica'" font-size="14">2013</text>
		</g>
		<path fill="none" stroke="#000000" d="M-2.596,1.103v-6h910v6"/>
	</g>
	<g>
		<g transform="translate(0,330)">
			<line fill="none" stroke="#000000" x1="-2.596" y1="-4.897" x2="-8.596" y2="-4.897"/>
			<text transform="matrix(1 0 0 1 -31.8313 -0.4163)" font-family="'Helvetica'" font-size="14">0%</text>
		</g>
		<g transform="translate(0,297)">
			<line fill="none" stroke="#000000" x1="-2.596" y1="-4.897" x2="-8.596" y2="-4.897"/>
			<text transform="matrix(1 0 0 1 -39.6174 -0.4163)" font-family="'Helvetica'" font-size="14">10%</text>
		</g>
		<g transform="translate(0,264)">
			<line fill="none" stroke="#000000" x1="-2.596" y1="-4.897" x2="-8.596" y2="-4.897"/>
			<text transform="matrix(1 0 0 1 -39.6174 -0.4163)" font-family="'Helvetica'" font-size="14">20%</text>
		</g>
		<g transform="translate(0,231)">
			<line fill="none" stroke="#000000" x1="-2.596" y1="-4.897" x2="-8.596" y2="-4.897"/>
			<text transform="matrix(1 0 0 1 -39.6174 -0.4163)" font-family="'Helvetica'" font-size="14">30%</text>
		</g>
		<g transform="translate(0,198)">
			<line fill="none" stroke="#000000" x1="-2.596" y1="-4.897" x2="-8.596" y2="-4.897"/>
			<text transform="matrix(1 0 0 1 -39.6174 -0.4163)" font-family="'Helvetica'" font-size="14">40%</text>
		</g>
		<g transform="translate(0,165)">
			<line fill="none" stroke="#000000" x1="-2.596" y1="-4.897" x2="-8.596" y2="-4.897"/>
			<text transform="matrix(1 0 0 1 -39.6174 -0.4163)" font-family="'Helvetica'" font-size="14">50%</text>
		</g>
		<g transform="translate(0,132)">
			<line fill="none" stroke="#000000" x1="-2.596" y1="-4.897" x2="-8.596" y2="-4.897"/>
			<text transform="matrix(1 0 0 1 -39.6174 -0.4163)" font-family="'Helvetica'" font-size="14">60%</text>
		</g>
		<g transform="translate(0,99)">
			<line fill="none" stroke="#000000" x1="-2.596" y1="-4.897" x2="-8.596" y2="-4.897"/>
			<text transform="matrix(1 0 0 1 -39.6174 -0.4163)" font-family="'Helvetica'" font-size="14">70%</text>
		</g>
		<g transform="translate(0,66)">
			<line fill="none" stroke="#000000" x1="-2.596" y1="-4.897" x2="-8.596" y2="-4.897"/>
			<text transform="matrix(1 0 0 1 -39.6174 -0.4163)" font-family="'Helvetica'" font-size="14">80%</text>
		</g>
		<g transform="translate(0,33)">
			<line fill="none" stroke="#000000" x1="-2.596" y1="-4.897" x2="-8.596" y2="-4.897"/>
			<text transform="matrix(1 0 0 1 -39.6174 -0.4163)" font-family="'Helvetica'" font-size="14">90%</text>
		</g>
		<g transform="translate(0,0)">
			<line fill="none" stroke="#000000" x1="-2.596" y1="-4.897" x2="-8.596" y2="-4.897"/>
			<text transform="matrix(1 0 0 1 -47.4036 -0.4163)" font-family="'Helvetica'" font-size="14">100%</text>
		</g>
		<path fill="none" stroke="#000000" d="M-8.596-4.897h6v330h-6"/>
	</g>
	<g transform="translate(7,0)">
		<polygon fill="#1F77B4" points="-2.596,325.103 29.404,325.103 29.404,325.103 		"/>
		<polygon fill="#AEC7E8" points="-2.596,325.103 29.404,325.103 29.404,325.103 		"/>
		<rect x="-2.596" y="115.103" fill="#FF7F0E" width="32" height="210"/>
		<rect x="-2.596" y="88.103" fill="#FFBB78" width="32" height="27"/>
		<rect x="-2.596" y="49.103" fill="#2CA02C" width="32" height="39"/>
		<polygon fill="#98DF8A" points="-2.596,49.103 29.404,49.103 29.404,49.103 		"/>
		<rect x="-2.596" y="-4.897" fill="#D62728" width="32" height="54"/>
	</g>
	<g transform="translate(43,0)">
		<polygon fill="#1F77B4" points="-2.596,325.103 29.404,325.103 29.404,325.103 		"/>
		<rect x="-2.596" y="322.103" fill="#AEC7E8" width="32" height="3"/>
		<rect x="-2.596" y="105.103" fill="#FF7F0E" width="32" height="217"/>
		<rect x="-2.596" y="76.103" fill="#FFBB78" width="32" height="29"/>
		<rect x="-2.596" y="38.103" fill="#2CA02C" width="32" height="38"/>
		<polygon fill="#98DF8A" points="-2.596,38.103 29.404,38.103 29.404,38.103 		"/>
		<rect x="-2.596" y="-4.897" fill="#D62728" width="32" height="43"/>
	</g>
	<g transform="translate(79,0)">
		<polygon fill="#1F77B4" points="-2.596,325.103 29.404,325.103 29.404,325.103 		"/>
		<rect x="-2.596" y="314.103" fill="#AEC7E8" width="32" height="11"/>
		<rect x="-2.596" y="106.103" fill="#FF7F0E" width="32" height="208"/>
		<rect x="-2.596" y="74.103" fill="#FFBB78" width="32" height="32"/>
		<rect x="-2.596" y="31.103" fill="#2CA02C" width="32" height="43"/>
		<polygon fill="#98DF8A" points="-2.596,31.103 29.404,31.103 29.404,31.103 		"/>
		<rect x="-2.596" y="-4.897" fill="#D62728" width="32" height="36"/>
	</g>
	<g transform="translate(115,0)">
		<polygon fill="#1F77B4" points="-2.596,325.103 29.404,325.103 29.404,325.103 		"/>
		<rect x="-2.596" y="308.103" fill="#AEC7E8" width="32" height="17"/>
		<rect x="-2.596" y="102.103" fill="#FF7F0E" width="32" height="206"/>
		<rect x="-2.596" y="66.103" fill="#FFBB78" width="32" height="36"/>
		<rect x="-2.596" y="27.103" fill="#2CA02C" width="32" height="39"/>
		<polygon fill="#98DF8A" points="-2.596,27.103 29.404,27.103 29.404,27.103 		"/>
		<rect x="-2.596" y="-4.897" fill="#D62728" width="32" height="32"/>
	</g>
	<g transform="translate(151,0)">
		<polygon fill="#1F77B4" points="-2.596,325.103 29.404,325.103 29.404,325.103 		"/>
		<rect x="-2.596" y="307.103" fill="#AEC7E8" width="32" height="18"/>
		<rect x="-2.596" y="120.103" fill="#FF7F0E" width="32" height="187"/>
		<rect x="-2.596" y="76.103" fill="#FFBB78" width="32" height="44"/>
		<rect x="-2.596" y="37.103" fill="#2CA02C" width="32" height="39"/>
		<polygon fill="#98DF8A" points="-2.596,37.103 29.404,37.103 29.404,37.103 		"/>
		<rect x="-2.596" y="-4.897" fill="#D62728" width="32" height="42"/>
	</g>
	<g transform="translate(187,0)">
		<polygon fill="#1F77B4" points="-2.596,325.103 29.404,325.103 29.404,325.103 		"/>
		<rect x="-2.596" y="316.103" fill="#AEC7E8" width="32" height="9"/>
		<rect x="-2.596" y="127.103" fill="#FF7F0E" width="32" height="189"/>
		<rect x="-2.596" y="70.103" fill="#FFBB78" width="32" height="57"/>
		<rect x="-2.596" y="30.103" fill="#2CA02C" width="32" height="40"/>
		<polygon fill="#98DF8A" points="-2.596,30.103 29.404,30.103 29.404,30.103 		"/>
		<rect x="-2.596" y="-4.897" fill="#D62728" width="32" height="35"/>
	</g>
	<g transform="translate(223,0)">
		<polygon fill="#1F77B4" points="-2.596,325.103 29.404,325.103 29.404,325.103 		"/>
		<rect x="-2.596" y="282.103" fill="#AEC7E8" width="32" height="43"/>
		<rect x="-2.596" y="118.103" fill="#FF7F0E" width="32" height="164"/>
		<rect x="-2.596" y="66.103" fill="#FFBB78" width="32" height="52"/>
		<rect x="-2.596" y="29.103" fill="#2CA02C" width="32" height="37"/>
		<polygon fill="#98DF8A" points="-2.596,29.103 29.404,29.103 29.404,29.103 		"/>
		<rect x="-2.596" y="-4.897" fill="#D62728" width="32" height="34"/>
	</g>
	<g transform="translate(259,0)">
		<polygon fill="#1F77B4" points="-2.596,325.103 29.404,325.103 29.404,325.103 		"/>
		<rect x="-2.596" y="290.103" fill="#AEC7E8" width="32" height="35"/>
		<rect x="-2.596" y="134.103" fill="#FF7F0E" width="32" height="156"/>
		<rect x="-2.596" y="70.103" fill="#FFBB78" width="32" height="64"/>
		<rect x="-2.596" y="29.103" fill="#2CA02C" width="32" height="41"/>
		<polygon fill="#98DF8A" points="-2.596,29.103 29.404,29.103 29.404,29.103 		"/>
		<rect x="-2.596" y="-4.897" fill="#D62728" width="32" height="34"/>
	</g>
	<g transform="translate(295,0)">
		<rect x="-2.596" y="320.103" fill="#1F77B4" width="32" height="5"/>
		<rect x="-2.596" y="285.103" fill="#AEC7E8" width="32" height="35"/>
		<rect x="-2.596" y="124.103" fill="#FF7F0E" width="32" height="161"/>
		<rect x="-2.596" y="56.103" fill="#FFBB78" width="32" height="68"/>
		<rect x="-2.596" y="22.103" fill="#2CA02C" width="32" height="34"/>
		<polygon fill="#98DF8A" points="-2.596,22.103 29.404,22.103 29.404,22.103 		"/>
		<rect x="-2.596" y="-4.897" fill="#D62728" width="32" height="27"/>
	</g>
	<g transform="translate(331,0)">
		<rect x="-2.596" y="319.103" fill="#1F77B4" width="32" height="6"/>
		<rect x="-2.596" y="276.103" fill="#AEC7E8" width="32" height="43"/>
		<rect x="-2.596" y="108.103" fill="#FF7F0E" width="32" height="168"/>
		<rect x="-2.596" y="45.103" fill="#FFBB78" width="32" height="63"/>
		<rect x="-2.596" y="14.103" fill="#2CA02C" width="32" height="31"/>
		<polygon fill="#98DF8A" points="-2.596,14.103 29.404,14.103 29.404,14.103 		"/>
		<rect x="-2.596" y="-4.897" fill="#D62728" width="32" height="19"/>
	</g>
	<g transform="translate(367,0)">
		<rect x="-2.596" y="314.103" fill="#1F77B4" width="32" height="11"/>
		<rect x="-2.596" y="257.103" fill="#AEC7E8" width="32" height="57"/>
		<rect x="-2.596" y="110.103" fill="#FF7F0E" width="32" height="147"/>
		<rect x="-2.596" y="42.103" fill="#FFBB78" width="32" height="68"/>
		<rect x="-2.596" y="15.103" fill="#2CA02C" width="32" height="27"/>
		<polygon fill="#98DF8A" points="-2.596,15.103 29.404,15.103 29.404,15.103 		"/>
		<rect x="-2.596" y="-4.897" fill="#D62728" width="32" height="20"/>
	</g>
	<g transform="translate(403,0)">
		<rect x="-2.596" y="300.103" fill="#1F77B4" width="32" height="25"/>
		<rect x="-2.596" y="247.103" fill="#AEC7E8" width="32" height="53"/>
		<rect x="-2.596" y="101.103" fill="#FF7F0E" width="32" height="146"/>
		<rect x="-2.596" y="36.103" fill="#FFBB78" width="32" height="65"/>
		<rect x="-2.596" y="10.103" fill="#2CA02C" width="32" height="26"/>
		<polygon fill="#98DF8A" points="-2.596,10.103 29.404,10.103 29.404,10.103 		"/>
		<rect x="-2.596" y="-4.897" fill="#D62728" width="32" height="15"/>
	</g>
	<g transform="translate(439,0)">
		<rect x="-2.596" y="293.103" fill="#1F77B4" width="32" height="32"/>
		<rect x="-2.596" y="243.103" fill="#AEC7E8" width="32" height="50"/>
		<rect x="-2.596" y="97.103" fill="#FF7F0E" width="32" height="146"/>
		<rect x="-2.596" y="32.103" fill="#FFBB78" width="32" height="65"/>
		<rect x="-2.596" y="10.103" fill="#2CA02C" width="32" height="22"/>
		<polygon fill="#98DF8A" points="-2.596,10.103 29.404,10.103 29.404,10.103 		"/>
		<rect x="-2.596" y="-4.897" fill="#D62728" width="32" height="15"/>
	</g>
	<g transform="translate(475,0)">
		<rect x="-2.596" y="268.103" fill="#1F77B4" width="32" height="57"/>
		<rect x="-2.596" y="222.103" fill="#AEC7E8" width="32" height="46"/>
		<rect x="-2.596" y="87.103" fill="#FF7F0E" width="32" height="135"/>
		<rect x="-2.596" y="25.103" fill="#FFBB78" width="32" height="62"/>
		<rect x="-2.596" y="9.103" fill="#2CA02C" width="32" height="16"/>
		<rect x="-2.596" y="6.103" fill="#98DF8A" width="32" height="3"/>
		<rect x="-2.596" y="-4.897" fill="#D62728" width="32" height="11"/>
	</g>
	<g transform="translate(511,0)">
		<rect x="-2.596" y="241.103" fill="#1F77B4" width="32" height="84"/>
		<rect x="-2.596" y="187.103" fill="#AEC7E8" width="32" height="54"/>
		<rect x="-2.596" y="67.103" fill="#FF7F0E" width="32" height="120"/>
		<rect x="-2.596" y="16.103" fill="#FFBB78" width="32" height="51"/>
		<rect x="-2.596" y="7.103" fill="#2CA02C" width="32" height="9"/>
		<rect x="-2.596" y="3.103" fill="#98DF8A" width="32" height="4"/>
		<rect x="-2.596" y="-4.897" fill="#D62728" width="32" height="8"/>
	</g>
	<g transform="translate(547,0)">
		<rect x="-2.596" y="225.103" fill="#1F77B4" width="32" height="100"/>
		<rect x="-2.596" y="172.103" fill="#AEC7E8" width="32" height="53"/>
		<rect x="-2.596" y="66.103" fill="#FF7F0E" width="32" height="106"/>
		<rect x="-2.596" y="18.103" fill="#FFBB78" width="32" height="48"/>
		<rect x="-2.596" y="6.103" fill="#2CA02C" width="32" height="12"/>
		<rect x="-2.596" y="0.103" fill="#98DF8A" width="32" height="6"/>
		<rect x="-2.596" y="-4.897" fill="#D62728" width="32" height="5"/>
	</g>
	<g transform="translate(583,0)">
		<rect x="-2.596" y="205.103" fill="#1F77B4" width="32" height="120"/>
		<rect x="-2.596" y="149.103" fill="#AEC7E8" width="32" height="56"/>
		<rect x="-2.596" y="58.103" fill="#FF7F0E" width="32" height="91"/>
		<rect x="-2.596" y="15.103" fill="#FFBB78" width="32" height="43"/>
		<rect x="-2.596" y="6.103" fill="#2CA02C" width="32" height="9"/>
		<rect x="-2.596" y="0.103" fill="#98DF8A" width="32" height="6"/>
		<rect x="-2.596" y="-4.897" fill="#D62728" width="32" height="5"/>
	</g>
	<g transform="translate(619,0)">
		<rect x="-2.596" y="182.103" fill="#1F77B4" width="32" height="143"/>
		<rect x="-2.596" y="122.103" fill="#AEC7E8" width="32" height="60"/>
		<rect x="-2.596" y="49.103" fill="#FF7F0E" width="32" height="73"/>
		<rect x="-2.596" y="10.103" fill="#FFBB78" width="32" height="39"/>
		<rect x="-2.596" y="5.103" fill="#2CA02C" width="32" height="5"/>
		<rect x="-2.596" y="-1.897" fill="#98DF8A" width="32" height="7"/>
		<rect x="-2.596" y="-4.897" fill="#D62728" width="32" height="3"/>
	</g>
	<g transform="translate(655,0)">
		<rect x="-2.596" y="152.103" fill="#1F77B4" width="32" height="173"/>
		<rect x="-2.596" y="102.103" fill="#AEC7E8" width="32" height="50"/>
		<rect x="-2.596" y="46.103" fill="#FF7F0E" width="32" height="56"/>
		<rect x="-2.596" y="10.103" fill="#FFBB78" width="32" height="36"/>
		<rect x="-2.596" y="5.103" fill="#2CA02C" width="32" height="5"/>
		<rect x="-2.596" y="-1.897" fill="#98DF8A" width="32" height="7"/>
		<rect x="-2.596" y="-4.897" fill="#D62728" width="32" height="3"/>
	</g>
	<g transform="translate(691,0)">
		<rect x="-2.596" y="157.103" fill="#1F77B4" width="32" height="168"/>
		<rect x="-2.596" y="78.103" fill="#AEC7E8" width="32" height="79"/>
		<rect x="-2.596" y="40.103" fill="#FF7F0E" width="32" height="38"/>
		<rect x="-2.596" y="11.103" fill="#FFBB78" width="32" height="29"/>
		<rect x="-2.596" y="4.103" fill="#2CA02C" width="32" height="7"/>
		<rect x="-2.596" y="-1.897" fill="#98DF8A" width="32" height="6"/>
		<rect x="-2.596" y="-4.897" fill="#D62728" width="32" height="3"/>
	</g>
	<g transform="translate(727,0)">
		<rect x="-2.596" y="140.103" fill="#1F77B4" width="32" height="185"/>
		<rect x="-2.596" y="64.103" fill="#AEC7E8" width="32" height="76"/>
		<rect x="-2.596" y="36.103" fill="#FF7F0E" width="32" height="28"/>
		<rect x="-2.596" y="13.103" fill="#FFBB78" width="32" height="23"/>
		<rect x="-2.596" y="7.103" fill="#2CA02C" width="32" height="6"/>
		<rect x="-2.596" y="-1.897" fill="#98DF8A" width="32" height="9"/>
		<rect x="-2.596" y="-4.897" fill="#D62728" width="32" height="3"/>
	</g>
	<g transform="translate(763,0)">
		<rect x="-2.596" y="113.103" fill="#1F77B4" width="32" height="212"/>
		<rect x="-2.596" y="51.103" fill="#AEC7E8" width="32" height="62"/>
		<rect x="-2.596" y="32.103" fill="#FF7F0E" width="32" height="19"/>
		<rect x="-2.596" y="15.103" fill="#FFBB78" width="32" height="17"/>
		<rect x="-2.596" y="6.103" fill="#2CA02C" width="32" height="9"/>
		<rect x="-2.596" y="-2.897" fill="#98DF8A" width="32" height="9"/>
		<rect x="-2.596" y="-4.897" fill="#D62728" width="32" height="2"/>
	</g>
	<g transform="translate(799,0)">
		<rect x="-2.596" y="86.103" fill="#1F77B4" width="32" height="239"/>
		<rect x="-2.596" y="40.103" fill="#AEC7E8" width="32" height="46"/>
		<rect x="-2.596" y="32.103" fill="#FF7F0E" width="32" height="8"/>
		<rect x="-2.596" y="14.103" fill="#FFBB78" width="32" height="18"/>
		<rect x="-2.596" y="6.103" fill="#2CA02C" width="32" height="8"/>
		<rect x="-2.596" y="-3.897" fill="#98DF8A" width="32" height="10"/>
		<rect x="-2.596" y="-4.897" fill="#D62728" width="32" height="1"/>
	</g>
	<g transform="translate(835,0)">
		<rect x="-2.596" y="95.103" fill="#1F77B4" width="32" height="230"/>
		<rect x="-2.596" y="26.103" fill="#AEC7E8" width="32" height="69"/>
		<rect x="-2.596" y="22.103" fill="#FF7F0E" width="32" height="4"/>
		<rect x="-2.596" y="10.103" fill="#FFBB78" width="32" height="12"/>
		<rect x="-2.596" y="0.103" fill="#2CA02C" width="32" height="10"/>
		<rect x="-2.596" y="-3.897" fill="#98DF8A" width="32" height="4"/>
		<rect x="-2.596" y="-4.897" fill="#D62728" width="32" height="1"/>
	</g>
	<g transform="translate(871,0)">
		<rect x="-2.596" y="80.103" fill="#1F77B4" width="32" height="245"/>
		<rect x="-2.596" y="19.103" fill="#AEC7E8" width="32" height="61"/>
		<rect x="-2.596" y="17.103" fill="#FF7F0E" width="32" height="2"/>
		<rect x="-2.596" y="8.103" fill="#FFBB78" width="32" height="9"/>
		<rect x="-2.596" y="-1.897" fill="#2CA02C" width="32" height="10"/>
		<rect x="-2.596" y="-3.897" fill="#98DF8A" width="32" height="2"/>
		<rect x="-2.596" y="-4.897" fill="#D62728" width="32" height="1"/>
	</g>
	<g transform="translate(0, 0)">
		<rect x="-1.596" y="351.103" fill="#1F77B4" width="128" height="18"/>
		<text transform="matrix(1 0 0 1 38.2756 365.7039)" font-family="'Helvetica'" font-size="14">Android</text>
	</g>
	<g transform="translate(130, 0)">
		<rect x="-1.596" y="351.103" fill="#AEC7E8" width="128" height="18"/>
		<text transform="matrix(1 0 0 1 50.7341 365.7039)" font-family="'Helvetica'" font-size="14">iOS</text>
	</g>
	<g transform="translate(260, 0)">
		<rect x="-1.596" y="351.103" fill="#FF7F0E" width="128" height="18"/>
		<text transform="matrix(1 0 0 1 35.1687 365.7039)" font-family="'Helvetica'" font-size="14">Symbian</text>
	</g>
	<g transform="translate(390, 0)">
		<rect x="-1.596" y="351.103" fill="#FFBB78" width="128" height="18"/>
		<text transform="matrix(1 0 0 1 28.5618 365.7039)" font-family="'Helvetica'" font-size="14">BlackBerry</text>
	</g>
	<g transform="translate(520, 0)">
		<rect x="-1.596" y="351.103" fill="#2CA02C" width="128" height="18"/>
		<text transform="matrix(1 0 0 1 34.01 365.7039)" font-family="'Helvetica'" font-size="14">Microsoft</text>
	</g>
	<g transform="translate(650, 0)">
		<rect x="-1.596" y="351.103" fill="#98DF8A" width="128" height="18"/>
		<text transform="matrix(1 0 0 1 46.0549 365.7039)" font-family="'Helvetica'" font-size="14">Bada</text>
	</g>
	<g transform="translate(780, 0)">
		<rect x="-1.596" y="351.103" fill="#D62728" width="128" height="18"/>
		<text transform="matrix(1 0 0 1 41.3967 365.7039)" font-family="'Helvetica'" font-size="14">Others</text>
	</g>
</g>
</svg>
