<?xml version="1.0"?>
<svg width="960" height="500">
    <g transform="translate(80,20)" style="font-style: normal; font-variant: normal; font-weight: normal; font-size: 14px; line-height: normal; font-family: sans-serif;">
        <g class="x axis" transform="translate(0,430)">
            <g class="tick major" style="opacity: 1;" transform="translate(16.875,0)">
                <line y2="6" x2="0" style="fill: none; stroke: #000000; shape-rendering: crispedges;"/>
                <text y="9" x="0" dy=".71em" style="text-anchor: middle;">2007</text>
            </g>
            <g class="tick major" style="opacity: 1;" transform="translate(50.625,0)">
                <line y2="6" x2="0" style="fill: none; stroke: #000000; shape-rendering: crispedges;"/>
                <text y="9" x="0" dy=".71em" style="text-anchor: middle;">Q2</text>
            </g>
            <g class="tick major" style="opacity: 1;" transform="translate(84.375,0)">
                <line y2="6" x2="0" style="fill: none; stroke: #000000; shape-rendering: crispedges;"/>
                <text y="9" x="0" dy=".71em" style="text-anchor: middle;">Q3</text>
            </g>
            <g class="tick major" style="opacity: 1;" transform="translate(118.125,0)">
                <line y2="6" x2="0" style="fill: none; stroke: #000000; shape-rendering: crispedges;"/>
                <text y="9" x="0" dy=".71em" style="text-anchor: middle;">Q4</text>
            </g>
            <g class="tick major" style="opacity: 1;" transform="translate(151.875,0)">
                <line y2="6" x2="0" style="fill: none; stroke: #000000; shape-rendering: crispedges;"/>
                <text y="9" x="0" dy=".71em" style="text-anchor: middle;">2008</text>
            </g>
            <g class="tick major" style="opacity: 1;" transform="translate(185.625,0)">
                <line y2="6" x2="0" style="fill: none; stroke: #000000; shape-rendering: crispedges;"/>
                <text y="9" x="0" dy=".71em" style="text-anchor: middle;">Q2</text>
            </g>
            <g class="tick major" style="opacity: 1;" transform="translate(219.375,0)">
                <line y2="6" x2="0" style="fill: none; stroke: #000000; shape-rendering: crispedges;"/>
                <text y="9" x="0" dy=".71em" style="text-anchor: middle;">Q3</text>
            </g>
            <g class="tick major" style="opacity: 1;" transform="translate(253.125,0)">
                <line y2="6" x2="0" style="fill: none; stroke: #000000; shape-rendering: crispedges;"/>
                <text y="9" x="0" dy=".71em" style="text-anchor: middle;">Q4</text>
            </g>
            <g class="tick major" style="opacity: 1;" transform="translate(286.875,0)">
                <line y2="6" x2="0" style="fill: none; stroke: #000000; shape-rendering: crispedges;"/>
                <text y="9" x="0" dy=".71em" style="text-anchor: middle;">2009</text>
            </g>
            <g class="tick major" style="opacity: 1;" transform="translate(320.625,0)">
                <line y2="6" x2="0" style="fill: none; stroke: #000000; shape-rendering: crispedges;"/>
                <text y="9" x="0" dy=".71em" style="text-anchor: middle;">Q2</text>
            </g>
            <g class="tick major" style="opacity: 1;" transform="translate(354.375,0)">
                <line y2="6" x2="0" style="fill: none; stroke: #000000; shape-rendering: crispedges;"/>
                <text y="9" x="0" dy=".71em" style="text-anchor: middle;">Q3</text>
            </g>
            <g class="tick major" style="opacity: 1;" transform="translate(388.125,0)">
                <line y2="6" x2="0" style="fill: none; stroke: #000000; shape-rendering: crispedges;"/>
                <text y="9" x="0" dy=".71em" style="text-anchor: middle;">Q4</text>
            </g>
            <g class="tick major" style="opacity: 1;" transform="translate(421.875,0)">
                <line y2="6" x2="0" style="fill: none; stroke: #000000; shape-rendering: crispedges;"/>
                <text y="9" x="0" dy=".71em" style="text-anchor: middle;">2010</text>
            </g>
            <g class="tick major" style="opacity: 1;" transform="translate(455.625,0)">
                <line y2="6" x2="0" style="fill: none; stroke: #000000; shape-rendering: crispedges;"/>
                <text y="9" x="0" dy=".71em" style="text-anchor: middle;">Q2</text>
            </g>
            <g class="tick major" style="opacity: 1;" transform="translate(489.375,0)">
                <line y2="6" x2="0" style="fill: none; stroke: #000000; shape-rendering: crispedges;"/>
                <text y="9" x="0" dy=".71em" style="text-anchor: middle;">Q3</text>
            </g>
            <g class="tick major" style="opacity: 1;" transform="translate(523.125,0)">
                <line y2="6" x2="0" style="fill: none; stroke: #000000; shape-rendering: crispedges;"/>
                <text y="9" x="0" dy=".71em" style="text-anchor: middle;">Q4</text>
            </g>
            <g class="tick major" style="opacity: 1;" transform="translate(556.875,0)">
                <line y2="6" x2="0" style="fill: none; stroke: #000000; shape-rendering: crispedges;"/>
                <text y="9" x="0" dy=".71em" style="text-anchor: middle;">2011</text>
            </g>
            <g class="tick major" style="opacity: 1;" transform="translate(590.625,0)">
                <line y2="6" x2="0" style="fill: none; stroke: #000000; shape-rendering: crispedges;"/>
                <text y="9" x="0" dy=".71em" style="text-anchor: middle;">Q2</text>
            </g>
            <g class="tick major" style="opacity: 1;" transform="translate(624.375,0)">
                <line y2="6" x2="0" style="fill: none; stroke: #000000; shape-rendering: crispedges;"/>
                <text y="9" x="0" dy=".71em" style="text-anchor: middle;">Q3</text>
            </g>
            <g class="tick major" style="opacity: 1;" transform="translate(658.125,0)">
                <line y2="6" x2="0" style="fill: none; stroke: #000000; shape-rendering: crispedges;"/>
                <text y="9" x="0" dy=".71em" style="text-anchor: middle;">Q4</text>
            </g>
            <g class="tick major" style="opacity: 1;" transform="translate(691.875,0)">
                <line y2="6" x2="0" style="fill: none; stroke: #000000; shape-rendering: crispedges;"/>
                <text y="9" x="0" dy=".71em" style="text-anchor: middle;">2012</text>
            </g>
            <g class="tick major" style="opacity: 1;" transform="translate(725.625,0)">
                <line y2="6" x2="0" style="fill: none; stroke: #000000; shape-rendering: crispedges;"/>
                <text y="9" x="0" dy=".71em" style="text-anchor: middle;">Q2</text>
            </g>
            <g class="tick major" style="opacity: 1;" transform="translate(759.375,0)">
                <line y2="6" x2="0" style="fill: none; stroke: #000000; shape-rendering: crispedges;"/>
                <text y="9" x="0" dy=".71em" style="text-anchor: middle;">Q3</text>
            </g>
            <g class="tick major" style="opacity: 1;" transform="translate(793.125,0)">
                <line y2="6" x2="0" style="fill: none; stroke: #000000; shape-rendering: crispedges;"/>
                <text y="9" x="0" dy=".71em" style="text-anchor: middle;">Q4</text>
            </g>
            <path class="domain" d="M0,6V0H810V6" style="fill: none; stroke: #000000; shape-rendering: crispedges;"/>
        </g>
        <g class="y axis">
            <g class="tick major" style="opacity: 1;" transform="translate(0,430)">
                <line x2="-6" y2="0" style="fill: none; stroke: #000000; shape-rendering: crispedges;"/>
                <text x="-9" y="0" dy=".32em" style="text-anchor: end;">0</text>
            </g>
            <g class="tick major" style="opacity: 1;" transform="translate(0,371)">
                <line x2="-6" y2="0" style="fill: none; stroke: #000000; shape-rendering: crispedges;"/>
                <text x="-9" y="0" dy=".32em" style="text-anchor: end;">20,000</text>
            </g>
            <g class="tick major" style="opacity: 1;" transform="translate(0,311)">
                <line x2="-6" y2="0" style="fill: none; stroke: #000000; shape-rendering: crispedges;"/>
                <text x="-9" y="0" dy=".32em" style="text-anchor: end;">40,000</text>
            </g>
            <g class="tick major" style="opacity: 1;" transform="translate(0,252)">
                <line x2="-6" y2="0" style="fill: none; stroke: #000000; shape-rendering: crispedges;"/>
                <text x="-9" y="0" dy=".32em" style="text-anchor: end;">60,000</text>
            </g>
            <g class="tick major" style="opacity: 1;" transform="translate(0,192)">
                <line x2="-6" y2="0" style="fill: none; stroke: #000000; shape-rendering: crispedges;"/>
                <text x="-9" y="0" dy=".32em" style="text-anchor: end;">80,000</text>
            </g>
            <g class="tick major" style="opacity: 1;" transform="translate(0,133)">
                <line x2="-6" y2="0" style="fill: none; stroke: #000000; shape-rendering: crispedges;"/>
                <text x="-9" y="0" dy=".32em" style="text-anchor: end;">100,000</text>
            </g>
            <g class="tick major" style="opacity: 1;" transform="translate(0,73)">
                <line x2="-6" y2="0" style="fill: none; stroke: #000000; shape-rendering: crispedges;"/>
                <text x="-9" y="0" dy=".32em" style="text-anchor: end;">120,000</text>
            </g>
            <g class="tick major" style="opacity: 1;" transform="translate(0,14)">
                <line x2="-6" y2="0" style="fill: none; stroke: #000000; shape-rendering: crispedges;"/>
                <text x="-9" y="0" dy=".32em" style="text-anchor: end;">140,000</text>
            </g>
            <path class="domain" d="M-6,0H0V430H-6" style="fill: none; stroke: #000000; shape-rendering: crispedges;"/>
            <text transform="rotate(-90)" y="-80" x="-215" dy=".71em" style="text-anchor: middle;">Sales (thousand units)</text>
        </g>
        <g class="y2 axis" transform="translate(810, 0)">
            <g class="tick major" style="opacity: 1;" transform="translate(0,430)">
                <line x2="6" y2="0" style="fill: none; stroke: #000000; shape-rendering: crispedges;"/>
                <text x="9" y="0" dy=".32em" style="text-anchor: start;">0%</text>
            </g>
            <g class="tick major" style="opacity: 1;" transform="translate(0,387)">
                <line x2="6" y2="0" style="fill: none; stroke: #000000; shape-rendering: crispedges;"/>
                <text x="9" y="0" dy=".32em" style="text-anchor: start;">10%</text>
            </g>
            <g class="tick major" style="opacity: 1;" transform="translate(0,344)">
                <line x2="6" y2="0" style="fill: none; stroke: #000000; shape-rendering: crispedges;"/>
                <text x="9" y="0" dy=".32em" style="text-anchor: start;">20%</text>
            </g>
            <g class="tick major" style="opacity: 1;" transform="translate(0,301)">
                <line x2="6" y2="0" style="fill: none; stroke: #000000; shape-rendering: crispedges;"/>
                <text x="9" y="0" dy=".32em" style="text-anchor: start;">30%</text>
            </g>
            <g class="tick major" style="opacity: 1;" transform="translate(0,258)">
                <line x2="6" y2="0" style="fill: none; stroke: #000000; shape-rendering: crispedges;"/>
                <text x="9" y="0" dy=".32em" style="text-anchor: start;">40%</text>
            </g>
            <g class="tick major" style="opacity: 1;" transform="translate(0,215)">
                <line x2="6" y2="0" style="fill: none; stroke: #000000; shape-rendering: crispedges;"/>
                <text x="9" y="0" dy=".32em" style="text-anchor: start;">50%</text>
            </g>
            <g class="tick major" style="opacity: 1;" transform="translate(0,172)">
                <line x2="6" y2="0" style="fill: none; stroke: #000000; shape-rendering: crispedges;"/>
                <text x="9" y="0" dy=".32em" style="text-anchor: start;">60%</text>
            </g>
            <g class="tick major" style="opacity: 1;" transform="translate(0,129)">
                <line x2="6" y2="0" style="fill: none; stroke: #000000; shape-rendering: crispedges;"/>
                <text x="9" y="0" dy=".32em" style="text-anchor: start;">70%</text>
            </g>
            <g class="tick major" style="opacity: 1;" transform="translate(0,86)">
                <line x2="6" y2="0" style="fill: none; stroke: #000000; shape-rendering: crispedges;"/>
                <text x="9" y="0" dy=".32em" style="text-anchor: start;">80%</text>
            </g>
            <g class="tick major" style="opacity: 1;" transform="translate(0,43)">
                <line x2="6" y2="0" style="fill: none; stroke: #000000; shape-rendering: crispedges;"/>
                <text x="9" y="0" dy=".32em" style="text-anchor: start;">90%</text>
            </g>
            <g class="tick major" style="opacity: 1;" transform="translate(0,0)">
                <line x2="6" y2="0" style="fill: none; stroke: #000000; shape-rendering: crispedges;"/>
                <text x="9" y="0" dy=".32em" style="text-anchor: start;">100%</text>
            </g>
            <path class="domain" d="M6,0H0V430H6" style="fill: none; stroke: #000000; shape-rendering: crispedges;"/>
            <text transform="rotate(-90)" y="70" x="-215" dy="-1em" style="text-anchor: middle;">Smartphone penetration</text>
        </g>
        <rect width="24" y="389" height="41" transform="translate(4.875,0)" style="fill: #cccccc;"/>
        <rect width="24" y="386" height="44" transform="translate(38.625,0)" style="fill: #cccccc;"/>
        <rect width="24" y="382" height="48" transform="translate(72.375,0)" style="fill: #cccccc;"/>
        <rect width="24" y="382" height="48" transform="translate(106.125,0)" style="fill: #cccccc;"/>
        <rect width="24" y="383" height="47" transform="translate(139.875,0)" style="fill: #cccccc;"/>
        <rect width="24" y="385" height="45" transform="translate(173.625,0)" style="fill: #cccccc;"/>
        <rect width="24" y="379" height="51" transform="translate(207.375,0)" style="fill: #cccccc;"/>
        <rect width="24" y="378" height="52" transform="translate(241.125,0)" style="fill: #cccccc;"/>
        <rect width="24" y="372" height="58" transform="translate(274.875,0)" style="fill: #cccccc;"/>
        <rect width="24" y="368" height="62" transform="translate(308.625,0)" style="fill: #cccccc;"/>
        <rect width="24" y="373" height="57" transform="translate(342.375,0)" style="fill: #cccccc;"/>
        <rect width="24" y="363" height="67" transform="translate(376.125,0)" style="fill: #cccccc;"/>
        <rect width="24" y="365" height="65" transform="translate(409.875,0)" style="fill: #cccccc;"/>
        <rect width="24" y="357" height="73" transform="translate(443.625,0)" style="fill: #cccccc;"/>
        <rect width="24" y="346" height="84" transform="translate(477.375,0)" style="fill: #cccccc;"/>
        <rect width="24" y="334" height="96" transform="translate(511.125,0)" style="fill: #cccccc;"/>
        <rect width="24" y="330" height="100" transform="translate(544.875,0)" style="fill: #cccccc;"/>
        <rect width="24" y="322" height="108" transform="translate(578.625,0)" style="fill: #cccccc;"/>
        <rect width="24" y="318" height="112" transform="translate(612.375,0)" style="fill: #cccccc;"/>
        <rect width="24" y="296" height="134" transform="translate(646.125,0)" style="fill: #cccccc;"/>
        <rect width="24" y="282" height="148" transform="translate(679.875,0)" style="fill: #cccccc;"/>
        <rect width="24" y="272" height="158" transform="translate(713.625,0)" style="fill: #cccccc;"/>
        <rect width="24" y="260" height="170" transform="translate(747.375,0)" style="fill: #cccccc;"/>
        <rect width="24" y="241" height="189" transform="translate(781.125,0)" style="fill: #cccccc;"/>
        <g class="sale">
            <path d="M16.875,430C16.875,429.99999999999994,16.875,429.99999999999994,22.5,429.9999999999999C28.125,429.99999999999994,39.375,429.99999999999994,50.625,429.9999999999999C61.875,429.99999999999994,73.125,429.99999999999994,84.375,429.9999999999999C95.625,429.99999999999994,106.875,429.99999999999994,118.125,429.9999999999999C129.375,429.99999999999994,140.625,429.99999999999994,151.875,429.9999999999999C163.125,429.99999999999994,174.375,429.99999999999994,185.625,429.9999999999999C196.875,429.99999999999994,208.125,429.99999999999994,219.375,429.9999999999999C230.625,429.99999999999994,241.875,429.99999999999994,253.125,429.6666666666666C264.375,429.33333333333326,275.625,428.66666666666663,286.875,428.3333333333333C298.125,428,309.375,428,320.625,427.66666666666663C331.875,427.3333333333333,343.125,426.66666666666663,354.375,425C365.625,423.3333333333333,376.875,420.66666666666663,388.125,418.66666666666663C399.375,416.66666666666663,410.625,415.3333333333333,421.875,411.99999999999994C433.125,408.66666666666663,444.375,403.3333333333333,455.625,395.8333333333333C466.875,388.3333333333333,478.125,378.66666666666663,489.375,368.66666666666663C500.625,358.66666666666663,511.875,348.3333333333333,523.125,340.5C534.375,332.66666666666663,545.625,327.3333333333333,556.875,319.5C568.125,311.66666666666663,579.375,301.3333333333333,590.625,289.3333333333333C601.875,277.3333333333333,613.125,263.66666666666663,624.375,249.16666666666666C635.625,234.66666666666666,646.875,219.33333333333331,658.125,209.16666666666666C669.375,199,680.625,194,691.875,182.83333333333334C703.125,171.66666666666666,714.375,154.33333333333331,725.625,133.83333333333331C736.875,113.33333333333333,748.125,89.66666666666666,759.375,66.83333333333333C770.625,44,781.875,22,787.5,11C793.125,0,793.125,0,793.125,0" style="stroke: #1f77b4; fill: none; stroke-width: 2pt;"/>
        </g>
        <g class="sale">
            <path d="M16.875,430C16.875,429.99999999999994,16.875,429.99999999999994,22.5,429.83333333333326C28.125,429.66666666666663,39.375,429.3333333333333,50.625,428.83333333333326C61.875,428.3333333333333,73.125,427.66666666666663,84.375,426.83333333333326C95.625,425.99999999999994,106.875,424.99999999999994,118.125,424.6666666666666C129.375,424.33333333333326,140.625,424.66666666666663,151.875,425.16666666666663C163.125,425.66666666666663,174.375,426.33333333333326,185.625,424.83333333333326C196.875,423.33333333333326,208.125,419.66666666666663,219.375,418.16666666666663C230.625,416.66666666666663,241.875,417.33333333333326,253.125,417.83333333333326C264.375,418.33333333333326,275.625,418.66666666666663,286.875,418C298.125,417.3333333333333,309.375,415.66666666666663,320.625,414C331.875,412.3333333333333,343.125,410.66666666666663,354.375,408.99999999999994C365.625,407.33333333333326,376.875,405.66666666666663,388.125,405C399.375,404.3333333333333,410.625,404.66666666666663,421.875,404.66666666666663C433.125,404.66666666666663,444.375,404.3333333333333,455.625,401.8333333333333C466.875,399.3333333333333,478.125,394.66666666666663,489.375,391C500.625,387.3333333333333,511.875,384.66666666666663,523.125,382.99999999999994C534.375,381.3333333333333,545.625,380.66666666666663,556.875,379C568.125,377.3333333333333,579.375,374.66666666666663,590.625,374.5C601.875,374.3333333333333,613.125,376.66666666666663,624.375,368.8333333333333C635.625,361,646.875,343,658.125,335.16666666666663C669.375,327.3333333333333,680.625,329.66666666666663,691.875,332.8333333333333C703.125,336,714.375,340,725.625,344.66666666666663C736.875,349.3333333333333,748.125,354.66666666666663,759.375,347.5C770.625,340.3333333333333,781.875,320.66666666666663,787.5,310.8333333333333C793.125,301,793.125,301,793.125,301" style="stroke: #aec7e8; fill: none; stroke-width: 2pt;"/>
        </g>
        <g class="sale">
            <path d="M16.875,383C16.875,383,16.875,383,22.5,381.8333333333333C28.125,380.66666666666663,39.375,378.3333333333333,50.625,376C61.875,373.66666666666663,73.125,371.3333333333333,84.375,369C95.625,366.66666666666663,106.875,364.3333333333333,118.125,365.3333333333333C129.375,366.3333333333333,140.625,370.66666666666663,151.875,372.8333333333333C163.125,375,174.375,375,185.625,375.1666666666667C196.875,375.3333333333333,208.125,375.66666666666663,219.375,375.99999999999994C230.625,376.3333333333333,241.875,376.66666666666663,253.125,376.8333333333333C264.375,377,275.625,377,286.875,375.49999999999994C298.125,374,309.375,371,320.625,370.8333333333333C331.875,370.66666666666663,343.125,373.3333333333333,354.375,371.8333333333333C365.625,370.3333333333333,376.875,364.66666666666663,388.125,361.6666666666667C399.375,358.66666666666663,410.625,358.3333333333333,421.875,357.6666666666667C433.125,357,444.375,356,455.625,353.3333333333333C466.875,350.66666666666663,478.125,346.3333333333333,489.375,342.6666666666667C500.625,339,511.875,336,523.125,337C534.375,338,545.625,343,556.875,347.3333333333333C568.125,351.66666666666663,579.375,355.3333333333333,590.625,359.3333333333333C601.875,363.3333333333333,613.125,367.66666666666663,624.375,370.8333333333333C635.625,374,646.875,376,658.125,379.5C669.375,383,680.625,388,691.875,392.16666666666663C703.125,396.3333333333333,714.375,399.66666666666663,725.625,403.66666666666663C736.875,407.66666666666663,748.125,412.3333333333333,759.375,415.49999999999994C770.625,418.66666666666663,781.875,420.3333333333333,787.5,421.16666666666663C793.125,422,793.125,422,793.125,421.99999999999994" style="stroke: #ff7f0e; fill: none; stroke-width: 2pt;"/>
        </g>
        <g class="sale">
            <path d="M16.875,424C16.875,423.99999999999994,16.875,423.99999999999994,22.5,423.83333333333326C28.125,423.66666666666663,39.375,423.3333333333333,50.625,422.83333333333326C61.875,422.3333333333333,73.125,421.66666666666663,84.375,420.83333333333326C95.625,419.99999999999994,106.875,418.99999999999994,118.125,418.33333333333326C129.375,417.66666666666663,140.625,417.3333333333333,151.875,416.49999999999994C163.125,415.66666666666663,174.375,414.3333333333333,185.625,413.66666666666663C196.875,413,208.125,413,219.375,412.16666666666663C230.625,411.3333333333333,241.875,409.66666666666663,253.125,408.8333333333333C264.375,408,275.625,408,286.875,407.8333333333333C298.125,407.66666666666663,309.375,407.3333333333333,320.625,406.8333333333333C331.875,406.3333333333333,343.125,405.66666666666663,354.375,404.3333333333333C365.625,403,376.875,401,388.125,399.8333333333333C399.375,398.66666666666663,410.625,398.3333333333333,421.875,397.66666666666663C433.125,397,444.375,396,455.625,395.16666666666663C466.875,394.3333333333333,478.125,393.66666666666663,489.375,392.16666666666663C500.625,390.66666666666663,511.875,388.3333333333333,523.125,388C534.375,387.66666666666663,545.625,389.33333333333326,556.875,390.33333333333326C568.125,391.33333333333326,579.375,391.66666666666663,590.625,391.8333333333333C601.875,392,613.125,392,624.375,391.83333333333326C635.625,391.66666666666663,646.875,391.33333333333326,658.125,392.66666666666663C669.375,393.99999999999994,680.625,396.99999999999994,691.875,399.4999999999999C703.125,401.99999999999994,714.375,403.99999999999994,725.625,404.4999999999999C736.875,404.99999999999994,748.125,403.99999999999994,759.375,404.33333333333326C770.625,404.66666666666663,781.875,406.3333333333333,787.5,407.16666666666663C793.125,408,793.125,408,793.125,408" style="stroke: #ffbb78; fill: none; stroke-width: 2pt;"/>
        </g>
        <g class="sale">
            <path d="M16.875,421C16.875,420.99999999999994,16.875,420.99999999999994,22.5,420.83333333333326C28.125,420.66666666666663,39.375,420.3333333333333,50.625,419.83333333333326C61.875,419.3333333333333,73.125,418.66666666666663,84.375,418.16666666666663C95.625,417.66666666666663,106.875,417.3333333333333,118.125,417.49999999999994C129.375,417.66666666666663,140.625,418.3333333333333,151.875,418.5C163.125,418.66666666666663,174.375,418.33333333333326,185.625,418.16666666666663C196.875,417.99999999999994,208.125,417.99999999999994,219.375,417.6666666666666C230.625,417.33333333333326,241.875,416.66666666666663,253.125,416.8333333333333C264.375,417,275.625,418,286.875,418.49999999999994C298.125,419,309.375,419,320.625,419.16666666666663C331.875,419.3333333333333,343.125,419.66666666666663,354.375,419.5C365.625,419.3333333333333,376.875,418.66666666666663,388.125,418.49999999999994C399.375,418.33333333333326,410.625,418.66666666666663,421.875,419.16666666666663C433.125,419.66666666666663,444.375,420.33333333333326,455.625,420.99999999999994C466.875,421.66666666666663,478.125,422.3333333333333,489.375,422.16666666666663C500.625,422,511.875,421,523.125,420.8333333333333C534.375,420.66666666666663,545.625,421.3333333333333,556.875,422.16666666666663C568.125,423,579.375,424,590.625,424.49999999999994C601.875,425,613.125,425,624.375,424.49999999999994C635.625,424,646.875,423,658.125,422.49999999999994C669.375,422,680.625,422,691.875,421.33333333333326C703.125,420.66666666666663,714.375,419.33333333333326,725.625,418.66666666666663C736.875,417.99999999999994,748.125,417.99999999999994,759.375,416.9999999999999C770.625,415.99999999999994,781.875,413.99999999999994,787.5,412.9999999999999C793.125,411.99999999999994,793.125,411.99999999999994,793.125,411.9999999999999" style="stroke: #2ca02c; fill: none; stroke-width: 2pt;"/>
        </g>
        <g class="sale">
            <path d="M16.875,430C16.875,429.99999999999994,16.875,429.99999999999994,22.5,429.9999999999999C28.125,429.99999999999994,39.375,429.99999999999994,50.625,429.9999999999999C61.875,429.99999999999994,73.125,429.99999999999994,84.375,429.9999999999999C95.625,429.99999999999994,106.875,429.99999999999994,118.125,429.9999999999999C129.375,429.99999999999994,140.625,429.99999999999994,151.875,429.9999999999999C163.125,429.99999999999994,174.375,429.99999999999994,185.625,429.9999999999999C196.875,429.99999999999994,208.125,429.99999999999994,219.375,429.9999999999999C230.625,429.99999999999994,241.875,429.99999999999994,253.125,429.9999999999999C264.375,429.99999999999994,275.625,429.99999999999994,286.875,429.9999999999999C298.125,429.99999999999994,309.375,429.99999999999994,320.625,429.9999999999999C331.875,429.99999999999994,343.125,429.99999999999994,354.375,429.9999999999999C365.625,429.99999999999994,376.875,429.99999999999994,388.125,429.9999999999999C399.375,429.99999999999994,410.625,429.99999999999994,421.875,429.6666666666666C433.125,429.33333333333326,444.375,428.66666666666663,455.625,428.16666666666663C466.875,427.66666666666663,478.125,427.33333333333326,489.375,426.66666666666663C500.625,425.99999999999994,511.875,424.99999999999994,523.125,424.4999999999999C534.375,423.99999999999994,545.625,423.99999999999994,556.875,423.9999999999999C568.125,423.99999999999994,579.375,423.99999999999994,590.625,423.83333333333326C601.875,423.66666666666663,613.125,423.3333333333333,624.375,422.83333333333326C635.625,422.3333333333333,646.875,421.66666666666663,658.125,420.99999999999994C669.375,420.33333333333326,680.625,419.66666666666663,691.875,419C703.125,418.3333333333333,714.375,417.66666666666663,725.625,417C736.875,416.3333333333333,748.125,415.66666666666663,759.375,416.49999999999994C770.625,417.33333333333326,781.875,419.66666666666663,787.5,420.8333333333333C793.125,422,793.125,422,793.125,421.99999999999994" style="stroke: #98df8a; fill: none; stroke-width: 2pt;"/>
        </g>
        <g class="sale">
            <path d="M16.875,418C16.875,417.99999999999994,16.875,417.99999999999994,22.5,418.1666666666666C28.125,418.33333333333326,39.375,418.66666666666663,50.625,418.8333333333333C61.875,419,73.125,419,84.375,418.99999999999994C95.625,419,106.875,419,118.125,418.83333333333326C129.375,418.66666666666663,140.625,418.33333333333326,151.875,418.49999999999994C163.125,418.66666666666663,174.375,419.3333333333333,185.625,419.49999999999994C196.875,419.66666666666663,208.125,419.3333333333333,219.375,419C230.625,418.66666666666663,241.875,418.33333333333326,253.125,418.66666666666663C264.375,418.99999999999994,275.625,419.99999999999994,286.875,420.83333333333326C298.125,421.66666666666663,309.375,422.3333333333333,320.625,422.49999999999994C331.875,422.66666666666663,343.125,422.3333333333333,354.375,422.3333333333333C365.625,422.3333333333333,376.875,422.66666666666663,388.125,422.8333333333333C399.375,423,410.625,423,421.875,423.16666666666663C433.125,423.3333333333333,444.375,423.66666666666663,455.625,423.83333333333326C466.875,423.99999999999994,478.125,423.99999999999994,489.375,424.33333333333326C500.625,424.66666666666663,511.875,425.3333333333333,523.125,425.66666666666663C534.375,426,545.625,426,556.875,426.16666666666663C568.125,426.3333333333333,579.375,426.66666666666663,590.625,426.83333333333326C601.875,426.99999999999994,613.125,426.99999999999994,624.375,426.9999999999999C635.625,426.99999999999994,646.875,426.99999999999994,658.125,426.83333333333326C669.375,426.66666666666663,680.625,426.3333333333333,691.875,426.33333333333326C703.125,426.3333333333333,714.375,426.66666666666663,725.625,426.99999999999994C736.875,427.33333333333326,748.125,427.66666666666663,759.375,427.8333333333333C770.625,428,781.875,428,787.5,427.99999999999994C793.125,428,793.125,428,793.125,427.99999999999994" style="stroke: #d62728; fill: none; stroke-width: 2pt;"/>
        </g>
        <g class="legend" transform="translate(0, 0)">
            <rect x="1" y="456" width="113.71428571428571" height="18" style="fill: #1f77b4;"/>
            <text x="57.857142857142854" y="465" dy=".4em" style="text-anchor: middle;">Android</text>
        </g>
        <g class="legend" transform="translate(115.71428571428571, 0)">
            <rect x="1" y="456" width="113.71428571428571" height="18" style="fill: #aec7e8;"/>
            <text x="57.857142857142854" y="465" dy=".4em" style="text-anchor: middle;">iOS</text>
        </g>
        <g class="legend" transform="translate(231.42857142857142, 0)">
            <rect x="1" y="456" width="113.71428571428571" height="18" style="fill: #ff7f0e;"/>
            <text x="57.857142857142854" y="465" dy=".4em" style="text-anchor: middle;">Symbian</text>
        </g>
        <g class="legend" transform="translate(347.1428571428571, 0)">
            <rect x="1" y="456" width="113.71428571428571" height="18" style="fill: #ffbb78;"/>
            <text x="57.857142857142854" y="465" dy=".4em" style="text-anchor: middle;">BlackBerry</text>
        </g>
        <g class="legend" transform="translate(462.85714285714283, 0)">
            <rect x="1" y="456" width="113.71428571428571" height="18" style="fill: #2ca02c;"/>
            <text x="57.857142857142854" y="465" dy=".4em" style="text-anchor: middle;">Microsoft</text>
        </g>
        <g class="legend" transform="translate(578.5714285714286, 0)">
            <rect x="1" y="456" width="113.71428571428571" height="18" style="fill: #98df8a;"/>
            <text x="57.857142857142854" y="465" dy=".4em" style="text-anchor: middle;">Bada</text>
        </g>
        <g class="legend" transform="translate(694.2857142857142, 0)">
            <rect x="1" y="456" width="113.71428571428571" height="18" style="fill: #d62728;"/>
            <text x="57.857142857142854" y="465" dy=".4em" style="text-anchor: middle;">Others</text>
        </g>
    </g>
</svg>
