<?xml version="1.0" encoding="utf-8"?>
<!-- Generator: Adobe Illustrator 16.0.1, SVG Export Plug-In . SVG Version: 6.00 Build 0)  -->
<!DOCTYPE svg PUBLIC "-//W3C//DTD SVG 1.1//EN" "http://www.w3.org/Graphics/SVG/1.1/DTD/svg11.dtd">
<svg version="1.1" id="Layer_1" xmlns="http://www.w3.org/2000/svg" xmlns:xlink="http://www.w3.org/1999/xlink" x="0px" y="0px"
	 width="480px" height="400px" viewBox="0 0 480 400" enable-background="new 0 0 480 400" xml:space="preserve">
<g transform="translate(50,20)">
	<g transform="translate(0,330)">
		<g transform="translate(59.5,0)">
			<line fill="none" stroke="#000000" x1="-0.5" y1="-4.897" x2="-0.5" y2="1.103"/>
			<text transform="matrix(1 0 0 1 -16.0725 14.0437)" font-family="'Helvetica'" font-size="14">2010</text>
		</g>
		<g transform="translate(137.5,0)">
			<line fill="none" stroke="#000000" x1="-0.5" y1="-4.897" x2="-0.5" y2="1.103"/>
			<text transform="matrix(1 0 0 1 -15.5564 14.0437)" font-family="'Helvetica'" font-size="14">2011</text>
		</g>
		<g transform="translate(215.5,0)">
			<line fill="none" stroke="#000000" x1="-0.5" y1="-4.897" x2="-0.5" y2="1.103"/>
			<text transform="matrix(1 0 0 1 -16.072 14.0437)" font-family="'Helvetica'" font-size="14">2012</text>
		</g>
		<g transform="translate(293.5,0)">
			<line fill="none" stroke="#000000" x1="-0.5" y1="-4.897" x2="-0.5" y2="1.103"/>
			<text transform="matrix(1 0 0 1 -16.072 14.0437)" font-family="'Helvetica'" font-size="14">2013</text>
		</g>
		<g transform="translate(371.5,0)">
			<line fill="none" stroke="#000000" x1="-0.5" y1="-4.897" x2="-0.5" y2="1.103"/>
			<text transform="matrix(1 0 0 1 -16.072 14.0437)" font-family="'Helvetica'" font-size="14">2016</text>
		</g>
		<path fill="none" stroke="#000000" d="M-0.5,1.103v-6h430v6"/>
	</g>
	<g>
		<g transform="translate(0,330)">
			<line fill="none" stroke="#000000" x1="-0.5" y1="-4.897" x2="-6.5" y2="-4.897"/>
			<text transform="matrix(1 0 0 1 -29.7346 -0.4163)" font-family="'Helvetica'" font-size="14">0%</text>
		</g>
		<g transform="translate(0,297)">
			<line fill="none" stroke="#000000" x1="-0.5" y1="-4.897" x2="-6.5" y2="-4.897"/>
			<text transform="matrix(1 0 0 1 -37.5208 -0.4163)" font-family="'Helvetica'" font-size="14">10%</text>
		</g>
		<g transform="translate(0,264)">
			<line fill="none" stroke="#000000" x1="-0.5" y1="-4.897" x2="-6.5" y2="-4.897"/>
			<text transform="matrix(1 0 0 1 -37.5208 -0.4163)" font-family="'Helvetica'" font-size="14">20%</text>
		</g>
		<g transform="translate(0,231)">
			<line fill="none" stroke="#000000" x1="-0.5" y1="-4.897" x2="-6.5" y2="-4.897"/>
			<text transform="matrix(1 0 0 1 -37.5208 -0.4163)" font-family="'Helvetica'" font-size="14">30%</text>
		</g>
		<g transform="translate(0,198)">
			<line fill="none" stroke="#000000" x1="-0.5" y1="-4.897" x2="-6.5" y2="-4.897"/>
			<text transform="matrix(1 0 0 1 -37.5208 -0.4163)" font-family="'Helvetica'" font-size="14">40%</text>
		</g>
		<g transform="translate(0,165)">
			<line fill="none" stroke="#000000" x1="-0.5" y1="-4.897" x2="-6.5" y2="-4.897"/>
			<text transform="matrix(1 0 0 1 -37.5208 -0.4163)" font-family="'Helvetica'" font-size="14">50%</text>
		</g>
		<g transform="translate(0,132)">
			<line fill="none" stroke="#000000" x1="-0.5" y1="-4.897" x2="-6.5" y2="-4.897"/>
			<text transform="matrix(1 0 0 1 -37.5208 -0.4163)" font-family="'Helvetica'" font-size="14">60%</text>
		</g>
		<g transform="translate(0,99)">
			<line fill="none" stroke="#000000" x1="-0.5" y1="-4.897" x2="-6.5" y2="-4.897"/>
			<text transform="matrix(1 0 0 1 -37.5208 -0.4163)" font-family="'Helvetica'" font-size="14">70%</text>
		</g>
		<g transform="translate(0,66)">
			<line fill="none" stroke="#000000" x1="-0.5" y1="-4.897" x2="-6.5" y2="-4.897"/>
			<text transform="matrix(1 0 0 1 -37.5208 -0.4163)" font-family="'Helvetica'" font-size="14">80%</text>
		</g>
		<g transform="translate(0,33)">
			<line fill="none" stroke="#000000" x1="-0.5" y1="-4.897" x2="-6.5" y2="-4.897"/>
			<text transform="matrix(1 0 0 1 -37.5208 -0.4163)" font-family="'Helvetica'" font-size="14">90%</text>
		</g>
		<g transform="translate(0,0)">
			<line fill="none" stroke="#000000" x1="-0.5" y1="-4.897" x2="-6.5" y2="-4.897"/>
			<text transform="matrix(1 0 0 1 -45.3069 -0.4163)" font-family="'Helvetica'" font-size="14">100%</text>
		</g>
		<path fill="none" stroke="#000000" d="M-6.5-4.897h6v330h-6"/>
	</g>
	<g transform="translate(40,0)">
		<rect x="-0.5" y="48.103" fill="#1F77B4" width="39" height="277"/>
		<rect x="-0.5" y="1.103" fill="#AEC7E8" width="39" height="47"/>
		<polygon fill="#FF7F0E" points="-0.5,1.103 38.5,1.103 38.5,1.103 		"/>
		<polygon fill="#FFBB78" points="-0.5,1.103 38.5,1.103 38.5,1.103 		"/>
		<rect x="-0.5" y="-4.897" fill="#2CA02C" width="39" height="6"/>
	</g>
	<g transform="translate(118,0)">
		<rect x="-0.5" y="105.103" fill="#1F77B4" width="39" height="220"/>
		<rect x="-0.5" y="10.103" fill="#AEC7E8" width="39" height="95"/>
		<polygon fill="#FF7F0E" points="-0.5,10.103 38.5,10.103 38.5,10.103 		"/>
		<rect x="-0.5" y="6.103" fill="#FFBB78" width="39" height="4"/>
		<rect x="-0.5" y="-4.897" fill="#2CA02C" width="39" height="11"/>
	</g>
	<g transform="translate(196,0)">
		<rect x="-0.5" y="122.103" fill="#1F77B4" width="39" height="203"/>
		<rect x="-0.5" y="17.103" fill="#AEC7E8" width="39" height="105"/>
		<rect x="-0.5" y="4.103" fill="#FF7F0E" width="39" height="13"/>
		<rect x="-0.5" y="-3.897" fill="#FFBB78" width="39" height="8"/>
		<rect x="-0.5" y="-4.897" fill="#2CA02C" width="39" height="1"/>
	</g>
	<g transform="translate(274,0)">
		<rect x="-0.5" y="145.103" fill="#1F77B4" width="39" height="180"/>
		<rect x="-0.5" y="33.103" fill="#AEC7E8" width="39" height="112"/>
		<rect x="-0.5" y="7.103" fill="#FF7F0E" width="39" height="26"/>
		<rect x="-0.5" y="-3.897" fill="#FFBB78" width="39" height="11"/>
		<rect x="-0.5" y="-4.897" fill="#2CA02C" width="39" height="1"/>
	</g>
	<g transform="translate(352,0)">
		<rect x="-0.5" y="173.103" fill="#1F77B4" width="39" height="152"/>
		<rect x="-0.5" y="50.103" fill="#AEC7E8" width="39" height="123"/>
		<rect x="-0.5" y="11.103" fill="#FF7F0E" width="39" height="39"/>
		<rect x="-0.5" y="-4.897" fill="#FFBB78" width="39" height="16"/>
		<polygon fill="#2CA02C" points="-0.5,-4.897 38.5,-4.897 38.5,-4.897 		"/>
	</g>
	<g transform="translate(-50, 0)">
		<rect x="0.5" y="351.103" fill="#1F77B4" width="94" height="18"/>
		<text transform="matrix(1 0 0 1 23.3723 365.7039)" font-family="'Helvetica'" font-size="14">Android</text>
	</g>
	<g transform="translate(46, 0)">
		<rect x="0.5" y="351.103" fill="#AEC7E8" width="94" height="18"/>
		<text transform="matrix(1 0 0 1 35.8308 365.7039)" font-family="'Helvetica'" font-size="14">iOS</text>
	</g>
	<g transform="translate(142, 0)">
		<rect x="0.5" y="351.103" fill="#FF7F0E" width="94" height="18"/>
		<text transform="matrix(1 0 0 1 19.1067 365.7039)" font-family="'Helvetica'" font-size="14">Microsoft</text>
	</g>
	<g transform="translate(238, 0)">
		<rect x="0.5" y="351.103" fill="#FFBB78" width="94" height="18"/>
		<text transform="matrix(1 0 0 1 13.6584 365.7039)" font-family="'Helvetica'" font-size="14">BlackBerry</text>
	</g>
	<g transform="translate(334, 0)">
		<rect x="0.5" y="351.103" fill="#2CA02C" width="94" height="18"/>
		<text transform="matrix(1 0 0 1 26.4924 365.7039)" font-family="'Helvetica'" font-size="14">Others</text>
	</g>
</g>
</svg>
