<?xml version="1.0" encoding="utf-8"?>
<!-- Generator: Adobe Illustrator 16.0.1, SVG Export Plug-In . SVG Version: 6.00 Build 0)  -->
<!DOCTYPE svg PUBLIC "-//W3C//DTD SVG 1.1//EN" "http://www.w3.org/Graphics/SVG/1.1/DTD/svg11.dtd">
<svg version="1.1" id="Layer_1" xmlns="http://www.w3.org/2000/svg" xmlns:xlink="http://www.w3.org/1999/xlink" x="0px" y="0px"
	 width="480px" height="400px" viewBox="0 0 480 400" enable-background="new 0 0 480 400" xml:space="preserve">
<g transform="translate(80,20)">
	<g transform="translate(0,330)">
		<g transform="translate(0,0)">
			<line fill="none" stroke="#000000" x1="0" y1="-8.667" x2="0" y2="-2.667"/>
			<text transform="matrix(1 0 0 1 -15.5725 10.2732)" font-family="'Helvetica'" font-size="14">2010</text>
		</g>
		<g transform="translate(63.30442720219077,0)">
			<line fill="none" stroke="#000000" x1="0" y1="-8.667" x2="0" y2="-2.667"/>
			<text transform="matrix(1 0 0 1 -15.0566 10.2732)" font-family="'Helvetica'" font-size="14">2011</text>
		</g>
		<g transform="translate(126.60885440438155,0)">
			<line fill="none" stroke="#000000" x1="0" y1="-8.667" x2="0" y2="-2.667"/>
			<text transform="matrix(1 0 0 1 -15.5725 10.2732)" font-family="'Helvetica'" font-size="14">2012</text>
		</g>
		<g transform="translate(190.08671839342767,0)">
			<line fill="none" stroke="#000000" x1="0" y1="-8.667" x2="0" y2="-2.667"/>
			<text transform="matrix(1 0 0 1 -15.5728 10.2732)" font-family="'Helvetica'" font-size="14">2013</text>
		</g>
		<g transform="translate(253.39114559561844,0)">
			<line fill="none" stroke="#000000" x1="0" y1="-8.667" x2="0" y2="-2.667"/>
			<text transform="matrix(1 0 0 1 -15.5725 10.2732)" font-family="'Helvetica'" font-size="14">2014</text>
		</g>
		<g transform="translate(316.6955727978092,0)">
			<line fill="none" stroke="#000000" x1="0" y1="-8.667" x2="0" y2="-2.667"/>
			<text transform="matrix(1 0 0 1 -15.5723 10.2732)" font-family="'Helvetica'" font-size="14">2015</text>
		</g>
		<g transform="translate(380,0)">
			<line fill="none" stroke="#000000" x1="0" y1="-8.667" x2="0" y2="-2.667"/>
			<text transform="matrix(1 0 0 1 -15.572 10.2732)" font-family="'Helvetica'" font-size="14">2016</text>
		</g>
		<path fill="none" stroke="#000000" d="M0-2.667v-6h380v6"/>
	</g>
	<g>
		<g transform="translate(0,330)">
			<line fill="none" stroke="#000000" x1="0" y1="-8.667" x2="-6" y2="-8.667"/>
			<text transform="matrix(1 0 0 1 -16.7864 -4.1868)" font-family="'Helvetica'" font-size="14">0</text>
		</g>
		<g transform="translate(0,291)">
			<line fill="none" stroke="#000000" x1="0" y1="-8.667" x2="-6" y2="-8.667"/>
			<text transform="matrix(1 0 0 1 -51.8206 -4.1868)" font-family="'Helvetica'" font-size="14">20,000</text>
		</g>
		<g transform="translate(0,252)">
			<line fill="none" stroke="#000000" x1="0" y1="-8.667" x2="-6" y2="-8.667"/>
			<text transform="matrix(1 0 0 1 -51.8206 -4.1868)" font-family="'Helvetica'" font-size="14">40,000</text>
		</g>
		<g transform="translate(0,214)">
			<line fill="none" stroke="#000000" x1="0" y1="-8.667" x2="-6" y2="-8.667"/>
			<text transform="matrix(1 0 0 1 -51.8206 -4.1868)" font-family="'Helvetica'" font-size="14">60,000</text>
		</g>
		<g transform="translate(0,175)">
			<line fill="none" stroke="#000000" x1="0" y1="-8.667" x2="-6" y2="-8.667"/>
			<text transform="matrix(1 0 0 1 -51.8206 -4.1868)" font-family="'Helvetica'" font-size="14">80,000</text>
		</g>
		<g transform="translate(0,136)">
			<line fill="none" stroke="#000000" x1="0" y1="-8.667" x2="-6" y2="-8.667"/>
			<text transform="matrix(1 0 0 1 -59.6067 -4.1868)" font-family="'Helvetica'" font-size="14">100,000</text>
		</g>
		<g transform="translate(0,97)">
			<line fill="none" stroke="#000000" x1="0" y1="-8.667" x2="-6" y2="-8.667"/>
			<text transform="matrix(1 0 0 1 -59.6067 -4.1868)" font-family="'Helvetica'" font-size="14">120,000</text>
		</g>
		<g transform="translate(0,58)">
			<line fill="none" stroke="#000000" x1="0" y1="-8.667" x2="-6" y2="-8.667"/>
			<text transform="matrix(1 0 0 1 -59.6067 -4.1868)" font-family="'Helvetica'" font-size="14">140,000</text>
		</g>
		<g transform="translate(0,19)">
			<line fill="none" stroke="#000000" x1="0" y1="-8.667" x2="-6" y2="-8.667"/>
			<text transform="matrix(1 0 0 1 -59.6067 -4.1868)" font-family="'Helvetica'" font-size="14">160,000</text>
		</g>
		<path fill="none" stroke="#000000" d="M-6-8.667h6v330h-6"/>
		<text transform="matrix(6.123234e-17 -1 1 6.123234e-17 -65.9998 225.9851)" font-family="'Helvetica'" font-size="14">Sales (thousand units)</text>
	</g>
	<g>
		<path fill="none" stroke="#1F77B4" stroke-width="2" d="M0,292.333c0,0,0,0,10.551-8.166c10.551-8.167,31.652-24.5,52.753-43.334
			C84.406,222,105.507,200.667,126.638,181.5c21.13-19.167,42.289-36.167,84.521-67.333C253.391,83,316.696,37.667,348.348,15
			S380-7.667,380-7.667"/>
	</g>
	<g>
		<path fill="none" stroke="#AEC7E8" stroke-width="2" d="M0,316.333c0,0,0,0,10.551-4.833s31.652-14.5,52.753-26
			c21.102-11.5,42.203-24.833,63.334-39.167c21.13-14.333,42.289-29.666,84.521-61.833
			c42.231-32.167,105.536-81.167,137.188-105.667S380,54.333,380,54.333"/>
	</g>
	<g>
		<path fill="none" stroke="#FF7F0E" stroke-width="2" d="M0,321.333c0,0,0,0,10.551,0s31.652,0,52.753-1.5
			c21.102-1.5,42.203-4.5,63.334-9.166c21.13-4.667,42.289-11,84.521-23.667c42.231-12.667,105.536-31.667,137.188-41.167
			s31.652-9.5,31.652-9.5"/>
	</g>
	<g>
		<path fill="none" stroke="#FFBB78" stroke-width="2" d="M0,321.333c0,0,0,0,10.551-0.333s31.652-1,52.753-1.833
			c21.102-0.834,42.203-1.834,63.334-3.5c21.13-1.667,42.289-4,84.521-9c42.231-5,105.536-12.667,137.188-16.5
			C380,286.333,380,286.333,380,286.333"/>
	</g>
	<g>
		<path fill="none" stroke="#2CA02C" stroke-width="2" d="M0,320.333c0,0,0,0,10.551-0.5s31.652-1.5,52.753-1.5
			c21.102,0,42.203,1,63.334,1.5c21.13,0.5,42.289,0.5,84.521,0.5c42.231,0,105.536,0,137.188,0s31.652,0,31.652,0"/>
	</g>
	<g transform="translate(-80, 0)">
		<rect x="1" y="347.333" fill="#1F77B4" width="94" height="18"/>
		<text transform="matrix(1 0 0 1 23.8723 361.9333)" font-family="'Helvetica'" font-size="14">Android</text>
	</g>
	<g transform="translate(16, 0)">
		<rect x="1" y="347.333" fill="#AEC7E8" width="94" height="18"/>
		<text transform="matrix(1 0 0 1 36.3308 361.9333)" font-family="'Helvetica'" font-size="14">iOS</text>
	</g>
	<g transform="translate(112, 0)">
		<rect x="1" y="347.333" fill="#FF7F0E" width="94" height="18"/>
		<text transform="matrix(1 0 0 1 19.6067 361.9333)" font-family="'Helvetica'" font-size="14">Microsoft</text>
	</g>
	<g transform="translate(208, 0)">
		<rect x="1" y="347.333" fill="#FFBB78" width="94" height="18"/>
		<text transform="matrix(1 0 0 1 14.1584 361.9333)" font-family="'Helvetica'" font-size="14">BlackBerry</text>
	</g>
	<g transform="translate(304, 0)">
		<rect x="1" y="347.333" fill="#2CA02C" width="94" height="18"/>
		<text transform="matrix(1 0 0 1 26.9924 361.9333)" font-family="'Helvetica'" font-size="14">Others</text>
	</g>
</g>
</svg>
