<?xml version="1.0" encoding="utf-8"?>
<!-- Generator: Adobe Illustrator 16.0.1, SVG Export Plug-In . SVG Version: 6.00 Build 0)  -->
<!DOCTYPE svg PUBLIC "-//W3C//DTD SVG 1.1//EN" "http://www.w3.org/Graphics/SVG/1.1/DTD/svg11.dtd">
<svg version="1.1" id="Layer_1" xmlns="http://www.w3.org/2000/svg" xmlns:xlink="http://www.w3.org/1999/xlink" x="0px" y="0px"
	 width="960px" height="500px" viewBox="0 0 960 500" enable-background="new 0 0 960 500" xml:space="preserve">
<g transform="translate(80,20)">
	<g transform="translate(0,430)">
		<g transform="translate(16.2,0)">
			<line fill="none" stroke="#000000" x1="4.675" y1="-4.897" x2="4.675" y2="1.103"/>
			<text transform="matrix(1 0 0 1 -10.8975 14.0437)" font-family="'Helvetica'" font-size="14">2007</text>
		</g>
		<g transform="translate(48.599999999999994,0)">
			<line fill="none" stroke="#000000" x1="4.675" y1="-4.897" x2="4.675" y2="1.103"/>
			<text transform="matrix(1 0 0 1 -4.6632 14.0437)" font-family="'Helvetica'" font-size="14">Q2</text>
		</g>
		<g transform="translate(81,0)">
			<line fill="none" stroke="#000000" x1="4.675" y1="-4.897" x2="4.675" y2="1.103"/>
			<text transform="matrix(1 0 0 1 -4.6633 14.0437)" font-family="'Helvetica'" font-size="14">Q3</text>
		</g>
		<g transform="translate(113.39999999999999,0)">
			<line fill="none" stroke="#000000" x1="4.674" y1="-4.897" x2="4.674" y2="1.103"/>
			<text transform="matrix(1 0 0 1 -4.6634 14.0437)" font-family="'Helvetica'" font-size="14">Q4</text>
		</g>
		<g transform="translate(145.79999999999998,0)">
			<line fill="none" stroke="#000000" x1="4.675" y1="-4.897" x2="4.675" y2="1.103"/>
			<text transform="matrix(1 0 0 1 -10.8979 14.0437)" font-family="'Helvetica'" font-size="14">2008</text>
		</g>
		<g transform="translate(178.2,0)">
			<line fill="none" stroke="#000000" x1="4.675" y1="-4.897" x2="4.675" y2="1.103"/>
			<text transform="matrix(1 0 0 1 -4.6631 14.0437)" font-family="'Helvetica'" font-size="14">Q2</text>
		</g>
		<g transform="translate(210.59999999999997,0)">
			<line fill="none" stroke="#000000" x1="4.675" y1="-4.897" x2="4.675" y2="1.103"/>
			<text transform="matrix(1 0 0 1 -4.6632 14.0437)" font-family="'Helvetica'" font-size="14">Q3</text>
		</g>
		<g transform="translate(242.99999999999997,0)">
			<line fill="none" stroke="#000000" x1="4.675" y1="-4.897" x2="4.675" y2="1.103"/>
			<text transform="matrix(1 0 0 1 -4.6633 14.0437)" font-family="'Helvetica'" font-size="14">Q4</text>
		</g>
		<g transform="translate(275.4,0)">
			<line fill="none" stroke="#000000" x1="4.674" y1="-4.897" x2="4.674" y2="1.103"/>
			<text transform="matrix(1 0 0 1 -10.8978 14.0437)" font-family="'Helvetica'" font-size="14">2009</text>
		</g>
		<g transform="translate(307.79999999999995,0)">
			<line fill="none" stroke="#000000" x1="4.675" y1="-4.897" x2="4.675" y2="1.103"/>
			<text transform="matrix(1 0 0 1 -4.6635 14.0437)" font-family="'Helvetica'" font-size="14">Q2</text>
		</g>
		<g transform="translate(340.2,0)">
			<line fill="none" stroke="#000000" x1="4.675" y1="-4.897" x2="4.675" y2="1.103"/>
			<text transform="matrix(1 0 0 1 -4.6631 14.0437)" font-family="'Helvetica'" font-size="14">Q3</text>
		</g>
		<g transform="translate(372.59999999999997,0)">
			<line fill="none" stroke="#000000" x1="4.675" y1="-4.897" x2="4.675" y2="1.103"/>
			<text transform="matrix(1 0 0 1 -4.6632 14.0437)" font-family="'Helvetica'" font-size="14">Q4</text>
		</g>
		<g transform="translate(404.99999999999994,0)">
			<line fill="none" stroke="#000000" x1="4.675" y1="-4.897" x2="4.675" y2="1.103"/>
			<text transform="matrix(1 0 0 1 -10.8977 14.0437)" font-family="'Helvetica'" font-size="14">2010</text>
		</g>
		<g transform="translate(437.4,0)">
			<line fill="none" stroke="#000000" x1="4.674" y1="-4.897" x2="4.674" y2="1.103"/>
			<text transform="matrix(1 0 0 1 -4.6634 14.0437)" font-family="'Helvetica'" font-size="14">Q2</text>
		</g>
		<g transform="translate(469.79999999999995,0)">
			<line fill="none" stroke="#000000" x1="4.675" y1="-4.897" x2="4.675" y2="1.103"/>
			<text transform="matrix(1 0 0 1 -4.663 14.0437)" font-family="'Helvetica'" font-size="14">Q3</text>
		</g>
		<g transform="translate(502.2,0)">
			<line fill="none" stroke="#000000" x1="4.674" y1="-4.897" x2="4.674" y2="1.103"/>
			<text transform="matrix(1 0 0 1 -4.6627 14.0437)" font-family="'Helvetica'" font-size="14">Q4</text>
		</g>
		<g transform="translate(534.6,0)">
			<line fill="none" stroke="#000000" x1="4.675" y1="-4.897" x2="4.675" y2="1.103"/>
			<text transform="matrix(1 0 0 1 -10.381 14.0437)" font-family="'Helvetica'" font-size="14">2011</text>
		</g>
		<g transform="translate(567,0)">
			<line fill="none" stroke="#000000" x1="4.675" y1="-4.897" x2="4.675" y2="1.103"/>
			<text transform="matrix(1 0 0 1 -4.6638 14.0437)" font-family="'Helvetica'" font-size="14">Q2</text>
		</g>
		<g transform="translate(599.4,0)">
			<line fill="none" stroke="#000000" x1="4.674" y1="-4.897" x2="4.674" y2="1.103"/>
			<text transform="matrix(1 0 0 1 -4.6635 14.0437)" font-family="'Helvetica'" font-size="14">Q3</text>
		</g>
		<g transform="translate(631.8000000000001,0)">
			<line fill="none" stroke="#000000" x1="4.675" y1="-4.897" x2="4.675" y2="1.103"/>
			<text transform="matrix(1 0 0 1 -4.663 14.0437)" font-family="'Helvetica'" font-size="14">Q4</text>
		</g>
		<g transform="translate(664.2,0)">
			<line fill="none" stroke="#000000" x1="4.674" y1="-4.897" x2="4.674" y2="1.103"/>
			<text transform="matrix(1 0 0 1 -10.897 14.0437)" font-family="'Helvetica'" font-size="14">2012</text>
		</g>
		<g transform="translate(696.6,0)">
			<line fill="none" stroke="#000000" x1="4.675" y1="-4.897" x2="4.675" y2="1.103"/>
			<text transform="matrix(1 0 0 1 -4.6632 14.0437)" font-family="'Helvetica'" font-size="14">Q2</text>
		</g>
		<g transform="translate(729,0)">
			<line fill="none" stroke="#000000" x1="4.675" y1="-4.897" x2="4.675" y2="1.103"/>
			<text transform="matrix(1 0 0 1 -4.6638 14.0437)" font-family="'Helvetica'" font-size="14">Q3</text>
		</g>
		<g transform="translate(761.4,0)">
			<line fill="none" stroke="#000000" x1="4.674" y1="-4.897" x2="4.674" y2="1.103"/>
			<text transform="matrix(1 0 0 1 -4.6635 14.0437)" font-family="'Helvetica'" font-size="14">Q4</text>
		</g>
		<g transform="translate(793.8,0)">
			<line fill="none" stroke="#000000" x1="4.675" y1="-4.897" x2="4.675" y2="1.103"/>
			<text transform="matrix(1 0 0 1 -10.8974 14.0437)" font-family="'Helvetica'" font-size="14">2013</text>
		</g>
		<path fill="none" stroke="#000000" d="M4.675,1.103v-6h810v6"/>
	</g>
	<g>
		<g transform="translate(0,430)">
			<line fill="none" stroke="#000000" x1="4.675" y1="-4.897" x2="-1.325" y2="-4.897"/>
			<text transform="matrix(1 0 0 1 -12.1116 -0.4163)" font-family="'Helvetica'" font-size="14">0</text>
		</g>
		<g transform="translate(0,376)">
			<line fill="none" stroke="#000000" x1="4.675" y1="-4.897" x2="-1.325" y2="-4.897"/>
			<text transform="matrix(1 0 0 1 -47.1458 -0.4163)" font-family="'Helvetica'" font-size="14">20,000</text>
		</g>
		<g transform="translate(0,323)">
			<line fill="none" stroke="#000000" x1="4.675" y1="-4.897" x2="-1.325" y2="-4.897"/>
			<text transform="matrix(1 0 0 1 -47.1458 -0.4163)" font-family="'Helvetica'" font-size="14">40,000</text>
		</g>
		<g transform="translate(0,269)">
			<line fill="none" stroke="#000000" x1="4.675" y1="-4.897" x2="-1.325" y2="-4.897"/>
			<text transform="matrix(1 0 0 1 -47.1458 -0.4163)" font-family="'Helvetica'" font-size="14">60,000</text>
		</g>
		<g transform="translate(0,215)">
			<line fill="none" stroke="#000000" x1="4.675" y1="-4.897" x2="-1.325" y2="-4.897"/>
			<text transform="matrix(1 0 0 1 -47.1458 -0.4163)" font-family="'Helvetica'" font-size="14">80,000</text>
		</g>
		<g transform="translate(0,161)">
			<line fill="none" stroke="#000000" x1="4.675" y1="-4.897" x2="-1.325" y2="-4.897"/>
			<text transform="matrix(1 0 0 1 -54.9319 -0.4163)" font-family="'Helvetica'" font-size="14">100,000</text>
		</g>
		<g transform="translate(0,108)">
			<line fill="none" stroke="#000000" x1="4.675" y1="-4.897" x2="-1.325" y2="-4.897"/>
			<text transform="matrix(1 0 0 1 -54.9319 -0.4163)" font-family="'Helvetica'" font-size="14">120,000</text>
		</g>
		<g transform="translate(0,54)">
			<line fill="none" stroke="#000000" x1="4.675" y1="-4.897" x2="-1.325" y2="-4.897"/>
			<text transform="matrix(1 0 0 1 -54.9319 -0.4163)" font-family="'Helvetica'" font-size="14">140,000</text>
		</g>
		<g transform="translate(0,0)">
			<line fill="none" stroke="#000000" x1="4.675" y1="-4.897" x2="-1.325" y2="-4.897"/>
			<text transform="matrix(1 0 0 1 -54.9319 -0.4163)" font-family="'Helvetica'" font-size="14">160,000</text>
		</g>
		<path fill="none" stroke="#000000" d="M-1.325-4.897h6v430h-6"/>
		<text transform="matrix(6.123234e-17 -1 1 6.123234e-17 -65.3855 279.7556)" font-family="'Helvetica'" font-size="14">Sales (thousand units)</text>
	</g>
	<g transform="translate(810, 0)">
		<g transform="translate(0,430)">
			<line fill="none" stroke="#000000" x1="4.675" y1="-4.897" x2="10.675" y2="-4.897"/>
			<text transform="matrix(1 0 0 1 13.6741 -0.4163)" font-family="'Helvetica'" font-size="14">0%</text>
		</g>
		<g transform="translate(0,387)">
			<line fill="none" stroke="#000000" x1="4.675" y1="-4.897" x2="10.675" y2="-4.897"/>
			<text transform="matrix(1 0 0 1 13.6741 -0.4163)" font-family="'Helvetica'" font-size="14">10%</text>
		</g>
		<g transform="translate(0,344)">
			<line fill="none" stroke="#000000" x1="4.675" y1="-4.897" x2="10.675" y2="-4.897"/>
			<text transform="matrix(1 0 0 1 13.6741 -0.4163)" font-family="'Helvetica'" font-size="14">20%</text>
		</g>
		<g transform="translate(0,301)">
			<line fill="none" stroke="#000000" x1="4.675" y1="-4.897" x2="10.675" y2="-4.897"/>
			<text transform="matrix(1 0 0 1 13.6741 -0.4163)" font-family="'Helvetica'" font-size="14">30%</text>
		</g>
		<g transform="translate(0,258)">
			<line fill="none" stroke="#000000" x1="4.675" y1="-4.897" x2="10.675" y2="-4.897"/>
			<text transform="matrix(1 0 0 1 13.6741 -0.4163)" font-family="'Helvetica'" font-size="14">40%</text>
		</g>
		<g transform="translate(0,215)">
			<line fill="none" stroke="#000000" x1="4.675" y1="-4.897" x2="10.675" y2="-4.897"/>
			<text transform="matrix(1 0 0 1 13.6741 -0.4163)" font-family="'Helvetica'" font-size="14">50%</text>
		</g>
		<g transform="translate(0,172)">
			<line fill="none" stroke="#000000" x1="4.675" y1="-4.897" x2="10.675" y2="-4.897"/>
			<text transform="matrix(1 0 0 1 13.6741 -0.4163)" font-family="'Helvetica'" font-size="14">60%</text>
		</g>
		<g transform="translate(0,129)">
			<line fill="none" stroke="#000000" x1="4.675" y1="-4.897" x2="10.675" y2="-4.897"/>
			<text transform="matrix(1 0 0 1 13.6741 -0.4163)" font-family="'Helvetica'" font-size="14">70%</text>
		</g>
		<g transform="translate(0,86)">
			<line fill="none" stroke="#000000" x1="4.675" y1="-4.897" x2="10.675" y2="-4.897"/>
			<text transform="matrix(1 0 0 1 13.6741 -0.4163)" font-family="'Helvetica'" font-size="14">80%</text>
		</g>
		<g transform="translate(0,43)">
			<line fill="none" stroke="#000000" x1="4.675" y1="-4.897" x2="10.675" y2="-4.897"/>
			<text transform="matrix(1 0 0 1 13.6741 -0.4163)" font-family="'Helvetica'" font-size="14">90%</text>
		</g>
		<g transform="translate(0,0)">
			<line fill="none" stroke="#000000" x1="4.675" y1="-4.897" x2="10.675" y2="-4.897"/>
			<text transform="matrix(1 0 0 1 13.6741 -0.4163)" font-family="'Helvetica'" font-size="14">100%</text>
		</g>
		<path fill="none" stroke="#000000" d="M10.675-4.897h-6v430h6"/>
		<text transform="matrix(6.123234e-17 -1 1 6.123234e-17 60.6741 285.2107)" font-family="'Helvetica'" font-size="14">Smartphone penetration</text>
	</g>
	<rect x="8.875" y="384.103" fill="#CCCCCC" width="24" height="41"/>
	<rect x="41.275" y="381.103" fill="#CCCCCC" width="24" height="44"/>
	<rect x="73.675" y="377.103" fill="#CCCCCC" width="24" height="48"/>
	<rect x="106.074" y="377.103" fill="#CCCCCC" width="24" height="48"/>
	<rect x="138.475" y="378.103" fill="#CCCCCC" width="24" height="47"/>
	<rect x="170.875" y="380.103" fill="#CCCCCC" width="24" height="45"/>
	<rect x="203.275" y="374.103" fill="#CCCCCC" width="24" height="51"/>
	<rect x="235.675" y="373.103" fill="#CCCCCC" width="24" height="52"/>
	<rect x="268.074" y="367.103" fill="#CCCCCC" width="24" height="58"/>
	<rect x="300.475" y="363.103" fill="#CCCCCC" width="24" height="62"/>
	<rect x="332.875" y="368.103" fill="#CCCCCC" width="23.999" height="57"/>
	<rect x="365.275" y="358.103" fill="#CCCCCC" width="24" height="67"/>
	<rect x="397.675" y="360.103" fill="#CCCCCC" width="24" height="65"/>
	<rect x="430.074" y="352.103" fill="#CCCCCC" width="24" height="73"/>
	<rect x="462.475" y="341.103" fill="#CCCCCC" width="24" height="84"/>
	<rect x="494.874" y="329.103" fill="#CCCCCC" width="24" height="96"/>
	<rect x="527.275" y="325.103" fill="#CCCCCC" width="24" height="100"/>
	<rect x="559.675" y="317.103" fill="#CCCCCC" width="24" height="108"/>
	<rect x="592.074" y="313.103" fill="#CCCCCC" width="24" height="112"/>
	<rect x="624.475" y="291.103" fill="#CCCCCC" width="24" height="134"/>
	<rect x="656.874" y="277.103" fill="#CCCCCC" width="24" height="148"/>
	<rect x="689.275" y="267.103" fill="#CCCCCC" width="24" height="158"/>
	<rect x="721.675" y="255.103" fill="#CCCCCC" width="24" height="170"/>
	<rect x="754.074" y="236.103" fill="#CCCCCC" width="24" height="189"/>
	<rect x="786.475" y="213.103" fill="#CCCCCC" width="24" height="212"/>
	<g>
		<path fill="none" stroke="#1F77B4" stroke-width="2" d="M20.875,425.103c0,0,0,0,5.399,0c5.4,0,16.2,0,27,0s21.601,0,32.4,0
			s21.6,0,32.399,0c10.801,0,21.601,0,32.4,0s21.6,0,32.4,0c10.8,0,21.6,0,32.399,0s21.601,0,32.4-0.333s21.6-1,32.399-1.333
			c10.801-0.334,21.601-0.334,32.4-0.667s21.6-1,32.4-2.5c10.8-1.5,21.6-3.833,32.399-5.5s21.6-2.667,32.4-5.667
			c10.8-3,21.6-8,32.399-14.833s21.601-15.5,32.4-24.5s21.6-18.333,32.399-25.5c10.801-7.167,21.601-12.167,32.4-19.333
			c10.8-7.167,21.6-16.5,32.4-27.334c10.8-10.833,21.6-23.166,32.399-36.166s21.601-26.667,32.4-35.834
			c10.8-9.166,21.6-13.833,32.399-24c10.801-10.166,21.601-25.833,32.4-44.333s21.6-39.833,32.4-60.5
			c10.8-20.667,21.6-40.667,32.399-55.833c10.8-15.167,21.601-25.5,27-30.667c5.4-5.167,5.4-5.167,5.4-5.167"/>
	</g>
	<g>
		<path fill="none" stroke="#AEC7E8" stroke-width="2" d="M20.875,425.103c0,0,0,0,5.399-0.166c5.4-0.167,16.2-0.5,27-1
			s21.601-1.167,32.4-1.834c10.8-0.666,21.6-1.333,32.399-1.666c10.801-0.334,21.601-0.334,32.4,0.166s21.6,1.5,32.4,0.167
			c10.8-1.333,21.6-5,32.399-6.5s21.601-0.833,32.4-0.333s21.6,0.833,32.399,0.333c10.801-0.5,21.601-1.833,32.4-3.333
			s21.6-3.167,32.4-4.667c10.8-1.5,21.6-2.833,32.399-3.333s21.6-0.167,32.4-0.167c10.8,0,21.6-0.333,32.399-2.667
			c10.8-2.333,21.601-6.666,32.4-10c10.8-3.333,21.6-5.666,32.399-7.166c10.801-1.5,21.601-2.167,32.4-3.834
			c10.8-1.666,21.6-4.333,32.4-4.5c10.8-0.166,21.6,2.167,32.399-4.833s21.601-23.333,32.4-30.5s21.6-5.167,32.399-2.333
			c10.801,2.833,21.601,6.5,32.4,10.833s21.6,9.333,32.4,2.833c10.8-6.5,21.6-24.5,32.399-31.166c10.8-6.667,21.601-2,27,0.333
			c5.4,2.333,5.4,2.333,5.4,2.333"/>
	</g>
	<g>
		<path fill="none" stroke="#FF7F0E" stroke-width="2" d="M20.875,382.103c0,0,0,0,5.399-1c5.4-1,16.2-3,27-5s21.601-4,32.4-6.166
			c10.8-2.167,21.6-4.5,32.399-3.5c10.801,1,21.601,5.333,32.4,7.5c10.8,2.166,21.6,2.166,32.4,2.166c10.8,0,21.6,0,32.399,0.167
			s21.601,0.5,32.4,0.667c10.8,0.166,21.6,0.166,32.399-1.167c10.801-1.333,21.601-4,32.4-4.167c10.8-0.166,21.6,2.167,32.4,0.834
			c10.8-1.334,21.6-6.334,32.399-9c10.8-2.667,21.6-3,32.4-3.667c10.8-0.667,21.6-1.667,32.399-4s21.601-6,32.4-9.333
			c10.8-3.334,21.6-6.334,32.399-5.5c10.801,0.833,21.601,5.5,32.4,9.5s21.6,7.333,32.4,11c10.8,3.666,21.6,7.666,32.399,10.5
			c10.8,2.833,21.601,4.5,32.4,7.5s21.6,7.333,32.399,11.166c10.801,3.834,21.601,7.167,32.4,10.834
			c10.8,3.666,21.6,7.666,32.4,10.5c10.8,2.833,21.6,4.5,32.399,5.833s21.601,2.333,27,2.833c5.4,0.5,5.4,0.5,5.4,0.5"/>
	</g>
	<g>
		<path fill="none" stroke="#FFBB78" stroke-width="2" d="M20.875,419.103c0,0,0,0,5.399-0.166c5.4-0.167,16.2-0.5,27-1
			s21.601-1.167,32.4-1.834c10.8-0.666,21.6-1.333,32.399-1.833c10.801-0.5,21.601-0.833,32.4-1.5s21.6-1.667,32.4-2.333
			c10.8-0.667,21.6-1,32.399-1.834c10.8-0.833,21.601-2.166,32.4-2.833s21.6-0.667,32.399-0.833c10.801-0.167,21.601-0.5,32.4-1
			s21.6-1.167,32.4-2.334c10.8-1.166,21.6-2.833,32.399-3.833s21.6-1.333,32.4-1.833c10.8-0.5,21.6-1.167,32.399-2
			c10.8-0.834,21.601-1.834,32.4-3.334s21.6-3.5,32.399-3.666c10.801-0.167,21.601,1.5,32.4,2.5s21.6,1.333,32.4,1.5
			c10.8,0.166,21.6,0.166,32.399,0c10.8-0.167,21.601-0.5,32.4,0.666c10.8,1.167,21.6,3.834,32.399,6.167
			c10.801,2.333,21.601,4.333,32.4,4.833s21.6-0.5,32.4-0.333c10.8,0.167,21.6,1.5,32.399,2.667c10.8,1.166,21.601,2.166,27,2.666
			c5.4,0.5,5.4,0.5,5.4,0.5"/>
	</g>
	<g>
		<path fill="none" stroke="#2CA02C" stroke-width="2" d="M20.875,417.103c0,0,0,0,5.399-0.166c5.4-0.167,16.2-0.5,27-1
			s21.601-1.167,32.4-1.667s21.6-0.833,32.399-0.667c10.801,0.167,21.601,0.834,32.4,1.167s21.6,0.333,32.4,0.167
			c10.8-0.167,21.6-0.5,32.399-1s21.601-1.167,32.4-1c10.8,0.166,21.6,1.166,32.399,1.666c10.801,0.5,21.601,0.5,32.4,0.667
			s21.6,0.5,32.4,0.333c10.8-0.166,21.6-0.833,32.399-1c10.8-0.166,21.6,0.167,32.4,0.667c10.8,0.5,21.6,1.167,32.399,1.833
			c10.8,0.667,21.601,1.334,32.4,1.167s21.6-1.167,32.399-1.333c10.801-0.167,21.601,0.5,32.4,1.166
			c10.8,0.667,21.6,1.334,32.4,1.667c10.8,0.333,21.6,0.333,32.399,0s21.601-1,32.4-1.333c10.8-0.334,21.6-0.334,32.399-1
			c10.801-0.667,21.601-2,32.4-2.667s21.6-0.667,32.4-1.667c10.8-1,21.6-3,32.399-3.833s21.601-0.5,27-0.333
			c5.4,0.166,5.4,0.166,5.4,0.166"/>
	</g>
	<g>
		<path fill="none" stroke="#98DF8A" stroke-width="2" d="M20.875,425.103c0,0,0,0,5.399,0c5.4,0,16.2,0,27,0s21.601,0,32.4,0
			s21.6,0,32.399,0c10.801,0,21.601,0,32.4,0s21.6,0,32.4,0c10.8,0,21.6,0,32.399,0s21.601,0,32.4,0s21.6,0,32.399,0
			c10.801,0,21.601,0,32.4,0s21.6,0,32.4,0c10.8,0,21.6,0,32.399,0s21.6,0,32.4-0.333c10.8-0.333,21.6-1,32.399-1.333
			c10.8-0.334,21.601-0.334,32.4-0.834s21.6-1.5,32.399-2c10.801-0.5,21.601-0.5,32.4-0.666c10.8-0.167,21.6-0.5,32.4-0.834
			c10.8-0.333,21.6-0.666,32.399-1c10.8-0.333,21.601-0.666,32.4-1.166s21.6-1.167,32.399-1.667c10.801-0.5,21.601-0.833,32.4-1.5
			s21.6-1.667,32.4-1c10.8,0.667,21.6,3,32.399,4.667c10.8,1.666,21.601,2.666,27,3.166c5.4,0.5,5.4,0.5,5.4,0.5"/>
	</g>
	<g>
		<path fill="none" stroke="#D62728" stroke-width="2" d="M20.875,414.103c0,0,0,0,5.399,0.167c5.4,0.167,16.2,0.5,27,0.667
			c10.8,0.166,21.601,0.166,32.4,0.166s21.6,0,32.399-0.166c10.801-0.167,21.601-0.5,32.4-0.334c10.8,0.167,21.6,0.834,32.4,1
			c10.8,0.167,21.6-0.166,32.399-0.5c10.8-0.333,21.601-0.666,32.4-0.333s21.6,1.333,32.399,2.167
			c10.801,0.833,21.601,1.5,32.4,1.666c10.8,0.167,21.6-0.166,32.4-0.333c10.8-0.167,21.6-0.167,32.399,0s21.6,0.5,32.4,0.833
			c10.8,0.334,21.6,0.667,32.399,0.834c10.8,0.166,21.601,0.166,32.4,0.333s21.6,0.5,32.399,0.667
			c10.801,0.166,21.601,0.166,32.4,0.333s21.6,0.5,32.4,0.667c10.8,0.166,21.6,0.166,32.399,0.166s21.601,0,32.4,0
			s21.6,0,32.399,0.167c10.801,0.167,21.601,0.5,32.4,0.667c10.8,0.166,21.6,0.166,32.4,0.166c10.8,0,21.6,0,32.399,0s21.601,0,27,0
			c5.4,0,5.4,0,5.4,0"/>
	</g>
	<g transform="translate(0, 0)">
		<rect x="5.675" y="451.103" fill="#1F77B4" width="113.714" height="18"/>
		<text transform="matrix(1 0 0 1 38.4041 465.7039)" font-family="'Helvetica'" font-size="14">Android</text>
	</g>
	<g transform="translate(115.71428571428571, 0)">
		<rect x="5.675" y="451.103" fill="#AEC7E8" width="113.715" height="18"/>
		<text transform="matrix(1 0 0 1 50.8626 465.7039)" font-family="'Helvetica'" font-size="14">iOS</text>
	</g>
	<g transform="translate(231.42857142857142, 0)">
		<rect x="5.675" y="451.103" fill="#FF7F0E" width="113.714" height="18"/>
		<text transform="matrix(1 0 0 1 35.2972 465.7039)" font-family="'Helvetica'" font-size="14">Symbian</text>
	</g>
	<g transform="translate(347.1428571428571, 0)">
		<rect x="5.675" y="451.103" fill="#FFBB78" width="113.714" height="18"/>
		<text transform="matrix(1 0 0 1 28.6904 465.7039)" font-family="'Helvetica'" font-size="14">BlackBerry</text>
	</g>
	<g transform="translate(462.85714285714283, 0)">
		<rect x="5.674" y="451.103" fill="#2CA02C" width="113.715" height="18"/>
		<text transform="matrix(1 0 0 1 34.1392 465.7039)" font-family="'Helvetica'" font-size="14">Microsoft</text>
	</g>
	<g transform="translate(578.5714285714286, 0)">
		<rect x="5.675" y="451.103" fill="#98DF8A" width="113.714" height="18"/>
		<text transform="matrix(1 0 0 1 46.1837 465.7039)" font-family="'Helvetica'" font-size="14">Bada</text>
	</g>
	<g transform="translate(694.2857142857142, 0)">
		<rect x="5.674" y="451.103" fill="#D62728" width="113.715" height="18"/>
		<text transform="matrix(1 0 0 1 41.5251 465.7039)" font-family="'Helvetica'" font-size="14">Others</text>
	</g>
</g>
</svg>
