<?xml version="1.0" encoding="utf-8"?>
<!-- Generator: Adobe Illustrator 16.0.1, SVG Export Plug-In . SVG Version: 6.00 Build 0)  -->
<!DOCTYPE svg PUBLIC "-//W3C//DTD SVG 1.1//EN" "http://www.w3.org/Graphics/SVG/1.1/DTD/svg11.dtd">
<svg version="1.1" id="Layer_1" xmlns="http://www.w3.org/2000/svg" xmlns:xlink="http://www.w3.org/1999/xlink" x="0px" y="0px"
	 width="960px" height="400px" viewBox="0 0 960 400" enable-background="new 0 0 960 400" xml:space="preserve">
<g>
	<g transform="translate(0,330)">
		<g transform="translate(0,0)">
			<line fill="none" stroke="#000000" x1="74.804" y1="15.453" x2="74.804" y2="21.453"/>
			<text transform="matrix(1 0 0 1 59.2312 34.3933)" font-family="'Helvetica'" font-size="14">2010</text>
		</g>
		<g transform="translate(64.9703331811958,0)">
			<line fill="none" stroke="#000000" x1="74.803" y1="15.453" x2="74.803" y2="21.453"/>
			<text transform="matrix(1 0 0 1 59.7472 34.3933)" font-family="'Helvetica'" font-size="14">2011</text>
		</g>
		<g transform="translate(129.9406663623916,0)">
			<line fill="none" stroke="#000000" x1="74.804" y1="15.453" x2="74.804" y2="21.453"/>
			<text transform="matrix(1 0 0 1 59.2314 34.3933)" font-family="'Helvetica'" font-size="14">2012</text>
		</g>
		<g transform="translate(195.0890004564126,0)">
			<line fill="none" stroke="#000000" x1="74.804" y1="15.453" x2="74.804" y2="21.453"/>
			<text transform="matrix(1 0 0 1 59.2311 34.3933)" font-family="'Helvetica'" font-size="14">2013</text>
		</g>
		<g transform="translate(260.0593336376084,0)">
			<line fill="none" stroke="#000000" x1="74.803" y1="15.453" x2="74.803" y2="21.453"/>
			<text transform="matrix(1 0 0 1 59.231 34.3933)" font-family="'Helvetica'" font-size="14">2014</text>
		</g>
		<g transform="translate(325.0296668188042,0)">
			<line fill="none" stroke="#000000" x1="74.804" y1="15.453" x2="74.804" y2="21.453"/>
			<text transform="matrix(1 0 0 1 59.2313 34.3933)" font-family="'Helvetica'" font-size="14">2015</text>
		</g>
		<g transform="translate(390,0)">
			<line fill="none" stroke="#000000" x1="74.804" y1="15.453" x2="74.804" y2="21.453"/>
			<text transform="matrix(1 0 0 1 59.2312 34.3933)" font-family="'Helvetica'" font-size="14">2016</text>
		</g>
		<path fill="none" stroke="#000000" d="M74.804,21.453v-6h390v6"/>
	</g>
	<g>
		<g transform="translate(0,330)">
			<line fill="none" stroke="#000000" x1="74.804" y1="15.453" x2="68.804" y2="15.453"/>
			<text transform="matrix(1 0 0 1 58.0173 19.9333)" font-family="'Helvetica'" font-size="14">0</text>
		</g>
		<g transform="translate(0,291)">
			<line fill="none" stroke="#000000" x1="74.804" y1="15.453" x2="68.804" y2="15.453"/>
			<text transform="matrix(1 0 0 1 22.9832 19.9333)" font-family="'Helvetica'" font-size="14">20,000</text>
		</g>
		<g transform="translate(0,252)">
			<line fill="none" stroke="#000000" x1="74.804" y1="15.453" x2="68.804" y2="15.453"/>
			<text transform="matrix(1 0 0 1 22.9832 19.9333)" font-family="'Helvetica'" font-size="14">40,000</text>
		</g>
		<g transform="translate(0,214)">
			<line fill="none" stroke="#000000" x1="74.804" y1="15.453" x2="68.804" y2="15.453"/>
			<text transform="matrix(1 0 0 1 22.9832 19.9333)" font-family="'Helvetica'" font-size="14">60,000</text>
		</g>
		<g transform="translate(0,175)">
			<line fill="none" stroke="#000000" x1="74.804" y1="15.453" x2="68.804" y2="15.453"/>
			<text transform="matrix(1 0 0 1 22.9832 19.9333)" font-family="'Helvetica'" font-size="14">80,000</text>
		</g>
		<g transform="translate(0,136)">
			<line fill="none" stroke="#000000" x1="74.804" y1="15.453" x2="68.804" y2="15.453"/>
			<text transform="matrix(1 0 0 1 15.197 19.9333)" font-family="'Helvetica'" font-size="14">100,000</text>
		</g>
		<g transform="translate(0,97)">
			<line fill="none" stroke="#000000" x1="74.804" y1="15.453" x2="68.804" y2="15.453"/>
			<text transform="matrix(1 0 0 1 15.197 19.9333)" font-family="'Helvetica'" font-size="14">120,000</text>
		</g>
		<g transform="translate(0,58)">
			<line fill="none" stroke="#000000" x1="74.804" y1="15.453" x2="68.804" y2="15.453"/>
			<text transform="matrix(1 0 0 1 15.197 19.9333)" font-family="'Helvetica'" font-size="14">140,000</text>
		</g>
		<g transform="translate(0,19)">
			<line fill="none" stroke="#000000" x1="74.804" y1="15.453" x2="68.804" y2="15.453"/>
			<text transform="matrix(1 0 0 1 15.197 19.9333)" font-family="'Helvetica'" font-size="14">160,000</text>
		</g>
		<path fill="none" stroke="#000000" d="M68.804,15.453h6v330h-6"/>
		<text transform="matrix(6.123234e-17 -1 1 6.123234e-17 90.7434 154.7556)" font-family="'Helvetica'" font-size="14">Sales (thousand units)</text>
	</g>
	<g>
		<path fill="none" stroke="#1F77B4" stroke-width="2" d="M74.804,316.453c0,0,0,0,10.828-8.166s32.485-24.5,54.142-43.334
			c21.657-18.832,43.313-40.166,65-59.332c21.687-19.167,43.403-36.167,86.746-67.333c43.343-31.167,108.313-76.5,140.799-99.167
			s32.485-22.667,32.485-22.667"/>
		<path fill="none" stroke="#AEC7E8" stroke-width="2" d="M74.804,340.453c0,0,0,0,10.828-4.832c10.828-4.834,32.485-14.5,54.142-26
			c21.657-11.5,43.313-24.834,65-39.168c21.687-14.332,43.403-29.666,86.746-61.832c43.343-32.167,108.313-81.167,140.799-105.667
			s32.485-24.5,32.485-24.5"/>
		<path fill="none" stroke="#FF7F0E" stroke-width="2" d="M74.804,345.453c0,0,0,0,10.828,0s32.485,0,54.142-1.5
			c21.657-1.5,43.313-4.5,65-9.166s43.403-11,86.746-23.666c43.343-12.668,108.313-31.668,140.799-41.168s32.485-9.5,32.485-9.5"/>
		<path fill="none" stroke="#FFBB78" stroke-width="2" d="M74.804,345.453c0,0,0,0,10.828-0.332c10.828-0.334,32.485-1,54.142-1.834
			c21.657-0.834,43.313-1.834,65-3.5s43.403-4,86.746-9s108.313-12.666,140.799-16.5s32.485-3.834,32.485-3.834"/>
		<path fill="none" stroke="#2CA02C" stroke-width="2" d="M74.804,344.453c0,0,0,0,10.828-0.5s32.485-1.5,54.142-1.5
			c21.657,0,43.313,1,65,1.5s43.403,0.5,86.746,0.5s108.313,0,140.799,0s32.485,0,32.485,0"/>
	</g>
	<g transform="translate(0,330)">
		<g transform="translate(57.5,0)">
			<line fill="none" stroke="#000000" x1="534.804" y1="15.453" x2="534.804" y2="21.453"/>
			<text transform="matrix(1 0 0 1 519.2307 34.3933)" font-family="'Helvetica'" font-size="14">2010</text>
		</g>
		<g transform="translate(131.5,0)">
			<line fill="none" stroke="#000000" x1="534.804" y1="15.453" x2="534.804" y2="21.453"/>
			<text transform="matrix(1 0 0 1 519.7473 34.3933)" font-family="'Helvetica'" font-size="14">2011</text>
		</g>
		<g transform="translate(205.5,0)">
			<line fill="none" stroke="#000000" x1="534.804" y1="15.453" x2="534.804" y2="21.453"/>
			<text transform="matrix(1 0 0 1 519.2307 34.3933)" font-family="'Helvetica'" font-size="14">2012</text>
		</g>
		<g transform="translate(279.5,0)">
			<line fill="none" stroke="#000000" x1="534.804" y1="15.453" x2="534.804" y2="21.453"/>
			<text transform="matrix(1 0 0 1 519.2307 34.3933)" font-family="'Helvetica'" font-size="14">2013</text>
		</g>
		<g transform="translate(353.5,0)">
			<line fill="none" stroke="#000000" x1="534.804" y1="15.453" x2="534.804" y2="21.453"/>
			<text transform="matrix(1 0 0 1 519.2307 34.3933)" font-family="'Helvetica'" font-size="14">2016</text>
		</g>
		<path fill="none" stroke="#000000" d="M534.804,21.453v-6h410v6"/>
	</g>
	<g>
		<g transform="translate(0,330)">
			<line fill="none" stroke="#000000" x1="534.804" y1="15.453" x2="528.804" y2="15.453"/>
			<text transform="matrix(1 0 0 1 505.5686 19.9333)" font-family="'Helvetica'" font-size="14">0%</text>
		</g>
		<g transform="translate(0,297)">
			<line fill="none" stroke="#000000" x1="534.804" y1="15.453" x2="528.804" y2="15.453"/>
			<text transform="matrix(1 0 0 1 497.7834 19.9333)" font-family="'Helvetica'" font-size="14">10%</text>
		</g>
		<g transform="translate(0,264)">
			<line fill="none" stroke="#000000" x1="534.804" y1="15.453" x2="528.804" y2="15.453"/>
			<text transform="matrix(1 0 0 1 497.7834 19.9333)" font-family="'Helvetica'" font-size="14">20%</text>
		</g>
		<g transform="translate(0,231)">
			<line fill="none" stroke="#000000" x1="534.804" y1="15.453" x2="528.804" y2="15.453"/>
			<text transform="matrix(1 0 0 1 497.7834 19.9333)" font-family="'Helvetica'" font-size="14">30%</text>
		</g>
		<g transform="translate(0,198)">
			<line fill="none" stroke="#000000" x1="534.804" y1="15.453" x2="528.804" y2="15.453"/>
			<text transform="matrix(1 0 0 1 497.7834 19.9333)" font-family="'Helvetica'" font-size="14">40%</text>
		</g>
		<g transform="translate(0,165)">
			<line fill="none" stroke="#000000" x1="534.804" y1="15.453" x2="528.804" y2="15.453"/>
			<text transform="matrix(1 0 0 1 497.7834 19.9333)" font-family="'Helvetica'" font-size="14">50%</text>
		</g>
		<g transform="translate(0,132)">
			<line fill="none" stroke="#000000" x1="534.804" y1="15.453" x2="528.804" y2="15.453"/>
			<text transform="matrix(1 0 0 1 497.7834 19.9333)" font-family="'Helvetica'" font-size="14">60%</text>
		</g>
		<g transform="translate(0,99)">
			<line fill="none" stroke="#000000" x1="534.804" y1="15.453" x2="528.804" y2="15.453"/>
			<text transform="matrix(1 0 0 1 497.7834 19.9333)" font-family="'Helvetica'" font-size="14">70%</text>
		</g>
		<g transform="translate(0,66)">
			<line fill="none" stroke="#000000" x1="534.804" y1="15.453" x2="528.804" y2="15.453"/>
			<text transform="matrix(1 0 0 1 497.7834 19.9333)" font-family="'Helvetica'" font-size="14">80%</text>
		</g>
		<g transform="translate(0,33)">
			<line fill="none" stroke="#000000" x1="534.804" y1="15.453" x2="528.804" y2="15.453"/>
			<text transform="matrix(1 0 0 1 497.7834 19.9333)" font-family="'Helvetica'" font-size="14">90%</text>
		</g>
		<g transform="translate(0,0)">
			<line fill="none" stroke="#000000" x1="534.804" y1="15.453" x2="528.804" y2="15.453"/>
			<text transform="matrix(1 0 0 1 489.9963 19.9333)" font-family="'Helvetica'" font-size="14">100%</text>
		</g>
		<path fill="none" stroke="#000000" d="M528.804,15.453h6v330h-6"/>
	</g>
	<g>
		<g transform="translate(39,0)">
			<rect x="534.804" y="68.453" fill="#1F77B4" width="37" height="277"/>
			<rect x="534.804" y="21.453" fill="#AEC7E8" width="37" height="47"/>
			<polygon fill="#FF7F0E" points="534.804,21.453 571.804,21.453 571.804,21.453 			"/>
			<polygon fill="#FFBB78" points="534.804,21.453 571.804,21.453 571.804,21.453 			"/>
			<rect x="534.804" y="15.453" fill="#2CA02C" width="37" height="6"/>
		</g>
		<g transform="translate(113,0)">
			<rect x="534.804" y="125.453" fill="#1F77B4" width="37" height="220"/>
			<rect x="534.804" y="30.453" fill="#AEC7E8" width="37" height="95"/>
			<polygon fill="#FF7F0E" points="534.804,30.453 571.804,30.453 571.804,30.453 			"/>
			<rect x="534.804" y="26.453" fill="#FFBB78" width="37" height="4"/>
			<rect x="534.804" y="15.453" fill="#2CA02C" width="37" height="11"/>
		</g>
		<g transform="translate(187,0)">
			<rect x="534.804" y="142.453" fill="#1F77B4" width="37" height="203"/>
			<rect x="534.804" y="37.453" fill="#AEC7E8" width="37" height="105"/>
			<rect x="534.804" y="24.453" fill="#FF7F0E" width="37" height="13"/>
			<rect x="534.804" y="16.453" fill="#FFBB78" width="37" height="8"/>
			<rect x="534.804" y="15.453" fill="#2CA02C" width="37" height="1"/>
		</g>
		<g transform="translate(261,0)">
			<rect x="534.804" y="165.453" fill="#1F77B4" width="37" height="180"/>
			<rect x="534.804" y="53.453" fill="#AEC7E8" width="37" height="112"/>
			<rect x="534.804" y="27.453" fill="#FF7F0E" width="37" height="26"/>
			<rect x="534.804" y="16.453" fill="#FFBB78" width="37" height="11"/>
			<rect x="534.804" y="15.453" fill="#2CA02C" width="37" height="1"/>
		</g>
		<g transform="translate(335,0)">
			<rect x="534.804" y="193.453" fill="#1F77B4" width="37" height="152"/>
			<rect x="534.804" y="70.453" fill="#AEC7E8" width="37" height="123"/>
			<rect x="534.804" y="31.453" fill="#FF7F0E" width="37" height="39"/>
			<rect x="534.804" y="15.453" fill="#FFBB78" width="37" height="16"/>
			<polygon fill="#2CA02C" points="534.804,15.453 571.804,15.453 571.804,15.453 			"/>
		</g>
	</g>
	<g transform="translate(0, 0)">
		<rect x="25.804" y="371.453" fill="#1F77B4" width="182" height="18"/>
		<text transform="matrix(1 0 0 1 92.676 385.3533)" font-family="'Helvetica'" font-size="14">Android</text>
	</g>
	<g transform="translate(184, 0)">
		<rect x="25.804" y="371.453" fill="#AEC7E8" width="182" height="18"/>
		<text transform="matrix(1 0 0 1 105.1345 385.3533)" font-family="'Helvetica'" font-size="14">iOS</text>
	</g>
	<g transform="translate(368, 0)">
		<rect x="25.804" y="371.453" fill="#FF7F0E" width="182" height="18"/>
		<text transform="matrix(1 0 0 1 88.407 385.3533)" font-family="'Helvetica'" font-size="14">Windows</text>
	</g>
	<g transform="translate(552, 0)">
		<rect x="25.804" y="371.453" fill="#FFBB78" width="182" height="18"/>
		<text transform="matrix(1 0 0 1 82.9622 385.3533)" font-family="'Helvetica'" font-size="14">BlackBerry</text>
	</g>
	<g transform="translate(736, 0)">
		<rect x="25.804" y="371.453" fill="#2CA02C" width="182" height="18"/>
		<text transform="matrix(1 0 0 1 95.7971 385.3533)" font-family="'Helvetica'" font-size="14">Others</text>
	</g>
</g>
</svg>
